<?xml version="1.0" standalone="no"?>
<!DOCTYPE svg PUBLIC "-//W3C//DTD SVG 20010904//EN"
 "http://www.w3.org/TR/2001/REC-SVG-20010904/DTD/svg10.dtd">
<svg version="1.0" xmlns="http://www.w3.org/2000/svg"
 width="405.000000pt" height="405.000000pt" viewBox="0 0 405.000000 405.000000"
 preserveAspectRatio="xMidYMid meet">
<metadata>
Created by potrace 1.11, written by Peter Selinger 2001-2013
</metadata>
<g transform="translate(0.000000,405.000000) scale(0.100000,-0.100000)"
fill="#000000" stroke="none">
<path d="M550 3634 c-82 -24 -140 -102 -140 -188 0 -59 18 -103 60 -145 154
-153 411 26 321 224 -42 93 -142 138 -241 109z"/>
<path d="M306 3072 c-3 -5 1 -9 9 -9 8 0 12 4 9 9 -3 4 -7 8 -9 8 -2 0 -6 -4
-9 -8z"/>
<path d="M1900 3037 c-3 -3 -27 -7 -55 -11 -314 -37 -627 -275 -766 -582 -107
-236 -114 -543 -18 -783 112 -280 353 -505 634 -592 38 -12 78 -23 90 -25 11
-2 43 -8 70 -13 28 -5 303 -10 613 -11 l562 -1 1 113 c2 455 -1 980 -6 1013
-37 243 -129 429 -295 596 -152 153 -333 248 -539 284 -71 12 -282 21 -291 12z
m272 -422 c181 -46 345 -189 410 -357 43 -109 47 -157 45 -503 l-2 -330 -335
-1 c-377 0 -413 5 -549 72 -86 42 -187 138 -239 225 -110 188 -112 423 -3 613
86 149 265 273 422 292 30 3 55 7 57 9 8 7 142 -6 194 -20z"/>
<path d="M3909 2473 c-13 -16 -12 -17 4 -4 16 13 21 21 13 21 -2 0 -10 -8 -17
-17z"/>
<path d="M3950 2176 c0 -2 7 -7 16 -10 8 -3 12 -2 9 4 -6 10 -25 14 -25 6z"/>
<path d="M579 643 c-13 -17 -13 -17 6 -3 11 8 22 16 24 17 2 2 0 3 -6 3 -6 0
-17 -8 -24 -17z"/>
<path d="M989 373 c-13 -16 -12 -17 4 -4 9 7 17 15 17 17 0 8 -8 3 -21 -13z"/>
<path d="M2115 51 c-3 -5 -2 -12 3 -15 5 -3 9 1 9 9 0 17 -3 19 -12 6z"/>
</g>
</svg>
