<svg version="1" xmlns="http://www.w3.org/2000/svg" width="493.333" height="493.333" viewBox="0 0 370.000000 370.000000"><path d="M165.5 1c-20.4 2.2-42.6 8.6-61 17.7C94.6 23.6 83 30.2 83 31c0 .3 1.5 2.3 3.3 4.4l3.4 3.9 6.1-3.7c3.4-2 10.8-5.9 16.4-8.6 35.3-16.6 78-20.4 116.4-10.5 42.7 11.1 80.8 39.4 104.5 77.5 33.6 54.1 34.1 125.3 1.4 179.5C291.7 344.3 208 375.6 130 349.9c-55.1-18.2-98.8-65-113.5-121.3-9.9-38.4-6.1-81.1 10.5-116.4 2.7-5.6 6.6-13 8.6-16.4l3.7-6.1-3.9-3.4C33.3 84.5 31.3 83 31 83c-.8 0-7.4 11.6-12.3 21.5C.9 140.4-4.3 182.6 4 222.9c7.8 37.5 30 75.6 58.8 100.6 74 64.5 183.7 61 252.7-8 55.6-55.7 69.9-139.6 35.9-210.5C317.8 34.9 242.5-7.2 165.5 1z"/><path d="M52.7 41.3c-5.3 1.7-10.2 6.8-11.6 12.2-4.3 17.3 16.7 29.4 29.2 16.8 9.5-9.4 5.1-26-7.8-29.2-5.1-1.3-4.9-1.3-9.8.2zM166.7 96.6c-18.7 4.1-31.5 11.2-45.2 24.9C103.4 139.6 95 159.8 95 185c0 41.3 26.3 75.3 67.5 87.3 6.6 1.9 10.3 2.1 59.8 2.4l52.7.4v-48.8c-.1-52.5-.4-57.1-5.4-71.2-7.8-22.2-23.6-40-45.1-50.6-6-3-13.7-6.1-17-7-8.7-2.4-32-2.9-40.8-.9zm29.6 34.9c19.4 4.1 35.3 19.1 41.4 39 1.6 5.3 1.8 9.9 1.8 37.5v31.5H208c-27.6 0-32.2-.2-37.5-1.8-14.9-4.6-27.1-14.5-33.8-27.4-11.4-22-7.6-46.4 9.8-63.8 13.7-13.7 31.2-19 49.8-15z"/></svg>