<?xml version="1.0" standalone="no"?>
<!DOCTYPE svg PUBLIC "-//W3C//DTD SVG 20010904//EN"
 "http://www.w3.org/TR/2001/REC-SVG-20010904/DTD/svg10.dtd">
<svg version="1.0" xmlns="http://www.w3.org/2000/svg"
 width="330.000000pt" height="330.000000pt" viewBox="0 0 330.000000 330.000000"
 preserveAspectRatio="xMidYMid meet">
<metadata>
Created by potrace 1.11, written by Peter Selinger 2001-2013
</metadata>
<g transform="translate(0.000000,330.000000) scale(0.100000,-0.100000)"
fill="#000000" stroke="none">
<path d="M1495 3254 c-443 -63 -788 -241 -1051 -542 -185 -212 -303 -443 -370
-727 -27 -113 -28 -133 -28 -345 0 -195 3 -239 22 -326 148 -679 674 -1177
1357 -1286 113 -17 378 -15 495 5 711 122 1246 670 1350 1382 19 127 14 361
-10 499 -114 661 -623 1182 -1286 1317 -96 19 -402 34 -479 23z m378 -440
c290 -55 573 -238 750 -485 203 -286 273 -653 187 -991 -103 -400 -408 -727
-795 -851 -150 -48 -181 -52 -380 -51 -172 0 -199 3 -286 26 -118 32 -226 77
-315 130 -495 297 -712 873 -534 1421 31 95 117 268 136 274 6 2 21 -4 32 -14
l22 -18 -60 -120 c-36 -72 -71 -160 -87 -220 -24 -91 -27 -116 -27 -285 0
-170 2 -193 28 -285 117 -430 473 -755 911 -831 131 -23 337 -14 470 20 397
103 713 422 815 823 170 664 -307 1338 -992 1401 -229 21 -485 -33 -670 -143
l-56 -33 -21 22 c-12 12 -21 25 -21 29 0 11 122 78 207 113 209 87 455 111
686 68z m-1019 -248 c68 -28 95 -101 61 -166 -38 -74 -150 -78 -199 -8 -33 47
-12 142 36 165 52 26 60 26 102 9z m908 -357 c29 -6 90 -29 136 -51 153 -72
269 -216 312 -383 18 -70 20 -111 20 -407 l0 -328 -322 0 c-356 0 -411 7 -520
59 -299 143 -420 500 -272 801 71 142 228 267 386 306 67 16 191 17 260 3z"/>
<path d="M1582 1979 c-111 -19 -212 -95 -261 -199 -22 -47 -26 -68 -26 -150 0
-76 5 -104 22 -142 30 -66 105 -143 172 -175 55 -28 58 -28 285 -31 l228 -3
-4 213 c-4 161 -9 223 -21 256 -61 164 -224 259 -395 231z"/>
</g>
</svg>
