<?xml version="1.0" standalone="no"?>
<!DOCTYPE svg PUBLIC "-//W3C//DTD SVG 20010904//EN"
 "http://www.w3.org/TR/2001/REC-SVG-20010904/DTD/svg10.dtd">
<svg version="1.0" xmlns="http://www.w3.org/2000/svg"
 width="498.000000pt" height="498.000000pt" viewBox="0 0 498.000000 498.000000"
 preserveAspectRatio="xMidYMid meet">
<metadata>
Created by potrace 1.11, written by Peter Selinger 2001-2013
</metadata>
<g transform="translate(0.000000,498.000000) scale(0.100000,-0.100000)"
fill="#000000" stroke="none">
<path d="M2197 4955 c-758 -92 -1430 -526 -1829 -1182 -168 -275 -283 -596
-335 -933 -25 -161 -25 -539 0 -700 82 -529 307 -990 667 -1363 199 -207 401
-360 641 -486 700 -367 1547 -377 2250 -26 358 179 642 413 878 725 332 439
502 946 502 1496 0 297 -35 515 -127 793 -161 483 -461 898 -869 1201 -362
269 -777 431 -1227 480 -129 13 -417 11 -551 -5z m692 -489 c543 -116 989
-419 1294 -881 127 -194 241 -474 286 -707 129 -668 -81 -1344 -566 -1824
-277 -273 -622 -457 -1013 -539 -170 -36 -496 -46 -670 -21 -221 32 -397 86
-597 181 -626 299 -1046 887 -1133 1585 -13 109 -13 351 0 460 36 284 126 552
266 793 25 42 48 77 51 77 9 0 73 -41 73 -47 0 -3 -15 -31 -34 -62 -270 -449
-343 -980 -206 -1499 106 -398 355 -767 689 -1021 510 -389 1169 -493 1796
-286 110 37 323 142 425 210 432 290 717 713 827 1230 26 122 27 145 27 375 0
230 -1 253 -27 375 -176 826 -815 1421 -1642 1530 -415 54 -872 -39 -1218
-249 -43 -26 -80 -46 -81 -44 -1 1 -13 18 -26 37 l-23 34 24 18 c45 36 343
178 434 207 252 82 392 102 685 98 207 -4 250 -7 359 -30z m-1722 -385 c117
-54 146 -212 56 -312 -112 -124 -320 -56 -340 112 -18 155 139 265 284 200z
m1473 -596 c396 -60 719 -353 827 -750 l27 -100 4 -578 3 -578 -588 3 -588 4
-100 27 c-381 103 -660 393 -740 769 -69 322 26 659 254 900 228 243 562 355
901 303z"/>
<path d="M2392 3089 c-232 -41 -429 -222 -487 -448 -21 -83 -21 -219 0 -302
60 -230 258 -410 495 -448 36 -6 208 -11 383 -11 l318 0 -3 363 c-4 340 -5
366 -26 427 -44 134 -150 269 -265 338 -117 71 -288 104 -415 81z"/>
</g>
</svg>
