<?xml version="1.0" standalone="no"?>
<!DOCTYPE svg PUBLIC "-//W3C//DTD SVG 20010904//EN"
 "http://www.w3.org/TR/2001/REC-SVG-20010904/DTD/svg10.dtd">
<svg version="1.0" xmlns="http://www.w3.org/2000/svg"
 width="1006.000000pt" height="1006.000000pt" viewBox="0 0 1006.000000 1006.000000"
 preserveAspectRatio="xMidYMid meet">
<metadata>
Created by potrace 1.11, written by Peter Selinger 2001-2013
</metadata>
<g transform="translate(0.000000,1006.000000) scale(0.100000,-0.100000)"
fill="#000000" stroke="none">
<path d="M4615 10045 c-841 -71 -1635 -344 -2335 -803 -311 -203 -535 -386
-805 -657 -413 -413 -704 -818 -961 -1339 -531 -1074 -656 -2311 -353 -3486
157 -610 449 -1218 834 -1735 276 -371 659 -754 1030 -1030 527 -392 1130
-680 1762 -841 813 -207 1673 -207 2486 0 339 86 661 205 973 360 521 257 927
549 1339 961 272 271 454 494 657 805 971 1482 1087 3382 304 4966 -188 382
-392 695 -667 1024 -133 160 -449 476 -609 609 -821 684 -1785 1080 -2839
1166 -212 18 -609 17 -816 0z m701 -855 c576 -45 1078 -188 1604 -456 457
-232 887 -573 1238 -979 575 -666 925 -1513 993 -2405 14 -190 6 -604 -16
-780 -96 -776 -405 -1519 -875 -2104 -626 -779 -1463 -1290 -2440 -1490 -288
-59 -425 -71 -810 -71 -315 0 -374 3 -525 24 -502 68 -913 195 -1368 422 -611
307 -1171 805 -1564 1394 -658 984 -862 2200 -563 3350 108 416 264 780 498
1158 l54 88 22 -19 c16 -15 80 -58 144 -98 2 -2 -30 -58 -71 -126 -543 -897
-709 -1989 -456 -3001 216 -861 702 -1611 1397 -2154 601 -471 1316 -752 2092
-822 146 -14 520 -14 670 -1 840 74 1615 401 2255 950 109 94 333 322 436 445
503 600 800 1300 901 2125 20 164 17 690 -5 865 -62 483 -221 997 -429 1384
-202 375 -412 657 -717 961 -431 430 -936 742 -1516 936 -390 130 -729 190
-1140 201 -541 14 -1010 -63 -1515 -249 -163 -60 -491 -220 -654 -319 -110
-66 -121 -71 -130 -54 -6 10 -33 47 -59 83 -27 36 -45 68 -40 73 25 24 253
155 408 234 504 257 990 388 1620 438 98 8 444 6 561 -3z m-3110 -834 c156
-41 267 -158 300 -317 58 -275 -171 -524 -454 -494 -44 5 -87 19 -143 47 -89
44 -142 100 -188 198 -23 49 -26 67 -26 165 0 103 2 114 31 175 40 83 87 136
157 178 98 59 216 77 323 48z m3089 -1252 c336 -45 672 -185 950 -395 409
-308 684 -747 802 -1279 l27 -125 3 -1167 4 -1168 -1048 0 c-1108 0 -1236 4
-1440 45 -778 158 -1402 753 -1597 1523 -49 193 -60 283 -60 512 0 235 10 316
64 525 146 567 546 1062 1069 1324 158 80 223 105 371 146 288 80 562 98 855
59z"/>
<path d="M4835 6283 c-16 -2 -77 -15 -134 -29 -402 -99 -740 -409 -870 -800
-50 -151 -65 -244 -65 -404 0 -597 399 -1089 992 -1221 93 -21 123 -22 795
-26 l697 -5 0 691 c0 637 -1 698 -19 788 -51 264 -174 489 -368 674 -178 170
-400 282 -641 324 -78 14 -307 18 -387 8z"/>
</g>
</svg>
