<?xml version="1.0" standalone="no"?>
<!DOCTYPE svg PUBLIC "-//W3C//DTD SVG 20010904//EN"
 "http://www.w3.org/TR/2001/REC-SVG-20010904/DTD/svg10.dtd">
<svg version="1.0" xmlns="http://www.w3.org/2000/svg"
 width="370.000000pt" height="370.000000pt" viewBox="0 0 370.000000 370.000000"
 preserveAspectRatio="xMidYMid meet">
<metadata>
Created by potrace 1.11, written by Peter Selinger 2001-2013
</metadata>
<g transform="translate(0.000000,370.000000) scale(0.100000,-0.100000)"
fill="#000000" stroke="none">
<path d="M1655 3690 c-204 -22 -426 -86 -610 -177 -99 -49 -215 -115 -215
-123 0 -3 15 -23 33 -44 l34 -39 61 37 c34 20 108 59 164 86 353 166 780 204
1164 105 427 -111 808 -394 1045 -775 336 -541 341 -1253 14 -1795 -428 -708
-1265 -1021 -2045 -764 -551 182 -988 650 -1135 1213 -99 384 -61 811 105
1164 27 56 66 130 86 164 l37 61 -39 34 c-21 18 -41 33 -44 33 -8 0 -74 -116
-123 -215 -178 -359 -230 -781 -147 -1184 78 -375 300 -756 588 -1006 740
-645 1837 -610 2527 80 556 557 699 1396 359 2105 -336 701 -1089 1122 -1859
1040z"/>
<path d="M527 3287 c-53 -17 -102 -68 -116 -122 -43 -173 167 -294 292 -168
95 94 51 260 -78 292 -51 13 -49 13 -98 -2z"/>
<path d="M1667 2734 c-187 -41 -315 -112 -452 -249 -181 -181 -265 -383 -265
-635 0 -413 263 -753 675 -873 66 -19 103 -21 598 -24 l527 -4 0 488 c-1 525
-4 571 -54 712 -78 222 -236 400 -451 506 -60 30 -137 61 -170 70 -87 24 -320
29 -408 9z m296 -349 c194 -41 353 -191 414 -390 16 -53 18 -99 18 -375 l0
-315 -315 0 c-276 0 -322 2 -375 18 -149 46 -271 145 -338 274 -114 220 -76
464 98 638 137 137 312 190 498 150z"/>
</g>
</svg>
