<?xml version="1.0" encoding="UTF-8" standalone="no"?>
<!DOCTYPE svg PUBLIC "-//W3C//DTD SVG 1.1//EN" "http://www.w3.org/Graphics/SVG/1.1/DTD/svg11.dtd">
<svg width="100%" height="100%" viewBox="0 0 1060 1621" version="1.1" xmlns="http://www.w3.org/2000/svg" xmlns:xlink="http://www.w3.org/1999/xlink" xml:space="preserve" xmlns:serif="http://www.serif.com/" style="fill-rule:evenodd;clip-rule:evenodd;stroke-linecap:round;stroke-linejoin:round;stroke-miterlimit:1.5;">
    <g transform="matrix(1,0,0,1,-326,-3034)">
        <g transform="matrix(1,0,0,1,-11148.2,2824.01)">
            <g id="marcin-vector" serif:id="marcin vector" transform="matrix(1.81865,0,0,1.81865,7579.39,-592.631)">
                <g id="guides">
                </g>
                <g transform="matrix(1,0,0,1,0.75689,-0.31002)">
                    <g transform="matrix(1,0,0,1,-0.428659,-76.9867)">
                        <g transform="matrix(1.92049,0,0,1.92049,-2036.15,-648.276)">
                            <circle cx="2271.2" cy="763.514" r="9.586" style="fill:rgb(127,140,141);"/>
                        </g>
                        <g transform="matrix(1,0,0,1,-3.67234,40.4194)">
                            <path d="M2290.1,714.803L2348.3,714.803" style="fill:none;stroke:rgb(127,140,141);stroke-width:22.92px;"/>
                        </g>
                    </g>
                    <g id="good" transform="matrix(-1,0,0,1,4856.81,-76.9867)">
                        <g transform="matrix(1.92049,0,0,1.92049,-2036.15,-648.276)">
                            <circle cx="2271.2" cy="763.514" r="9.586" style="fill:rgb(127,140,141);"/>
                        </g>
                        <g transform="matrix(1,0,0,1,-3.67234,40.4194)">
                            <path d="M2290.1,714.803L2348.3,714.803" style="fill:none;stroke:rgb(127,140,141);stroke-width:22.92px;"/>
                        </g>
                    </g>
                </g>
                <g>
                    <path d="M2154.5,1319.42C2154.5,1319.42 2140.39,1249.69 2215.62,1226.17L2334.59,1186.45C2324.55,1186.16 2436.55,1248.91 2534.47,1185.41L2659.42,1229.27C2659.42,1229.27 2716.02,1239.43 2712.55,1320.8" style="fill:none;stroke:rgb(127,140,141);stroke-width:22.92px;"/>
                    <g transform="matrix(1,0,0,1,2.51101,-2.0624)">
                        <path d="M2333.88,1105.2L2333.29,1188.11" style="fill:none;stroke:rgb(127,140,141);stroke-width:22.92px;"/>
                    </g>
                    <g transform="matrix(1,0,0,1,5.00446,0)">
                        <g transform="matrix(0.549858,0,0,0.549858,1962.34,-1226.94)">
                            <path d="M461.618,3898.75C470.799,3920.87 479.038,3942.6 491.757,3963.08C500.017,3976.38 509.398,3988.92 519.363,4000.97C545.145,4032.17 586.49,4056.05 598.336,3998.79C607.964,3952.25 563.556,3915.5 611.458,3870.72C638.394,3845.54 724.912,3819.32 761.618,3807.82C762.144,3808 849.946,3806.98 849.946,3806.98" style="fill:none;stroke:rgb(127,140,141);stroke-width:41.67px;stroke-miterlimit:2.35366;"/>
                        </g>
                        <g transform="matrix(-0.549858,0,0,0.549858,2881.1,-1226.94)">
                            <path d="M461.618,3898.75C470.799,3920.87 479.038,3942.6 491.757,3963.08C500.017,3976.38 509.398,3988.92 519.363,4000.97C545.145,4032.17 586.49,4056.05 598.336,3998.79C607.964,3952.25 563.556,3915.5 611.458,3870.72C638.394,3845.54 724.912,3819.32 761.618,3807.82C762.144,3808 849.946,3806.98 849.946,3806.98" style="fill:none;stroke:rgb(127,140,141);stroke-width:41.67px;stroke-miterlimit:2.35366;"/>
                        </g>
                    </g>
                    <g transform="matrix(1,0,0,1,194.73,1.47315)">
                        <path d="M2334.09,1097.2L2333.29,1188.11" style="fill:none;stroke:rgb(127,140,141);stroke-width:22.92px;"/>
                    </g>
                </g>
                <g transform="matrix(0.549858,0,0,0.549858,1962.34,-1226.94)">
                    <path d="M848.789,3055.22C846.996,3055.22 845.464,3055.21 844.809,3055.22C773.974,3056.28 707.256,3085.62 651.072,3140.22C651.072,3140.22 615.608,3143.99 574.189,3171.75C434.364,3265.47 435.936,3420.1 456.225,3569.82L456.601,3576.03C464.584,3666.53 448.361,3756.27 457.336,3846.27C479.931,4072.85 617.764,4287.32 867.456,4273.54L829.947,4273.54C1076.4,4287.32 1212.45,4072.85 1234.76,3846.27C1243.61,3756.27 1227.6,3666.53 1235.48,3576.03L1235.85,3569.82C1255.88,3420.1 1257.43,3265.47 1119.42,3171.75C1078.53,3143.99 1043.53,3140.22 1043.53,3140.22C987.12,3084.69 919.818,3055.26 848.789,3055.22Z" style="fill:none;stroke:rgb(127,140,141);stroke-width:41.67px;stroke-miterlimit:2.35366;"/>
                </g>
                <g transform="matrix(1,0,0,1,-0.20286,-82.9133)">
                    <path d="M2400.01,1012.95L2446.86,1013.79C2461.91,1009.06 2480.11,1006.06 2492.82,986.265" style="fill:none;stroke:rgb(127,140,141);stroke-width:22.92px;"/>
                </g>
                <g transform="matrix(1,0,0,1,-20.3874,-57.6616)">
                    <path d="M2432.29,787.221L2431.82,876.346L2466.85,876.586" style="fill:none;stroke:rgb(127,140,141);stroke-width:22.92px;"/>
                </g>
                <g transform="matrix(1,0,0,1,-2.26844,0)">
                    <g transform="matrix(0.504524,0,0,0.504524,1988.33,-1071.06)">
                        <path d="M518.157,3531.59L518.157,3687.42L772.664,3687.42L772.664,3531.66" style="fill:none;stroke:rgb(127,140,141);stroke-width:45.41px;"/>
                    </g>
                    <g transform="matrix(1,0,0,1,-2.26702,0)">
                        <g transform="matrix(-0.504524,0,0,0.504524,2876,-1071.06)">
                            <path d="M518.157,3531.59L518.157,3687.42L772.664,3687.42L772.664,3531.66" style="fill:none;stroke:rgb(127,140,141);stroke-width:45.41px;"/>
                        </g>
                        <g transform="matrix(-0.504524,0,0,0.504524,2876,-1071.06)">
                            <path d="M920.8,3531.66L772.664,3531.66L772.664,3519.41L518.157,3519.41L518.157,3531.59L470.001,3531.77" style="fill:none;stroke:rgb(127,140,141);stroke-width:45.41px;"/>
                        </g>
                    </g>
                    <g transform="matrix(0.504524,0,0,0.504524,1988.33,-1071.06)">
                        <path d="M920.8,3531.66L772.664,3531.66L772.664,3519.41L518.157,3519.41L518.157,3531.59L470.001,3531.77" style="fill:none;stroke:rgb(127,140,141);stroke-width:45.41px;"/>
                    </g>
                </g>
                <g transform="matrix(1,0,0,1,6.29802,-18.0295)">
                    <path d="M2204,777.187C2204,777.187 2172.22,776.918 2170.36,807.188C2170.27,808.64 2169.8,811.251 2169.8,811.251L2170.3,857.326C2170.3,857.326 2173.94,889.335 2208.07,901.479" style="fill:none;stroke:rgb(127,140,141);stroke-width:22.92px;"/>
                </g>
                <g transform="matrix(-1,0,0,1,4850.01,-7.93303)">
                    <path d="M2204,777.187C2204,777.187 2172.22,776.918 2170.36,807.188C2170.27,808.64 2169.8,811.251 2169.8,811.251L2170.3,857.326C2170.3,857.326 2173.87,888.667 2207,901.091" style="fill:none;stroke:rgb(127,140,141);stroke-width:22.92px;"/>
                </g>
            </g>
        </g>
    </g>
</svg>
