<?xml version="1.0" encoding="UTF-8" standalone="no"?>
<!DOCTYPE svg PUBLIC "-//W3C//DTD SVG 1.1//EN" "http://www.w3.org/Graphics/SVG/1.1/DTD/svg11.dtd">
<svg width="100%" height="100%" viewBox="0 0 584 933" version="1.1" xmlns="http://www.w3.org/2000/svg" xmlns:xlink="http://www.w3.org/1999/xlink" xml:space="preserve" xmlns:serif="http://www.serif.com/" style="fill-rule:evenodd;clip-rule:evenodd;stroke-linecap:round;stroke-linejoin:round;stroke-miterlimit:1.5;">
    <g transform="matrix(1,0,0,1,-2141,-400)">
        <g id="eddie">
            <g transform="matrix(1,0,0,1,-0.428659,0)">
                <g transform="matrix(1.92049,0,0,1.92049,-2036.15,-648.276)">
                    <circle cx="2271.2" cy="763.514" r="9.586" style="fill:rgb(127,140,141);"/>
                </g>
                <g transform="matrix(1,0,0,1,-3.67234,40.4194)">
                    <path d="M2290.1,714.803L2348.3,714.803" style="fill:none;stroke:rgb(127,140,141);stroke-width:22.92px;"/>
                </g>
            </g>
            <g id="good" transform="matrix(-1,0,0,1,4856.81,0)">
                <g transform="matrix(1.92049,0,0,1.92049,-2036.15,-648.276)">
                    <circle cx="2271.2" cy="763.514" r="9.586" style="fill:rgb(127,140,141);"/>
                </g>
                <g transform="matrix(1,0,0,1,-3.67234,40.4194)">
                    <path d="M2290.1,714.803L2348.3,714.803" style="fill:none;stroke:rgb(127,140,141);stroke-width:22.92px;"/>
                </g>
            </g>
            <path d="M2213.21,644.682C2213.21,644.682 2228.88,603.777 2301,615.611C2301,615.611 2592.88,660.051 2631.6,558.994C2631.6,558.994 2652.1,508.197 2627.55,458.133" style="fill:none;stroke:rgb(127,140,141);stroke-width:22.92px;"/>
            <path d="M2154.5,1319.42C2154.5,1319.42 2140.39,1249.69 2215.62,1226.17L2334.59,1186.45C2324.55,1186.16 2436.55,1248.91 2534.47,1185.41L2659.42,1229.27C2659.42,1229.27 2716.02,1239.43 2712.55,1320.8" style="fill:none;stroke:rgb(127,140,141);stroke-width:22.92px;"/>
            <g transform="matrix(1,0,0,1,2.51101,-2.0624)">
                <path d="M2333.98,1091.72L2333.29,1188.11" style="fill:none;stroke:rgb(127,140,141);stroke-width:22.92px;"/>
            </g>
            <g transform="matrix(1,0,0,1,194.73,1.47315)">
                <path d="M2334.09,1088.18L2333.29,1188.11" style="fill:none;stroke:rgb(127,140,141);stroke-width:22.92px;"/>
            </g>
            <g transform="matrix(1,0,0,1,0.376645,33.2563)">
                <path d="M2400.01,1012.95L2446.86,1013.79C2461.91,1009.06 2480.11,1006.06 2492.82,986.265" style="fill:none;stroke:rgb(127,140,141);stroke-width:22.92px;"/>
            </g>
            <g transform="matrix(1,0,0,1,-20.3874,94.0358)">
                <path d="M2432.29,787.221L2431.82,876.346L2466.85,876.586" style="fill:none;stroke:rgb(127,140,141);stroke-width:22.92px;"/>
            </g>
            <path d="M2211.88,731.97C2211.88,731.97 2093.91,503.632 2262.12,441.244C2262.12,441.244 2422.05,374.953 2597.19,442.791C2597.19,442.791 2686.46,440.361 2679.83,647.559C2679.83,647.559 2665.29,724.015 2650,744.934" style="fill:none;stroke:rgb(127,140,141);stroke-width:22.92px;"/>
            <path d="M2237.84,631.116C2237.84,631.116 2215.24,675.409 2221.12,752.504C2221.12,752.504 2209.82,961.371 2273.49,1033.11C2281.41,1041.97 2289.76,1048.6 2305.62,1052.24C2305.62,1052.24 2338.01,1105.39 2383.58,1116.46C2383.58,1116.46 2409.02,1124.65 2431.59,1124.65C2454.15,1124.65 2478.52,1116.46 2478.52,1116.46C2524.1,1105.39 2556.49,1052.24 2556.49,1052.24C2572.34,1048.6 2580.69,1041.97 2588.61,1033.11C2652.29,961.371 2640.99,752.504 2640.99,752.504C2644.34,708.538 2638.43,675.24 2632.73,654.741C2626.83,614.596 2608.35,597.381 2608.35,597.381" style="fill:none;stroke:rgb(127,140,141);stroke-width:22.92px;"/>
            <g transform="matrix(1,0,0,1,9.19033,-7.93303)">
                <path d="M2204,777.187C2204,777.187 2172.22,776.918 2170.36,807.188C2170.27,808.64 2169.8,811.251 2169.8,811.251L2170.3,857.326C2170.3,857.326 2174.43,893.584 2215.04,903.562" style="fill:none;stroke:rgb(127,140,141);stroke-width:22.92px;"/>
            </g>
            <g transform="matrix(-1,0,0,1,4851.12,-7.93303)">
                <path d="M2204,777.187C2204,777.187 2172.22,776.918 2170.36,807.188C2170.27,808.64 2169.8,811.251 2169.8,811.251L2170.3,857.326C2170.3,857.326 2174.3,892.471 2213.18,903.08" style="fill:none;stroke:rgb(127,140,141);stroke-width:22.92px;"/>
            </g>
        </g>
    </g>
</svg>
