<?xml version="1.0" encoding="UTF-8" standalone="no"?>
<!DOCTYPE svg PUBLIC "-//W3C//DTD SVG 1.1//EN" "http://www.w3.org/Graphics/SVG/1.1/DTD/svg11.dtd">
<svg width="100%" height="100%" viewBox="0 0 584 869" version="1.1" xmlns="http://www.w3.org/2000/svg" xmlns:xlink="http://www.w3.org/1999/xlink" xml:space="preserve" xmlns:serif="http://www.serif.com/" style="fill-rule:evenodd;clip-rule:evenodd;stroke-linecap:round;stroke-linejoin:round;stroke-miterlimit:1.5;">
    <g transform="matrix(1,0,0,1,-958,-478)">
        <g id="matt" transform="matrix(1,0,0,1,-1183.1,14.5351)">
            <g transform="matrix(-1,-2.07768e-15,0,1,4867.95,9.94379)">
                <path d="M2204,777.187C2204,777.187 2172.22,776.918 2170.36,807.188C2170.27,808.64 2169.8,811.251 2169.8,811.251L2170.3,857.326C2170.3,857.326 2175.05,899.065 2224.51,905.301" style="fill:none;stroke:rgb(127,140,141);stroke-width:22.92px;"/>
            </g>
            <g id="base">
                <path d="M2154.5,1319.42C2154.5,1319.42 2140.39,1249.69 2215.62,1226.17L2334.59,1186.45C2324.55,1186.16 2436.55,1248.91 2534.47,1185.41L2659.42,1229.27C2659.42,1229.27 2716.02,1239.43 2712.55,1320.8" style="fill:none;stroke:rgb(127,140,141);stroke-width:22.92px;"/>
                <g transform="matrix(1,0,0,1,2.51101,-2.0624)">
                    <path d="M2333.98,1091.72L2333.29,1188.11" style="fill:none;stroke:rgb(127,140,141);stroke-width:22.92px;"/>
                </g>
                <g transform="matrix(1,0,0,1,194.73,1.47315)">
                    <path d="M2334.09,1088.18L2333.29,1188.11" style="fill:none;stroke:rgb(127,140,141);stroke-width:22.92px;"/>
                </g>
            </g>
            <g transform="matrix(1,0,0,1,15.8429,-16.6465)">
                <g transform="matrix(1.92049,0,0,1.92049,-2036.15,-648.276)">
                    <circle cx="2271.2" cy="763.514" r="9.586" style="fill:rgb(127,140,141);"/>
                </g>
                <g transform="matrix(1,0,0,1,-3.67234,40.4194)">
                    <path d="M2290.1,714.803L2348.3,714.803" style="fill:none;stroke:rgb(127,140,141);stroke-width:22.92px;"/>
                </g>
            </g>
            <g transform="matrix(-1,0,0,1,4840.54,-16.6465)">
                <g transform="matrix(1.92049,0,0,1.92049,-2036.15,-648.276)">
                    <circle cx="2271.2" cy="763.514" r="9.586" style="fill:rgb(127,140,141);"/>
                </g>
                <g transform="matrix(1,0,0,1,-3.67234,40.4194)">
                    <path d="M2290.1,714.803L2348.3,714.803" style="fill:none;stroke:rgb(127,140,141);stroke-width:22.92px;"/>
                </g>
            </g>
            <g transform="matrix(1,0,0,1,0.376645,-23.0322)">
                <path d="M2400.01,1012.95L2446.86,1013.79C2461.91,1009.06 2480.11,1006.06 2492.82,986.265" style="fill:none;stroke:rgb(127,140,141);stroke-width:22.92px;"/>
            </g>
            <g transform="matrix(1,0,0,1,-20.3874,19.2843)">
                <path d="M2432.29,787.221L2431.82,876.346L2466.85,876.586" style="fill:none;stroke:rgb(127,140,141);stroke-width:22.92px;"/>
            </g>
            <g transform="matrix(1,0,0,1,-0.954213,9.94379)">
                <path d="M2204,777.187C2204,777.187 2172.22,776.918 2170.36,807.188C2170.27,808.64 2169.8,811.251 2169.8,811.251L2170.3,857.326C2170.3,857.326 2175.05,899.065 2224.51,905.301" style="fill:none;stroke:rgb(127,140,141);stroke-width:22.92px;"/>
            </g>
            <g transform="matrix(1,0,0,1,1176.32,40.0665)">
                <path d="M1080.7,515.152C1073.05,518.838 1060.73,524.607 1053.78,535.826C1033.66,568.304 1007.84,625.037 1023.25,756.062" style="fill:none;stroke:rgb(127,140,141);stroke-width:22.92px;"/>
            </g>
            <g transform="matrix(1,0,0,1,1183.1,-1.57134)">
                <path d="M1475.46,805.209C1474.31,855.701 1462.56,913.319 1434.94,978.45C1428,995.622 1413.96,1007.39 1399.42,1015.99C1399.42,1015.99 1348.32,1128.89 1249.16,1123.75C1165.11,1128.11 1098.9,1015.99 1098.9,1015.99C1084.35,1007.39 1070.31,995.622 1063.37,978.45C1036.4,914.842 1024.92,852.929 1023.71,797.082" style="fill:none;stroke:rgb(127,140,141);stroke-width:22.92px;"/>
            </g>
            <g transform="matrix(1,0,0,1,1183.1,-1.57134)">
                <path d="M1030.33,872.77C1030.33,872.77 1059.68,909.762 1065.76,924.174C1065.76,924.174 1085.4,955.135 1104.31,967.018C1104.31,967.018 1121.15,979.368 1124.02,992.234C1124.02,992.234 1146.01,1002.77 1150.86,989.189C1150.86,989.189 1142.6,966.699 1143.38,964.072C1143.38,964.072 1155.53,932.203 1200.1,931.123L1264.74,931.123" style="fill:none;stroke:rgb(127,140,141);stroke-width:22.92px;"/>
            </g>
            <g transform="matrix(-1,0,0,1,3692.55,-1.57134)">
                <path d="M1052.8,902.885C1058.49,911.051 1063.6,919.044 1065.76,924.174C1065.76,924.174 1085.4,955.135 1104.31,967.018C1104.31,967.018 1121.15,979.368 1124.02,992.234C1124.02,992.234 1146.01,1002.77 1150.86,989.189C1150.86,989.189 1142.6,966.699 1143.38,964.072C1143.38,964.072 1155.53,932.203 1200.1,931.123L1264.74,931.123" style="fill:none;stroke:rgb(127,140,141);stroke-width:22.92px;"/>
            </g>
            <g transform="matrix(1,0,0,1,1184.35,24.6138)">
                <path d="M1483.03,768.898C1501.51,718.025 1472.75,683.736 1472.75,683.736C1476.22,646.546 1470.48,613.827 1454.57,580.227C1426.88,529.81 1381.03,500.839 1357.1,493.758C1335.31,487.314 1318.52,486.972 1313.99,485.677" style="fill:none;stroke:rgb(127,140,141);stroke-width:22.92px;"/>
            </g>
            <g transform="matrix(1.13354,0,0,1.13354,531.449,-82.6433)">
                <path d="M1515.68,564.821C1543.35,521.205 1590.17,492.197 1642.32,492.348C1676.22,492.447 1707.55,503.525 1732.87,522.209" style="fill:none;stroke:rgb(127,140,141);stroke-width:20.22px;"/>
            </g>
            <g transform="matrix(1,0,0,1,767.069,518.4)">
                <path d="M1446.74,285.608C1447.32,274.781 1447.14,268.551 1450.53,251.937C1450.53,251.937 1451.31,220.854 1465.17,200.401C1465.17,200.401 1473.68,185.67 1474.66,148.473C1474.66,148.473 1480.36,107.249 1512.27,104.352C1512.27,104.352 1554.17,131.333 1637.3,128.501C1650.4,128.055 1706.91,128.501 1706.91,128.501" style="fill:none;stroke:rgb(127,140,141);stroke-width:22.92px;"/>
            </g>
            <g transform="matrix(-1,0,0,1,4097.53,518.4)">
                <path d="M1446.74,285.608C1447.32,274.781 1447.14,268.551 1450.53,251.937C1450.53,251.937 1451.31,220.854 1465.17,200.401C1465.17,200.401 1473.68,185.67 1474.66,148.473C1474.66,148.473 1480.36,107.249 1512.27,104.352C1512.27,104.352 1554.17,131.333 1637.3,128.501C1650.4,128.055 1706.91,128.501 1706.91,128.501" style="fill:none;stroke:rgb(127,140,141);stroke-width:22.92px;"/>
            </g>
        </g>
    </g>
</svg>
