<?xml version="1.0" encoding="UTF-8"?>
<svg width="112px" height="180px" viewBox="0 0 112 180" version="1.1" xmlns="http://www.w3.org/2000/svg" xmlns:xlink="http://www.w3.org/1999/xlink">
    <!-- Generator: Sketch 48 (47235) - http://www.bohemiancoding.com/sketch -->
    <title>Avatar</title>
    <desc>Created with Sketch.</desc>
    <defs>
        <polygon id="path-1" points="111.630405 179.757194 111.630405 0.151374663 0.000364864865 0.151374663 0.000364864865 179.757194 111.630405 179.757194"></polygon>
    </defs>
    <g id="Sia_Token_LP_Visual_Design_Metropolis" stroke="none" stroke-width="1" fill="none" fill-rule="evenodd" transform="translate(-214.000000, -2491.000000)">
        <g id="Team" transform="translate(135.000000, 2274.000000)">
            <g id="Profile-–-David" transform="translate(0.000000, 172.000000)">
                <g id="Avatar" transform="translate(79.000000, 44.647736)">
                    <path d="M54.0544378,99.5713423 L60.2695459,99.5713423 C61.5443838,99.5713423 62.5776811,98.5401024 62.5776811,97.267973 C62.5776811,95.9965714 61.5443838,94.9660593 60.2695459,94.9660593 L56.3633027,94.9660593 L56.3633027,78.6095903 C56.3633027,77.3381887 55.3292757,76.3069488 54.0544378,76.3069488 C52.7796,76.3069488 51.745573,77.3381887 51.745573,78.6095903 L51.745573,97.267973 C51.745573,98.5401024 52.7796,99.5713423 54.0544378,99.5713423" id="Fill-1" fill="#7F8C8D"></path>
                    <path d="M70.4184811,68.7007358 C70.4184811,67.4293342 71.4525081,66.3980943 72.7273459,66.3980943 L82.9632649,66.3980943 C84.2381027,66.3980943 85.2721297,67.4293342 85.2721297,68.7007358 C85.2721297,69.9728652 84.2381027,71.0033774 82.9632649,71.0033774 L72.7273459,71.0033774 C71.4525081,71.0033774 70.4184811,69.9728652 70.4184811,68.7007358" id="Fill-3" fill="#7F8C8D"></path>
                    <path d="M74.3821541,79.332186 C74.3821541,77.4239919 75.9328297,75.8782237 77.8454514,75.8782237 C79.758073,75.8782237 81.3087486,77.4239919 81.3087486,79.332186 C81.3087486,81.2396523 79.758073,82.7861482 77.8454514,82.7861482 C75.9328297,82.7861482 74.3821541,81.2396523 74.3821541,79.332186" id="Fill-5" fill="#7F8C8D"></path>
                    <path d="M37.3077243,75.8777871 C39.2203459,75.8777871 40.7710216,77.424283 40.7710216,79.3324771 C40.7710216,81.2399434 39.2203459,82.7864394 37.3077243,82.7864394 C35.3951027,82.7864394 33.844427,81.2399434 33.844427,79.3324771 C33.844427,77.424283 35.3951027,75.8777871 37.3077243,75.8777871" id="Fill-7" fill="#7F8C8D"></path>
                    <path d="M50.2440811,118.505256 L55.2471081,118.505256 C59.4394054,118.505256 63.3806757,116.877251 66.3448378,113.921078 L67.3438378,112.925499 C68.2457838,112.026712 68.2457838,110.568275 67.3445676,109.66876 C66.4426216,108.769245 64.980973,108.769245 64.079027,109.668032 L63.080027,110.66434 C60.9878919,112.750836 58.2061622,113.899973 55.2471081,113.899973 L50.2440811,113.899973 C48.9692432,113.899973 47.9359459,114.931213 47.9359459,116.202615 C47.9359459,117.474744 48.9692432,118.505256 50.2440811,118.505256" id="Fill-9" fill="#7F8C8D"></path>
                    <g id="Group-13" transform="translate(0.000000, 0.576388)">
                        <mask id="mask-2" fill="white">
                            <use xlink:href="#path-1"></use>
                        </mask>
                        <g id="Clip-12"></g>
                        <path d="M103.954014,85.1727736 C103.954014,88.8552534 101.442284,91.961345 98.0380946,92.881965 L98.0380946,75.7824501 L99.7390946,75.7824501 C102.062554,75.7824501 103.954014,77.6680836 103.954014,79.9867358 L103.954014,85.1727736 Z M42.0919054,152.352558 L42.0919054,138.607302 C46.0076351,141.251992 50.6837432,142.732261 55.4853649,142.732261 L59.6674459,142.732261 C64.4697973,142.732261 69.1459054,141.251992 73.0616351,138.606574 L73.0616351,152.352558 C63.1424189,156.523367 52.0103919,156.523367 42.0919054,152.352558 Z M21.7331757,67.9342561 C21.9258243,67.9400782 22.1177432,67.9488113 22.3118514,67.9488113 C22.9562027,67.9488113 23.6151486,67.9066011 24.3820946,67.8163585 C26.3209865,67.6904555 28.2700946,67.388434 30.2265,66.9175714 C30.0083108,67.2690809 29.8806081,67.6809946 29.8806081,68.1242022 C29.8806081,69.3963315 30.9146351,70.4268437 32.189473,70.4268437 L42.4253919,70.4268437 C43.7002297,70.4268437 44.7342568,69.3963315 44.7342568,68.1242022 C44.7342568,66.8528005 43.7002297,65.8215606 42.4253919,65.8215606 L33.9364459,65.8215606 C40.4536622,63.5414798 47.0358243,59.3801321 53.5997432,53.3709946 C61.1363919,46.4718032 66.8669595,38.7800782 70.4667162,33.3145795 C75.1829595,42.9356038 85.6990946,57.1233396 93.4196351,65.059593 L93.4196351,98.7178949 C93.4196351,103.76493 91.724473,108.751561 88.6457432,112.758623 L74.9253649,130.617194 C71.3117432,135.319997 65.6074459,138.126978 59.6674459,138.126978 L55.4853649,138.126978 C49.5453649,138.126978 43.8417973,135.319997 40.2281757,130.617194 L26.5070676,112.758623 C23.4283378,108.751561 21.7331757,103.76493 21.7331757,98.7178949 L21.7331757,67.9342561 Z M15.3013378,75.7824501 L17.1154459,75.7824501 L17.1154459,92.9132588 C13.6536081,92.031938 11.0849595,88.8960081 11.0849595,85.1727736 L11.0849595,79.9867358 C11.0849595,77.6680836 12.9764189,75.7824501 15.3013378,75.7824501 Z M4.61736486,25.9583531 C4.61736486,18.7906173 10.4654189,12.9590539 17.6517973,12.9590539 C19.5191757,12.9590539 21.3391216,13.3571402 23.0612838,14.143124 C23.6355811,14.4051186 24.2916081,14.4218571 24.8775811,14.1882453 C25.4635541,13.9553612 25.9283919,13.4932318 26.1640946,12.909566 C28.1635541,7.9564124 32.9082568,4.75643935 38.2520676,4.75643935 C41.5161486,4.75643935 44.6474189,5.98126415 47.0672027,8.20385175 C47.6940405,8.78023989 48.5894189,8.96509164 49.3935811,8.68344744 C53.8515,7.12749057 63.1898514,6.68646631 72.4158243,8.85374394 C86.3602297,12.1286765 92.4994459,19.2236361 95.1936081,24.5988922 C101.822473,37.8208868 97.4360676,53.4626927 95.0250405,60.0489461 C86.0136081,50.2721806 75.4792297,34.8581644 73.0601757,27.6220189 C72.7748514,26.7690809 72.0181216,26.1592156 71.1220135,26.0609677 C71.0373649,26.0522345 70.9527162,26.0471402 70.8687973,26.0471402 C70.0646351,26.0471402 69.3100946,26.4670593 68.8897703,27.1657116 C63.8203378,35.5924771 57.1097432,43.9071671 50.4772297,49.9788922 C41.4628784,58.2302668 32.5638243,62.6870863 24.0259865,63.2241752 C23.981473,63.2270863 23.9384189,63.2314528 23.8953649,63.2365472 C23.2882297,63.3093235 22.7861757,63.3428005 22.3118514,63.3428005 C15.1247432,63.3428005 9.27741892,57.511965 9.27741892,50.3435013 C9.27741892,47.012531 10.551527,43.8387574 12.8655,41.4073019 C13.3763108,40.8702129 13.5974189,40.1198895 13.4580405,39.3921267 C13.3193919,38.6643639 12.8385,38.0479488 12.1649595,37.7350108 C7.5807973,35.6055768 4.61736486,30.9828275 4.61736486,25.9583531 Z M0.000364864865,25.9583531 C0.000364864865,31.7964663 2.94847297,37.2321267 7.70266216,40.4801321 C5.72582432,43.3780836 4.66041892,46.7942022 4.66041892,50.3435013 C4.66041892,58.2477332 9.91009459,64.9504286 17.1154459,67.1686496 L17.1154459,71.1771671 L15.3013378,71.1771671 C10.4303919,71.1771671 6.46722973,75.1289191 6.46722973,79.9867358 L6.46722973,85.1727736 C6.46722973,91.4446334 11.0900676,96.6597817 17.1154459,97.6095121 L17.1154459,98.7178949 C17.1154459,104.772154 19.148473,110.753636 22.8416351,115.559054 L36.5627432,133.417625 C36.8553649,133.798973 37.1596622,134.169404 37.4734459,134.529647 L37.4734459,151.145199 L13.5893919,158.998488 C13.5310135,159.01741 13.4740946,159.039243 13.4179054,159.062531 C7.40639189,161.581318 3.52277027,167.40997 3.52277027,173.911803 L3.52277027,177.454553 C3.52277027,178.725954 4.55606757,179.757194 5.83163514,179.757194 C7.10647297,179.757194 8.1405,178.725954 8.1405,177.454553 L8.1405,173.911803 C8.1405,169.297787 10.8791757,165.159 15.125473,163.342504 L38.4016622,155.688623 C38.5286351,155.78396 38.6614459,155.870563 38.8095811,155.938973 C44.7722027,158.704472 51.1748514,160.086493 57.5760405,160.086493 C63.9786892,160.086493 70.3806081,158.704472 76.3439595,155.938973 C76.4913649,155.870563 76.6249054,155.78396 76.7518784,155.688623 L100.027338,163.342504 C104.273635,165.159 107.013041,169.297787 107.013041,173.911803 L107.013041,177.454553 C107.013041,178.725954 108.046338,179.757194 109.321905,179.757194 C110.597473,179.757194 111.63077,178.725954 111.63077,177.454553 L111.63077,173.911803 C111.63077,167.40997 107.746419,161.58059 101.735635,159.062531 C101.679446,159.039243 101.622527,159.01741 101.564149,158.998488 L77.6793649,151.145199 L77.6793649,134.529647 C77.9938784,134.169404 78.2981757,133.798973 78.5900676,133.417625 L92.3111757,115.559054 C96.0036081,110.753636 98.0380946,104.772154 98.0380946,98.7178949 L98.0380946,97.5891348 C104.007284,96.591372 108.571743,91.4053342 108.571743,85.1727736 L108.571743,79.9867358 C108.571743,75.1289191 104.608581,71.1771671 99.7390946,71.1771671 L98.0380946,71.1771671 L98.0380946,64.918407 C98.6102027,63.6586496 100.886959,58.3729084 102.2625,51.2117224 C104.334203,40.4211833 103.318419,30.5061429 99.3238784,22.5393235 C96.1882297,16.2842022 89.1580135,8.05466038 73.4739324,4.37072507 C63.7721757,2.09209973 54.4411216,2.51856873 49.1651757,3.93916173 C46.0543378,1.4880566 42.2276351,0.151156334 38.2520676,0.151156334 C31.7793649,0.151156334 25.9553919,3.61603504 22.8613378,9.14412129 C21.1742027,8.61867655 19.4301486,8.35377089 17.6517973,8.35377089 C7.91866216,8.35377089 0.000364864865,16.2507251 0.000364864865,25.9583531 Z" id="Fill-11" fill="#7F8C8D" mask="url(#mask-2)"></path>
                    </g>
                </g>
            </g>
        </g>
    </g>
</svg>