<?xml version="1.0" encoding="UTF-8"?>
<svg width="101px" height="152px" viewBox="0 0 101 152" version="1.1" xmlns="http://www.w3.org/2000/svg" xmlns:xlink="http://www.w3.org/1999/xlink">
    <!-- Generator: Sketch 55.2 (78181) - https://sketchapp.com -->
    <title>avatar-marcin</title>
    <desc>Created with Sketch.</desc>
    <g id="Page-1" stroke="none" stroke-width="1" fill="none" fill-rule="evenodd">
        <g id="avatar-marcin" transform="translate(2.000000, 2.000000)">
            <g id="Group" transform="translate(22.941676, 38.588795)">
                <g transform="translate(0.098025, 0.002282)">
                    <g transform="translate(3.444779, 7.523887)" fill="#7F8C8D" id="Oval">
                        <circle cx="3.36089917" cy="3.46436215" r="3.15858622"></circle>
                    </g>
                    <g transform="translate(0.056217, 0.071957)" id="Path" stroke="#7F8C8D" stroke-width="3.9324017">
                        <path d="M0.0171570755,0.137771316 L10.002575,0.137771316"></path>
                    </g>
                </g>
                <g id="good" transform="translate(43.889515, 7.294039) scale(-1, 1) translate(-43.889515, -7.294039) translate(38.742392, 0.002282)">
                    <g id="Group" transform="translate(3.444779, 7.523887)" fill="#7F8C8D">
                        <circle id="Oval" cx="3.36089917" cy="3.46436215" r="3.15858622"></circle>
                    </g>
                    <g id="Group" transform="translate(0.056217, 0.071957)" stroke="#7F8C8D" stroke-width="3.9324017">
                        <path d="M0.0171570755,0.137771316 L10.002575,0.137771316" id="Path"></path>
                    </g>
                </g>
            </g>
            <g id="Group" transform="translate(0.164476, 70.897288)" stroke="#7F8C8D">
                <path d="M0.257356132,77.9651824 C0.257356132,77.9651824 -2.16350722,66.0015536 10.7437607,61.9662095 L31.1555333,55.1514191 C29.432963,55.1016636 48.6488875,65.8677284 65.4490958,54.9729855 L86.8868616,62.4980788 C86.8868616,62.4980788 96.5977663,64.2412377 96.0024158,78.20195" id="Path" stroke-width="3.9324017"></path>
                <g transform="translate(31.313552, 40.823134)" id="Path" stroke-width="3.9324017">
                    <path d="M0.150982264,0.0343141509 L0.0497555189,14.2592454"></path>
                </g>
                <g transform="translate(11.496006, 0.000000)" id="Path" stroke-width="3.93112913">
                    <g transform="translate(0.141467, 0.140610)">
                        <path d="M0.0583018432,8.74999345 C0.924433271,10.8367843 1.70169684,12.8867828 2.9016016,14.8188568 C3.6808463,16.0735729 4.56584564,17.2565909 5.50593928,18.3933825 C7.93820161,21.3367765 11.8386704,23.589605 12.9562167,18.1877222 C13.8645179,13.7971595 9.6750871,10.3301809 14.1941403,6.10565581 C16.7352705,3.73018589 24.8973399,1.25660283 28.3601675,0.171697985 C28.4097901,0.188679104 36.6929914,0.092452761 36.6929914,0.092452761"></path>
                    </g>
                    <g transform="translate(52.443703, 10.895319) scale(-1, 1) translate(-52.443703, -10.895319) translate(34.094660, 0.140610)">
                        <path d="M0.0583018432,8.74999345 C0.924433271,10.8367843 1.70169684,12.8867828 2.9016016,14.8188568 C3.6808463,16.0735729 4.56584564,17.2565909 5.50593928,18.3933825 C7.93820161,21.3367765 11.8386704,23.589605 12.9562167,18.1877222 C13.8645179,13.7971595 9.6750871,10.3301809 14.1941403,6.10565581 C16.7352705,3.73018589 24.8973399,1.25660283 28.3601675,0.171697985 C28.4097901,0.188679104 36.6929914,0.092452761 36.6929914,0.092452761"></path>
                    </g>
                </g>
                <g transform="translate(64.292709, 40.057165)" id="Path" stroke-width="3.9324017">
                    <path d="M0.187012123,0.0343141509 L0.0497555189,15.6318115"></path>
                </g>
            </g>
            <g id="Group" transform="translate(9.528237, 0.188895)" stroke="#7F8C8D" stroke-width="3.93112913">
                <path d="M37.9989338,0.0203354146 C37.829783,0.0203354146 37.6852548,0.0203354146 37.6234624,0.0203354146 C30.9409202,0.120754627 24.646774,2.88867708 19.3464006,8.03961663 C19.3464006,8.03961663 16.0007427,8.39527674 12.0932928,11.0141427 C-1.09773503,19.8556455 -0.949433252,34.4433705 0.96462192,48.5678882 L1.00009359,49.1537368 C1.75320624,57.6914663 0.222735682,66.1574977 1.06943316,74.6480573 C3.20103534,96.0235131 16.2041388,116.256517 39.7599702,114.956518 L36.221388,114.956518 C59.4716536,116.256517 72.3065497,96.0235131 74.4112651,74.6480573 C75.2461701,66.1574977 73.7357939,57.6914663 74.4791896,49.1537368 L74.5140952,48.5678882 C76.4037164,34.4433705 76.5499427,19.8556455 63.5301411,11.0141427 C59.6725969,8.39527674 56.3707125,8.03961663 56.3707125,8.03961663 C51.0490184,2.8009413 44.6997779,0.0245282835 37.9989338,0.0203354146 Z" id="Path"></path>
            </g>
            <g id="Group" transform="translate(42.507648, 77.431852)" stroke="#7F8C8D" stroke-width="3.9324017">
                <path d="M0.00171570755,4.62383184 L8.03980557,4.76795127 C10.6219454,3.9564216 13.7445332,3.44170934 15.9251975,0.04546625" id="Path"></path>
            </g>
            <g id="Group" transform="translate(44.363265, 47.621725)" stroke="#7F8C8D" stroke-width="3.9324017">
                <polyline id="Path" points="0.221326274 0.0379171368 0.140688019 15.3291607 6.15081156 15.3703376"></polyline>
            </g>
            <g id="Group" transform="translate(12.128373, 43.274396)" stroke="#7F8C8D" stroke-width="3.9307606">
                <g transform="translate(4.233239, 1.100497)" id="Path">
                    <polyline points="0.0135901655 0.0510713224 0.0135901655 13.5399598 22.044114 13.5399598 22.044114 0.0571306319"></polyline>
                </g>
                <g transform="translate(31.523206, 0.000000)" id="Path">
                    <g transform="translate(23.904912, 7.895579) scale(-1, 1) translate(-23.904912, -7.895579) translate(12.868312, 1.100497)">
                        <polyline points="0.0135901655 0.0510713224 0.0135901655 13.5399598 22.044114 13.5399598 22.044114 0.0571306319"></polyline>
                    </g>
                    <g transform="translate(19.576834, 0.624408) scale(-1, 1) translate(-19.576834, -0.624408) translate(0.057201, 0.061758)">
                        <polyline points="39.0219528 1.09586939 26.199069 1.09586939 26.199069 0.035490241 4.16854521 0.035490241 4.16854521 1.08981008 8.65615635e-05 1.10539117"></polyline>
                    </g>
                </g>
                <g transform="translate(0.078284, 0.061758)" id="Path">
                    <polyline points="39.0219528 1.09586939 26.199069 1.09586939 26.199069 0.035490241 4.16854521 0.035490241 4.16854521 1.08981008 8.65615635e-05 1.10539117"></polyline>
                </g>
            </g>
            <g id="Group" transform="translate(3.990165, 52.705726)" stroke="#7F8C8D" stroke-width="3.9324017">
                <path d="M6.00497642,0.0320696566 C6.00497642,0.0320696566 0.55245783,-0.0140688019 0.233336226,5.17937794 C0.217894858,5.42849868 0.137256604,5.87646992 0.137256604,5.87646992 L0.223041981,13.7815924 C0.223041981,13.7815924 0.847559528,19.2734007 6.70326939,21.356956" id="Path"></path>
            </g>
            <g id="Group" transform="translate(87.495706, 65.161158) scale(-1, 1) translate(-87.495706, -65.161158) translate(84.235862, 54.437985)" stroke="#7F8C8D" stroke-width="3.9324017">
                <path d="M6.00497642,0.0320696566 C6.00497642,0.0320696566 0.55245783,-0.0140688019 0.233336226,5.17937794 C0.217894858,5.42849868 0.137256604,5.87646992 0.137256604,5.87646992 L0.223041981,13.7815924 C0.223041981,13.7815924 0.835549575,19.1587915 6.51968868,21.2903865" id="Path"></path>
            </g>
        </g>
    </g>
</svg>