<?xml version="1.0" encoding="UTF-8"?>
<svg width="596px" height="782px" viewBox="0 0 596 782" version="1.1" xmlns="http://www.w3.org/2000/svg" xmlns:xlink="http://www.w3.org/1999/xlink">
    <!-- Generator: Sketch 55.2 (78181) - https://sketchapp.com -->
    <title>avatar-manasi</title>
    <desc>Created with Sketch.</desc>
    <g id="Page-1" stroke="none" stroke-width="1" fill="none" fill-rule="evenodd">
        <g id="avatar-manasi" transform="translate(11.000000, 11.000000)">
            <g id="Group" transform="translate(203.352376, 235.077454)">
                <g transform="translate(0.524782, 0.012216)">
                    <g transform="translate(1.908563, 40.279396)" fill="#7F8C8D" id="Oval">
                        <circle cx="17.9926925" cy="18.5465852" r="16.909603"></circle>
                    </g>
                    <g transform="translate(0.300959, 0.385223)" id="Path" stroke="#7F8C8D" stroke-width="21.0522515">
                        <path d="M0.036740404,0.737563611 L37.0159571,0.737563611"></path>
                    </g>
                </g>
                <g id="good" transform="translate(218.430887, 39.048895) scale(-1, 1) translate(-218.430887, -39.048895) translate(190.875584, 0.012216)">
                    <g id="Group" transform="translate(18.441745, 40.279396)" fill="#7F8C8D">
                        <circle id="Oval" cx="17.9926925" cy="18.5465852" r="16.909603"></circle>
                    </g>
                    <g id="Group" transform="translate(0.300959, 0.385223)" stroke="#7F8C8D" stroke-width="21.0522515">
                        <path d="M0.0918510101,0.737563611 L53.5491389,0.737563611" id="Path"></path>
                    </g>
                </g>
                <g transform="translate(98.148040, 48.358179)" id="Path" stroke="#7F8C8D" stroke-width="21.0522515">
                    <polyline points="1.18487803 0.202990732 0.753178283 82.0652035 32.9285871 82.2856459"></polyline>
                </g>
            </g>
            <g id="Group" transform="translate(54.406778, 543.823602)" stroke="#7F8C8D">
                <path d="M1.37776515,224.502239 C1.37776515,224.502239 -11.5824124,160.45453 57.5171025,138.851172 L166.792249,102.367951 C157.570408,102.101583 260.443539,159.738092 350.384048,101.4127 L465.151885,141.698553 C465.151885,141.698553 517.139557,151.030616 513.952327,225.769783" id="Path" stroke-width="21.0522515"></path>
                <g transform="translate(167.638206, 5.733891)" id="Path" stroke-width="21.0464656">
                    <path d="M0.808288889,0.22968631 L0.266367929,95.4461461"></path>
                </g>
                <g transform="translate(344.193290, 0.607172)" id="Path" stroke-width="21.0464656">
                    <path d="M1.00117601,0.22968631 L0.266367929,104.633598"></path>
                </g>
            </g>
            <g id="Group" transform="translate(281.480845, 415.374557)" stroke="#7F8C8D" stroke-width="21.0522515">
                <path d="M0.00918510101,24.7538472 L43.0413833,25.5253957 C56.8649604,21.1808429 73.5818442,18.4253126 85.2561076,0.243405177" id="Path"></path>
            </g>
            <g id="Group" transform="translate(129.228611, 268.278838)" stroke="#7F8C8D">
                <g transform="translate(102.641092, 264.800404)" id="Path" stroke-width="21.0454388">
                    <path d="M0.353535089,0.27777757 C23.0302858,14.7575647 30.0656341,43.0807758 74.1161062,47.6716815 C79.49489,48.1413781 81.257515,48.1262266 87.2019549,47.5706715 C130.307983,43.5201695 137.32818,14.6313022 159.807961,0.27777757"></path>
                </g>
                <g transform="translate(232.907686, 136.786005)" id="Path" stroke-width="21.0454388">
                    <path d="M127.035258,0.499999626 C119.3888,67.2221719 62.3080342,132.383739 0.121212031,154.297864"></path>
                </g>
                <g transform="translate(64.530585, 214.058674) scale(-1, 1) translate(-64.530585, -214.058674) translate(0.894269, 136.786005)" id="Path" stroke-width="21.0454388">
                    <path d="M127.035258,0.499999626 C119.3888,67.2221719 62.3080342,132.383739 0.121212031,154.297864"></path>
                </g>
                <g transform="translate(345.533865, 0.422471)" id="Path" stroke-width="21.0454388">
                    <path d="M38.7827993,0.242424061 C43.2120889,36.9242148 44.1110781,79.9544856 24.8787693,113.070622 C17.7979665,125.257482 7.39393386,135.01 0.227272557,147.171607"></path>
                </g>
                <g transform="translate(396.823919, 59.408315) scale(-1, 1) translate(-396.823919, -59.408315) translate(379.372227, 2.001434)" id="Path" stroke-width="21.0522515">
                    <path d="M26.7561992,0.695312146 C18.2324255,2.13553598 2.48916237,7.53086432 1.24917374,27.7279829 C1.16650783,29.0616596 0.734808081,31.4598895 0.734808081,31.4598895 L1.19406313,73.7802424 C1.19406313,73.7802424 4.47314419,102.567267 34.9033838,113.978837"></path>
                </g>
            </g>
            <g id="hair" transform="translate(0.015356, 0.014641)" stroke="#7F8C8D">
                <path d="M127.237279,313.721987 C149.787767,255.747283 201.944293,242.373556 252.181629,203.136212 C303.090682,163.373615 349.636102,116.510014 388.080518,64.4898507" id="Path" stroke-width="21.0454388"></path>
                <path d="M366.110837,94.9140704 C400.267377,161.90897 456.231982,231.009928 520.449105,268.10586" id="Path" stroke-width="21.0454388"></path>
                <path d="M459.226929,491.07034 C469.40874,547.514742 488.701655,593.146021 565.701597,580.797545" id="Path" stroke-width="21.0454388"></path>
                <path d="M529.186473,523.575366 C530.747078,551.837971 542.984442,565.913718 568.65109,580.065223" id="Path" stroke-width="21.0454388"></path>
                <path d="M542.726867,338.959342 C602.701569,399.257277 563.242003,461.903695 525.540011,521.736983" id="Path" stroke-width="21.0454388"></path>
                <path d="M137.52515,162.434222 C118.494861,218.1362 128.201924,304.68159 130.434246,381.45426 C131.126165,405.166363 129.600913,428.827962 131.338286,452.499661 C135.636262,511.191537 158.737255,576.317751 191.757432,627.181349 C50.8939013,503.66629 15.898978,289.46443 95.6918476,123.908998" id="Path" stroke-width="21.0454388"></path>
                <path d="M52.4797587,292.232105 C40.2625961,310.302798 27.3232119,361.247204 32.9999753,398.726974 C37.1464368,426.105742 47.1413789,452.706732 42.0201706,480.742065 C32.8535108,530.898593 -32.5504807,588.868246 20.8989743,634.595485 C8.87878123,552.474334 64.9898504,578.110679 102.358509,516.115775" id="Path" stroke-width="21.0454388"></path>
                <g id="Group" transform="translate(74.604187, 0.082775)" stroke-width="21.0449284">
                    <path d="M0.0863135718,176.626259 C26.2850212,74.9307257 114.441642,0.0585663198 219.038459,0.0585663198 C344.254065,0.0585663198 445.911144,107.361825 445.911144,239.526487 C445.911144,254.861102 444.545358,269.85896 441.930565,284.388288" id="Path"></path>
                </g>
            </g>
        </g>
    </g>
</svg>