<svg width="101px" height="147px" viewBox="0 0 101 147" version="1.1" xmlns="http://www.w3.org/2000/svg" xmlns:xlink="http://www.w3.org/1999/xlink">
    <g id="Page-1" stroke="none" stroke-width="1" fill="none" fill-rule="evenodd">
        <g id="9-10-19_zhnebulous_avatar_portrait_drawing_portrait_01" transform="translate(2.000000, 2.000000)">
            <g id="Group" transform="translate(24.072398, 53.761221)">
                <g transform="translate(0.098025, 0.002282)">
                    <g transform="translate(3.444779, 7.523887)" fill="#7F8C8D" id="Oval">
                        <circle cx="3.36089917" cy="3.46436215" r="3.15858622"></circle>
                    </g>
                    <g transform="translate(0.056217, 0.071957)" id="Path" stroke="#7F8C8D" stroke-width="3.9324017">
                        <path d="M0.0171570755,0.137771316 L10.002575,0.137771316"></path>
                    </g>
                </g>
                <g id="good" transform="translate(43.036637, 7.502282) scale(-1, 1) translate(-43.036637, -7.502282) translate(37.036637, 0.002282)">
                    <g id="Group" transform="translate(3.444779, 7.523887)" fill="#7F8C8D">
                        <circle id="Oval" cx="3.36089917" cy="3.46436215" r="3.15858622"></circle>
                    </g>
                    <g id="Group" transform="translate(0.056217, 0.071957)" stroke="#7F8C8D" stroke-width="3.9324017">
                        <path d="M0.0171570755,0.137771316 L10.002575,0.137771316" id="Path"></path>
                    </g>
                </g>
            </g>
            <g id="Group" transform="translate(0.164476, 106.144689)" stroke="#7F8C8D" stroke-width="3.9324017">
                <path d="M0.257356132,37.9891965 C0.257356132,37.9891965 -2.16350722,26.0255678 10.7437607,21.9902236 L31.1555333,15.1754333 C29.432963,15.1256777 48.6488875,25.8917426 65.4490958,14.9969997 L86.8868616,22.522093 C86.8868616,22.522093 96.5977663,24.2652518 96.0024158,38.2259642" id="Path"></path>
                <g transform="translate(31.313552, 0.847148)" id="Path">
                    <path d="M0.150982264,0.0343141509 L0.0497555189,14.2592454"></path>
                </g>
                <g transform="translate(64.292709, 0.081179)" id="Path">
                    <path d="M0.187012123,0.0343141509 L0.0497555189,15.6318115"></path>
                </g>
            </g>
            <g id="Group" transform="translate(2.738038, 0.113962)" stroke="#7F8C8D">
                <g transform="translate(9.373577, 27.245874)" id="Path" stroke-width="3.93112913">
                    <path d="M0.0811320148,27.0056402 C3.15565802,25.1707359 6.73207043,20.6188525 8.74527647,14.3018761 C12.0386702,3.96980835 13.4433862,-0.104716903 25.6999808,0.0509433581 C33.4754466,0.149056492 36.6650669,3.80377074 40.1037436,8.13395618 C64.3924046,10.1867848 61.5839162,-0.818867312 73.7612656,2.13490406 C77.4744703,3.03584678 75.8537168,8.93867256 72.949002,11.3830104"></path>
                </g>
                <g transform="translate(0.128301, 0.170422)" id="Path" stroke-width="3.93112913">
                    <path d="M81.1725808,38.8990275 C91.815969,34.1433707 92.3659686,22.5122473 81.039562,14.9613096 C55.482034,-2.07830033 15.3292338,-7.60754148 2.10094182,15.0556491 C3.37924275,18.2886656 2.63584708,19.7141362 6.8452779,24.0839442 C1.35471597,20.1150793 -3.41603518,33.1141262 4.58584563,36.691482 C-1.59528183,41.2527993 -2.0858475,52.3631684 7.40188125,53.6867523"></path>
                </g>
                <g transform="translate(74.404295, 43.207529) rotate(-3.954750) translate(-74.404295, -43.207529) translate(72.904295, 30.707529)" id="Path" stroke-width="3.93112416">
                    <path d="M0.0808751282,0.0544170757 C1.7478529,8.93364447 2.0148335,15.7741967 2.13747476,24.7354994"></path>
                </g>
                <g transform="translate(79.750883, 37.434545)" id="Path" stroke-width="3.93112913">
                    <path d="M5.03584529,0.0764150372 C4.69810969,6.33490092 3.19433723,12.9009337 0.0254716791,18.3679108"></path>
                </g>
            </g>
            <g id="Group" transform="translate(15.138040, 52.786184)" stroke="#7F8C8D" stroke-width="3.73854064">
                <g transform="translate(0.038624, 0.139671)" id="Path">
                    <path d="M0.0721179567,0.0811320148 C0.875596839,26.2320558 9.42793805,39.5311025 13.5064206,44.4244951 C13.9603395,44.9650607 14.6552172,45.2405322 15.3560341,45.1584568 C16.0568509,45.0773248 16.6702778,44.6480798 16.9867484,44.0178916 C17.7469565,42.5056286 18.6921259,40.6254413 19.4379104,39.1433669 C20.2252688,37.576387 21.7176863,36.4848784 23.4485173,36.2084635 C25.7834422,35.8367656 28.7530051,35.3631811 28.7530051,35.3631811 L32.34957,37.1320477"></path>
                </g>
                <g transform="translate(49.060247, 24.724574) scale(-1, 1) translate(-49.060247, -24.724574) translate(32.560247, 3.724574)" id="Path">
                    <path d="M0.0653303843,0.092452761 C1.50259884,23.9424349 9.49411688,36.2433691 13.3689723,40.8782713 C13.8271334,41.399969 14.5152236,41.6603462 15.2041622,41.571667 C15.8939492,41.4829878 16.4938009,41.0584598 16.8060292,40.4377056 C17.5738734,38.9273294 18.5215882,37.0433685 19.2682211,35.558464 C20.0555795,33.991484 21.547997,32.8999754 23.278828,32.6235605 C25.6137529,32.2518627 28.5833158,31.7782781 28.5833158,31.7782781 L32.1798807,33.5471447"></path>
                </g>
            </g>
            <g id="Group" transform="translate(10.287151, 54.501892)" stroke="#7F8C8D" stroke-width="3.93112913">
                <g transform="translate(0.019050, 0.111903)" id="Path">
                    <path d="M0.656603282,0.0660376864 C-2.15188518,27.3924323 4.61980786,43.7046843 23.8990387,53.8631672 C25.1443208,61.1546712 28.7254502,62.511274 38.3622354,62.3763684"></path>
                </g>
                <g transform="translate(55.389771, 31.611903) scale(-1, 1) translate(-55.389771, -31.611903) translate(35.889771, 0.111903)" id="Path">
                    <path d="M0.656603282,0.0660376864 C-2.15188518,27.3924323 4.61980786,43.7046843 23.8990387,53.8631672 C25.1443208,61.1546712 28.7254502,62.511274 38.3622354,62.3763684"></path>
                </g>
            </g>
            <g id="Group" transform="translate(41.512203, 95.568604)" stroke="#7F8C8D" stroke-width="3.9324017">
                <path d="M0.00171570755,4.62383184 L8.03980557,4.76795127 C10.6219454,3.9564216 13.7445332,3.44170934 15.9251975,0.04546625" id="Path"></path>
            </g>
            <g id="Group" transform="translate(45.295717, 67.951460)" stroke="#7F8C8D" stroke-width="3.9324017">
                <polyline id="Path" points="0.221326274 0.0379171368 0.140688019 15.3291607 6.15081156 15.3703376"></polyline>
            </g>
            <g id="Group" transform="translate(12.561071, 58.322944)" stroke="#7F8C8D" stroke-width="3.9307606">
                <g transform="translate(4.233239, 1.100497)" id="Path">
                    <polyline points="0.0135901655 0.0510713224 0.0135901655 13.5399598 22.044114 13.5399598 22.044114 0.0571306319"></polyline>
                </g>
                <g transform="translate(30.523206, 0.000000)" id="Path">
                    <g transform="translate(24.441511, 8.100497) scale(-1, 1) translate(-24.441511, -8.100497) translate(12.941511, 1.100497)">
                        <polyline points="0.0135901655 0.0510713224 0.0135901655 13.5399598 22.044114 13.5399598 22.044114 0.0571306319"></polyline>
                    </g>
                    <g transform="translate(20.096466, 1.061758) scale(-1, 1) translate(-20.096466, -1.061758) translate(0.096466, 0.061758)">
                        <polyline points="39.0219528 1.09586939 26.199069 1.09586939 26.199069 0.035490241 4.16854521 0.035490241 4.16854521 1.08981008 8.65615635e-05 1.10539117"></polyline>
                    </g>
                </g>
                <g transform="translate(0.078284, 0.061758)" id="Path">
                    <polyline points="39.0219528 1.09586939 26.199069 1.09586939 26.199069 0.035490241 4.16854521 0.035490241 4.16854521 1.08981008 8.65615635e-05 1.10539117"></polyline>
                </g>
            </g>
            <g id="Group" transform="translate(3.939033, 54.368444)" stroke="#7F8C8D" stroke-width="3.9324017">
                <g transform="translate(0.051132, 0.166509)" id="Path">
                    <path d="M6.00497642,0.0320696566 C6.00497642,0.0320696566 0.55245783,-0.0140688019 0.233336226,5.17937794 C0.217894858,5.42849868 0.137256604,5.87646992 0.137256604,5.87646992 L0.223041981,13.7815924 C0.223041981,13.7815924 0.847559528,19.2734007 6.70326939,21.356956"></path>
                </g>
                <g transform="translate(83.316518, 12.898768) scale(-1, 1) translate(-83.316518, -12.898768) translate(79.816518, 1.898768)" id="Path">
                    <path d="M6.00497642,0.0320696566 C6.00497642,0.0320696566 0.55245783,-0.0140688019 0.233336226,5.17937794 C0.217894858,5.42849868 0.137256604,5.87646992 0.137256604,5.87646992 L0.223041981,13.7815924 C0.223041981,13.7815924 0.835549575,19.1587915 6.51968868,21.2903865"></path>
                </g>
            </g>
        </g>
    </g>
</svg>
