<?xml version="1.0" encoding="UTF-8"?>
<svg width="116px" height="180px" viewBox="0 0 116 180" version="1.1" xmlns="http://www.w3.org/2000/svg" xmlns:xlink="http://www.w3.org/1999/xlink">
    <!-- Generator: Sketch 48 (47235) - http://www.bohemiancoding.com/sketch -->
    <title>Avatar</title>
    <desc>Created with Sketch.</desc>
    <defs>
        <polygon id="path-1" points="115.034555 89.6514931 115.034555 179.02965 0 179.02965 0 0.273336615 115.034555 0.273336615 115.034555 89.6514931"></polygon>
    </defs>
    <g id="Sia_Token_LP_Visual_Design_Metropolis" stroke="none" stroke-width="1" fill="none" fill-rule="evenodd" transform="translate(-212.000000, -3975.000000)">
        <g id="Team" transform="translate(135.000000, 2274.000000)">
            <g id="Profile-–-Steve" transform="translate(0.000000, 1656.000000)">
                <g id="Avatar" transform="translate(77.000000, 44.613713)">
                    <g id="Group-3" transform="translate(0.000000, 0.454852)">
                        <mask id="mask-2" fill="white">
                            <use xlink:href="#path-1"></use>
                        </mask>
                        <g id="Clip-2"></g>
                        <path d="M79.6259838,130.023631 C74.6087871,134.778833 68.0392722,137.398779 61.1291644,137.398779 C54.2125067,137.398779 47.6429919,134.778833 42.6257951,130.023631 L35.2768464,123.054574 C30.8294879,118.843011 27.9344474,113.177377 27.128814,107.105652 L24.7170081,89.0302075 L25.6485445,91.1501806 L29.9649057,103.33948 C31.1111321,106.568563 33.6066307,109.096811 36.8291644,110.275787 C38.0932884,110.740827 39.4098113,110.970073 40.7197844,110.970073 C42.6781941,110.970073 44.623504,110.459183 46.3592183,109.443954 C50.2563881,107.171151 54.6971968,105.965976 59.203504,105.965976 L62.7142318,105.965976 C67.2270889,105.965976 71.6678976,107.171151 75.5585175,109.443954 C78.453558,111.133819 81.9315364,111.435113 85.0951213,110.275787 C88.3111051,109.096811 90.8131536,106.568563 91.9593801,103.33948 L97.1796226,91.1501806 L97.2997035,90.8539811 L97.2975202,90.8685364 L95.1295148,107.105652 C94.3173315,113.177377 91.4222911,118.843011 86.9749326,123.054574 L79.6259838,130.023631 Z M76.5671968,151.625086 C71.8840431,153.602418 66.9257951,154.644574 61.9478976,154.742822 C61.3518598,154.755922 60.7427224,154.755922 60.1401348,154.742822 C55.221186,154.618375 50.3218868,153.583496 45.6845822,151.625086 L45.6845822,137.968617 C46.2347709,138.276461 46.7915094,138.571205 47.3613477,138.846299 C51.6056604,140.909507 56.2953639,142.003334 61.1291644,142.003334 C66.0284636,142.003334 70.7836658,140.883307 75.0738275,138.754601 C75.5781671,138.512256 76.0759569,138.243712 76.5671968,137.968617 L76.5671968,151.625086 Z M15.4569542,92.4732534 C15.0836119,91.5497224 14.8740162,90.5410431 14.8740162,89.479965 L14.8740162,81.5349784 C14.8740162,81.5218787 14.8740162,81.5095067 14.8740162,81.4971348 C14.890027,79.719938 16.4830997,78.3604771 18.2566577,78.4652749 L18.6598383,78.4892911 L19.4196226,84.181124 L21.1684367,97.2874043 C18.5681402,96.7241159 16.4328841,94.8901536 15.4569542,92.4732534 Z M12.5226146,54.7132803 C12.1034232,48.4974582 13.0466038,42.7401267 15.2670081,37.8801267 C17.0485714,39.3931456 18.9611321,40.8406658 21.0112399,42.1833881 C17.4481132,50.3838194 16.1250404,59.4815822 17.3302156,68.533496 L17.3564151,68.7430916 L17.9721024,73.341097 L18.0376011,73.8388868 L17.8738544,73.8323369 C17.7887062,73.6685903 17.7101078,73.5048437 17.6315094,73.341097 C16.924124,71.9066765 16.2887871,70.4329569 15.7189488,68.9330377 C13.9504852,64.2891833 12.843558,59.4029838 12.5226146,54.7132803 Z M5.41601078,19.2130108 C10.3349596,16.1673235 22.7142049,9.23101617 37.8443935,6.2311779 C56.1185175,2.61565229 71.1439084,6.16567925 82.5013747,16.7895606 C83.018814,17.2742507 83.7261995,17.4903962 84.427035,17.3855984 C89.5883288,16.5865148 94.5007278,17.8506388 98.6402426,21.0338733 C103.500243,24.7738464 106.814474,30.8455714 107.50876,37.2709892 C108.026199,42.1506388 106.879973,49.7419326 104.187978,59.2261375 C103.62469,61.2107466 103.041752,63.0971078 102.498113,64.7804232 C102.249218,65.5533073 102.006873,66.2868922 101.777628,66.974628 L97.7101617,57.4773235 L89.6145283,38.5678625 C89.3721833,37.9914744 88.900593,37.5395337 88.317655,37.3168383 C88.0556604,37.2185903 87.7740162,37.1661914 87.4989218,37.1661914 C87.1648787,37.1661914 86.8308356,37.2382399 86.5229919,37.3888868 C86.3002965,37.4871348 64.2665499,47.7376739 49.8175472,46.8272426 C42.0232075,46.3360027 35.3161456,44.4496415 29.558814,41.6921482 C28.1440431,41.0175121 26.788221,40.2904771 25.4913477,39.5241429 C16.2560377,34.0353558 9.80442049,26.3261644 5.41601078,19.2130108 Z M92.1427763,91.1501806 L87.6168194,101.806811 C86.9290836,103.739022 85.4357143,105.245491 83.5100539,105.952876 C81.6367925,106.640612 79.5866846,106.463765 77.8837197,105.468186 C73.2857143,102.782741 68.0392722,101.36142 62.7142318,101.36142 L59.203504,101.36142 C53.8784636,101.36142 48.6385714,102.782741 44.040566,105.468186 C42.3310512,106.463765 40.2809434,106.640612 38.4076819,105.952876 C36.4885714,105.245491 34.9886523,103.739022 34.3074663,101.806811 L29.8797574,91.1501806 L22.1683827,69.9606388 L21.8954717,67.9243585 C20.8278437,59.9138733 21.9413208,51.8575391 25.0001078,44.5609892 C25.7729919,44.9801806 26.5589757,45.3797224 27.3646092,45.7727143 C33.6459299,48.798752 40.981779,50.888159 49.5293531,51.425248 C62.5242857,52.2439811 80.1761725,45.1897763 86.3068464,42.530531 L97.893558,69.601124 L99.6030728,73.5965418 L92.1427763,91.1501806 Z M107.49566,81.5349784 L107.49566,89.479965 C107.49566,90.2855984 107.377763,91.0650323 107.148518,91.7986173 C106.303585,94.5888598 103.971833,96.7306658 101.083342,97.3136038 L102.498113,86.6962722 L103.742588,77.3561644 C105.851644,77.5854097 107.49566,79.366973 107.49566,81.5349784 Z M105.163908,158.33142 C105.111509,158.312499 105.052561,158.292849 104.993612,158.272472 L81.1783019,150.419911 L81.1783019,134.798482 C81.7284906,134.339992 82.2721294,133.861124 82.7961186,133.364062 L90.1450674,126.400827 C91.3698922,125.235679 92.496469,123.978105 93.5116981,122.641205 C96.8128302,118.312472 98.9677358,113.15045 99.6947709,107.71479 L100.448005,102.036057 C100.965445,101.996757 101.476334,101.924709 101.974124,101.819911 C106.257736,100.974978 109.755364,97.9423908 111.274933,93.946973 C111.812022,92.5584016 112.100216,91.0519326 112.100216,89.479965 L112.100216,81.5349784 C112.100216,77.1203693 108.838383,73.4589946 104.60062,72.8236577 C104.941213,71.9066765 105.432453,70.5508544 106.002291,68.8740889 C108.668086,61.047 113.102345,46.2377547 112.087116,36.7797493 C111.261833,29.1229569 107.286065,21.8722561 101.450135,17.3855984 C96.5835849,13.6456253 90.8655526,12.0278086 84.8396765,12.6827951 C78.257062,6.79446631 70.4954717,2.94969542 61.7579515,1.26638005 C54.1732075,-0.194239892 45.8286792,-0.0435929919 36.947062,1.71832075 C18.3781941,5.39279515 3.76544474,14.7263531 1.02105121,16.5668652 C0.0123719677,17.2349515 -0.295471698,18.5776739 0.307115903,19.6256523 C3.12355795,24.5249515 6.85698113,29.8041429 11.7300809,34.6379434 C8.73024259,40.4738733 7.41371968,47.4756792 7.93115903,55.0276739 C8.29140162,60.4051132 9.54242588,65.8349515 11.5925337,71.0355445 C12.0968733,72.3455175 12.6601617,73.635841 13.2758491,74.9130647 C11.4353369,76.5243315 10.2694609,78.8953827 10.2694609,81.5349784 L10.2694609,89.479965 C10.2694609,91.4580243 10.7279515,93.3247358 11.5466846,94.9884016 C13.1710512,98.3353827 16.242938,100.850531 19.9436119,101.734763 C20.5461995,101.87886 21.1684367,101.977108 21.8037736,102.029507 L22.563558,107.71479 C23.2316442,112.705787 25.0983558,117.460989 27.954097,121.561205 C29.1592722,123.303469 30.5543935,124.927836 32.1067116,126.400827 L39.4556604,133.364062 C39.9796496,133.861124 40.5232884,134.339992 41.080027,134.798482 L41.080027,150.419911 L17.2581671,158.272472 C17.1992183,158.292849 17.1402695,158.312499 17.0878706,158.33142 C11.0947439,160.853846 7.21722372,166.683226 7.21722372,173.187243 L7.21722372,176.73072 C7.21722372,177.975194 8.20625337,178.983146 9.4441779,179.023173 C9.47037736,179.029722 9.49657682,179.029722 9.52277628,179.029722 C10.7934501,179.029722 11.821779,178.001394 11.821779,176.73072 L11.821779,173.187243 C11.821779,168.569588 14.5530728,164.430073 18.7908356,162.61576 L41.8922102,154.997539 L42.003558,154.958968 C42.1280054,155.056488 42.2655526,155.142364 42.4096496,155.214412 C47.9835849,157.808159 53.9439623,159.183631 59.9305391,159.347377 C60.3300809,159.353927 60.7296226,159.360477 61.1291644,159.360477 C61.4763073,159.360477 61.8169003,159.353927 62.1640431,159.347377 C68.196469,159.20983 74.2157951,157.827809 79.8421294,155.214412 C79.9731267,155.148186 80.0910243,155.076865 80.1958221,154.997539 C80.2154717,154.985167 80.2285714,154.972067 80.248221,154.958968 L103.460943,162.61576 C107.698706,164.430073 110.43,168.569588 110.43,173.187243 L110.43,176.73072 C110.43,177.366057 110.685445,177.942445 111.104636,178.355086 C111.497628,178.754628 112.041267,179.003523 112.650404,179.023173 C112.676604,179.029722 112.709353,179.029722 112.735553,179.029722 C114.006226,179.029722 115.034555,178.001394 115.034555,176.73072 L115.034555,173.187243 C115.034555,166.683226 111.163585,160.853846 105.163908,158.33142 Z" id="Fill-1" fill="#7F8C8D" mask="url(#mask-2)"></path>
                    </g>
                    <path d="M67.3521186,93.1266388 L63.2635472,93.1266388 L63.2635472,79.0073127 C63.2635472,77.7359111 62.2323073,76.7046712 60.9609057,76.7046712 C59.689504,76.7046712 58.6582642,77.7359111 58.6582642,79.0073127 L58.6582642,95.4292803 C58.6582642,96.7006819 59.689504,97.7319218 60.9609057,97.7319218 L67.3521186,97.7319218 C68.6235202,97.7319218 69.6547601,96.7006819 69.6547601,95.4292803 C69.6547601,94.1578787 68.6235202,93.1266388 67.3521186,93.1266388" id="Fill-4" fill="#7F8C8D"></path>
                    <path d="M45.3792129,63.6686199 L34.8528518,63.6686199 C33.5814501,63.6686199 32.5502102,64.6998598 32.5502102,65.9712615 C32.5502102,67.2426631 33.5814501,68.273903 34.8528518,68.273903 L45.3792129,68.273903 C46.6513423,68.273903 47.6818544,67.2426631 47.6818544,65.9712615 C47.6818544,64.6998598 46.6513423,63.6686199 45.3792129,63.6686199" id="Fill-6" fill="#7F8C8D"></path>
                    <path d="M40.1161051,73.4798814 C38.2086388,73.4798814 36.6621429,75.0263774 36.6621429,76.9338437 C36.6621429,78.84131 38.2086388,80.3878059 40.1161051,80.3878059 C42.0235714,80.3878059 43.5700674,78.84131 43.5700674,76.9338437 C43.5700674,75.0263774 42.0235714,73.4798814 40.1161051,73.4798814" id="Fill-8" fill="#7F8C8D"></path>
                    <path d="M87.0685229,63.6686199 L76.5428895,63.6686199 C75.2707601,63.6686199 74.240248,64.6998598 74.240248,65.9712615 C74.240248,67.2426631 75.2707601,68.273903 76.5428895,68.273903 L87.0685229,68.273903 C88.3406523,68.273903 89.3711644,67.2426631 89.3711644,65.9712615 C89.3711644,64.6998598 88.3406523,63.6686199 87.0685229,63.6686199" id="Fill-10" fill="#7F8C8D"></path>
                    <path d="M81.8057062,73.4791536 C79.8975121,73.4791536 78.3517439,75.0256496 78.3517439,76.9338437 C78.3517439,78.84131 79.8975121,80.3878059 81.8057062,80.3878059 C83.7131725,80.3878059 85.2596685,78.84131 85.2596685,76.9338437 C85.2596685,75.0256496 83.7131725,73.4791536 81.8057062,73.4791536" id="Fill-12" fill="#7F8C8D"></path>
                    <path d="M70.481717,114.156437 L69.4541159,115.18331 C67.2890216,117.349132 64.4099919,118.54048 61.3482938,118.54048 L56.2030108,118.54048 C54.9316092,118.54048 53.9003693,119.57172 53.9003693,120.843121 C53.9003693,122.115978 54.9316092,123.146491 56.2030108,123.146491 L61.3482938,123.146491 C65.6406388,123.146491 69.6760836,121.474819 72.7108544,118.440049 L73.7377278,117.413175 C74.6365148,116.51366 74.6372426,115.055951 73.7384555,114.156437 C72.8389407,113.25765 71.380504,113.256922 70.481717,114.156437" id="Fill-14" fill="#7F8C8D"></path>
                </g>
            </g>
        </g>
    </g>
</svg>