<?xml version="1.0" encoding="UTF-8"?>
<svg width="112px" height="180px" viewBox="0 0 112 180" version="1.1" xmlns="http://www.w3.org/2000/svg" xmlns:xlink="http://www.w3.org/1999/xlink">
    <!-- Generator: Sketch 48 (47235) - http://www.bohemiancoding.com/sketch -->
    <title>Avatar</title>
    <desc>Created with Sketch.</desc>
    <defs>
        <polygon id="path-1" points="0.000363881402 179.02965 110.689447 179.02965 110.689447 0.295471698 0.000363881402 0.295471698"></polygon>
    </defs>
    <g id="Sia_Token_LP_Visual_Design_Metropolis" stroke="none" stroke-width="1" fill="none" fill-rule="evenodd" transform="translate(-514.000000, -3604.000000)">
        <g id="Team" transform="translate(135.000000, 2274.000000)">
            <g id="Profile-–-Zach" transform="translate(300.000000, 1285.000000)">
                <g id="Avatar" transform="translate(79.500000, 44.613713)">
                    <g id="Group-3" transform="translate(0.000000, 0.432291)">
                        <mask id="mask-2" fill="white">
                            <use xlink:href="#path-1"></use>
                        </mask>
                        <g id="Clip-2"></g>
                        <path d="M17.3327628,96.2949542 C15.0941644,89.6351968 13.9595822,82.6952507 13.9595822,75.6694286 L13.9595822,68.1792938 C15.0235714,66.7819892 17.6660782,63.2487008 20.3442453,59.1630404 C25.1482075,51.8366523 27.4835984,46.7146577 27.4835984,43.5030404 L27.4835984,40.8023127 C27.4835984,39.0207493 28.2644879,37.3410728 29.6261321,36.1933908 C30.9877763,35.0449811 32.7758895,34.5588356 34.5312534,34.8601294 L43.3823046,36.3789704 C51.2807143,37.7340647 59.2911995,37.7340647 67.1903369,36.3789704 L76.0413881,34.8601294 C77.7974798,34.5595633 79.5848652,35.0449811 80.9465094,36.1933908 C82.3081536,37.3410728 83.0890431,39.0207493 83.0890431,40.8023127 L83.0890431,43.5030404 C83.0890431,46.7146577 85.424434,51.8366523 90.2283962,59.1630404 C92.7333558,62.9837951 95.2062938,66.3205876 96.3867251,67.8801833 L96.3867251,75.6694286 C96.3867251,82.6959784 95.2514151,89.6351968 93.0135445,96.2949542 L83.9652695,123.215628 C81.1146226,131.699159 73.1856469,137.398997 64.2356199,137.398997 L46.1099596,137.398997 C37.1606604,137.398997 29.2316846,131.699159 26.38031,123.215628 L17.3327628,96.2949542 Z M97.4186927,61.5042534 C96.3925472,60.0676496 95.2244879,58.385062 94.0637062,56.6136873 C88.3151078,47.8419623 87.6943261,44.5226361 87.6943261,43.5030404 L87.6943261,40.8023127 C87.6943261,37.6605606 86.3166712,34.6971105 83.9150539,32.6724744 C81.9799326,31.0401024 79.5572102,30.1675148 77.0689892,30.1675148 C76.4685849,30.1675148 75.8645418,30.2184582 75.2626819,30.3218005 L66.4116307,31.8399137 C59.0292049,33.106221 51.5434367,33.106221 44.1610108,31.8399137 L35.3099596,30.3218005 C32.2133288,29.7905337 29.0599326,30.6471105 26.6575876,32.6724744 C24.2559704,34.6971105 22.8783154,37.6605606 22.8783154,40.8023127 L22.8783154,43.5030404 C22.8783154,46.7583235 18.0306873,54.6465445 13.5054582,61.0355741 C12.7034636,48.8637412 11.2996092,21.5413423 13.5280189,5.24018329 C23.1883423,7.92417251 34.3434906,9.07622102 45.1595013,10.1940647 C63.1119542,12.0491321 81.6757278,13.9667871 92.4262399,22.9219084 C98.5227089,28.000965 100.135431,40.3234447 97.4186927,61.5042534 Z M106.084164,79.2587547 L106.084164,86.747434 C106.084164,91.0776226 102.620741,94.6116388 98.3189353,94.7295364 C100.091765,88.5319084 100.992008,82.1356011 100.992008,75.6694286 L100.992008,75.054469 L101.880606,75.054469 C104.198531,75.054469 106.084164,76.9408302 106.084164,79.2587547 Z M4.60491914,79.2587547 C4.60491914,76.9408302 6.49128032,75.054469 8.80920485,75.054469 L9.35429919,75.054469 L9.35429919,75.6694286 C9.35429919,82.1290512 10.2523585,88.5202642 12.0222776,94.7127978 C7.88349057,94.4187817 4.60491914,90.9597251 4.60491914,86.747434 L4.60491914,79.2587547 Z M70.6159164,151.624577 C60.7241644,155.795385 49.6221429,155.795385 39.7289353,151.624577 L39.7289353,141.189186 C41.7797709,141.720453 43.9193935,142.005008 46.1099596,142.005008 L64.2356199,142.005008 C66.4269137,142.005008 68.5650809,141.720453 70.6159164,141.189914 L70.6159164,151.624577 Z M88.3311186,124.683526 L96.8481267,99.3406415 L98.0962399,99.3406415 C105.040553,99.3406415 110.689447,93.6910189 110.689447,86.747434 L110.689447,79.2587547 C110.689447,74.4016658 106.737695,70.449186 101.880606,70.449186 L100.992008,70.449186 L100.992008,68.3925283 C101.088801,68.1902102 101.157938,67.9718814 101.192143,67.7426361 C105.250148,41.0301024 103.454757,26.1153315 95.3736792,19.3835256 C83.5453504,9.53034501 64.2720081,7.53918598 45.6332749,5.61352561 C34.0749461,4.41926685 11.0303369,-0.0302749326 10.4626819,0.313956873 C9.89502695,0.658188679 7.35586253,24.5208032 7.97300539,42.7971105 C8.40747978,55.6792399 9.26260108,66.3708032 9.35429919,67.491558 L9.35429919,70.449186 L8.80920485,70.449186 C3.95138814,70.449186 0.000363881402,74.4016658 0.000363881402,79.2587547 L0.000363881402,86.747434 C0.000363881402,93.6910189 5.64925876,99.3406415 12.5935714,99.3406415 L13.4974528,99.3406415 L22.0151887,124.683526 C24.2559704,131.350561 29.0672102,136.606464 35.1243801,139.508782 L35.1243801,150.417218 L11.303248,158.270507 C11.2457547,158.290156 11.1889892,158.311261 11.1329515,158.33455 C5.13836927,160.852609 1.26448787,166.681989 1.26448787,173.183822 L1.26448787,176.727299 C1.26448787,177.998701 2.29572776,179.029941 3.56712938,179.029941 C4.83925876,179.029941 5.86977089,177.998701 5.86977089,176.727299 L5.86977089,173.183822 C5.86977089,168.570534 8.60106469,164.431019 12.8359164,162.614523 L36.0493666,154.960642 C36.1759973,155.055978 36.3091779,155.142582 36.456186,155.210992 C42.4034636,157.976491 48.7881267,159.358512 55.1727898,159.358512 C61.5574528,159.358512 67.9428437,157.976491 73.8893935,155.210992 C74.0364016,155.142582 74.17031,155.055978 74.2962129,154.960642 L97.5089353,162.614523 C101.744515,164.431019 104.475809,168.570534 104.475809,173.183822 L104.475809,176.727299 C104.475809,177.998701 105.507049,179.029941 106.77845,179.029941 C108.05058,179.029941 109.081092,177.998701 109.081092,176.727299 L109.081092,173.183822 C109.081092,166.681989 105.207938,160.853337 99.212628,158.33455 C99.1565903,158.311261 99.0998248,158.290156 99.0416038,158.270507 L75.2211995,150.417218 L75.2211995,139.508782 C81.2783693,136.606464 86.0903369,131.350561 88.3311186,124.683526 Z" id="Fill-1" fill="#7F8C8D" mask="url(#mask-2)"></path>
                    </g>
                    <path d="M52.4398949,101.863504 L58.6375229,101.863504 C59.9096523,101.863504 60.9401644,100.832264 60.9401644,99.5608625 C60.9401644,98.2887332 59.9096523,97.258221 58.6375229,97.258221 L55.0132642,97.258221 L57.4614582,75.259407 C57.6026442,73.995283 56.6914852,72.857062 55.4280889,72.715876 C54.1632372,72.5732345 53.0257439,73.4858491 52.884558,74.749973 L50.1510809,99.3054178 C50.0790323,99.9567655 50.2871725,100.607385 50.7238302,101.095714 C51.1604879,101.584043 51.7849084,101.863504 52.4398949,101.863504" id="Fill-4" fill="#7F8C8D"></path>
                    <path d="M29.4240323,67.398186 L39.6323612,67.398186 C40.9037628,67.398186 41.9342749,66.3669461 41.9342749,65.0955445 C41.9342749,63.8241429 40.9037628,62.792903 39.6323612,62.792903 L29.4240323,62.792903 C28.151903,62.792903 27.1213908,63.8241429 27.1213908,65.0955445 C27.1213908,66.3669461 28.151903,67.398186 29.4240323,67.398186" id="Fill-6" fill="#7F8C8D"></path>
                    <path d="M37.9820135,75.7269218 C37.9820135,73.8187278 36.4355175,72.2729596 34.5280512,72.2729596 C32.6205849,72.2729596 31.0740889,73.8187278 31.0740889,75.7269218 C31.0740889,77.6343881 32.6205849,79.1808841 34.5280512,79.1808841 C36.4355175,79.1808841 37.9820135,77.6343881 37.9820135,75.7269218" id="Fill-8" fill="#7F8C8D"></path>
                    <path d="M70.7142372,67.398186 L80.9218383,67.398186 C82.1939677,67.398186 83.2244798,66.3669461 83.2244798,65.0955445 C83.2244798,63.8241429 82.1939677,62.792903 80.9218383,62.792903 L70.7142372,62.792903 C69.4421078,62.792903 68.4115957,63.8241429 68.4115957,65.0955445 C68.4115957,66.3669461 69.4421078,67.398186 70.7142372,67.398186" id="Fill-10" fill="#7F8C8D"></path>
                    <path d="M75.8181833,72.2725957 C73.9099892,72.2725957 72.364221,73.8190916 72.364221,75.7272857 C72.364221,77.634752 73.9099892,79.181248 75.8181833,79.181248 C77.7256496,79.181248 79.2721456,77.634752 79.2721456,75.7272857 C79.2721456,73.8190916 77.7256496,72.2725957 75.8181833,72.2725957" id="Fill-12" fill="#7F8C8D"></path>
                    <path d="M56.3626092,116.012232 L51.3737951,116.012232 C50.1016658,116.012232 49.0704259,117.042744 49.0704259,118.314873 C49.0704259,119.586275 50.1016658,120.617515 51.3737951,120.617515 L56.3626092,120.617515 C60.5436065,120.617515 64.4742534,118.989509 67.4304259,116.032609 L68.4267332,115.036302 C69.326248,114.137515 69.326248,112.679806 68.4267332,111.781019 C67.5279461,110.880776 66.0702372,110.880776 65.1707224,111.780291 L64.1744151,112.776598 C62.0879191,114.863094 59.3136873,116.012232 56.3626092,116.012232" id="Fill-14" fill="#7F8C8D"></path>
                </g>
            </g>
        </g>
    </g>
</svg>