<?xml version="1.0" encoding="UTF-8"?>
<svg width="528px" height="843px" viewBox="0 0 528 843" version="1.1" xmlns="http://www.w3.org/2000/svg" xmlns:xlink="http://www.w3.org/1999/xlink">
    <!-- Generator: Sketch 52.2 (67145) - http://www.bohemiancoding.com/sketch -->
    <title>Group 29</title>
    <desc>Created with Sketch.</desc>
    <g id="Token-Site-Landing-Page" stroke="none" stroke-width="1" fill="none" fill-rule="evenodd">
        <g id="Artboard" transform="translate(-26.000000, -339.000000)">
            <g id="Group-29" transform="translate(37.000000, 350.000000)">
                <path d="M155.4726,350.0303 C164.6466,350.0303 172.0846,357.4673 172.0846,366.6423 C172.0846,375.8173 164.6466,383.2543 155.4726,383.2543 C146.2976,383.2543 138.8606,375.8173 138.8606,366.6423 C138.8606,357.4673 146.2976,350.0303 155.4726,350.0303" id="Fill-1" fill="#7F8C8D"></path>
                <path d="M120.0654,309.9546 L172.5824,309.9546" id="Stroke-3" stroke="#7F8C8D" stroke-width="22.92" stroke-linecap="round" stroke-linejoin="round"></path>
                <path d="M341.2704,350.0303 C332.0954,350.0303 324.6584,357.4673 324.6584,366.6423 C324.6584,375.8173 332.0954,383.2543 341.2704,383.2543 C350.4454,383.2543 357.8824,375.8173 357.8824,366.6423 C357.8824,357.4673 350.4454,350.0303 341.2704,350.0303" id="Fill-5" fill="#7F8C8D"></path>
                <path d="M376.6777,309.9546 L324.1607,309.9546" id="Stroke-7" stroke="#7F8C8D" stroke-width="22.92" stroke-linecap="round" stroke-linejoin="round"></path>
                <path d="M54.3842,210.2085 C54.3842,210.2085 68.5242,173.2985 133.6012,183.9765 C133.6012,183.9765 396.9782,224.0765 431.9182,132.8885 C431.9182,132.8885 450.4162,87.0515 428.2622,41.8765" id="Stroke-9" stroke="#7F8C8D" stroke-width="22.92" stroke-linecap="round" stroke-linejoin="round"></path>
                <path d="M1.4077,819.0567 C1.4077,819.0567 -11.3243,756.1357 56.5587,734.9127 L163.9107,699.0717 C154.8517,698.8097 255.9147,755.4327 344.2727,698.1327 L457.0207,737.7097 C457.0207,737.7097 508.0937,746.8777 504.9627,820.3017" id="Stroke-11" stroke="#7F8C8D" stroke-width="22.92" stroke-linecap="round" stroke-linejoin="round"></path>
                <path d="M165.6264,611.7315 L165.0034,698.7085" id="Stroke-13" stroke="#7F8C8D" stroke-width="22.92" stroke-linecap="round" stroke-linejoin="round"></path>
                <path d="M339.1738,611.7276 L338.4518,701.8986" id="Stroke-15" stroke="#7F8C8D" stroke-width="22.92" stroke-linecap="round" stroke-linejoin="round"></path>
                <path d="M223.2827,572.5235 L265.5577,573.2815 C279.1377,569.0125 295.5607,566.3055 307.0297,548.4445" id="Stroke-17" stroke="#7F8C8D" stroke-width="22.92" stroke-linecap="round" stroke-linejoin="round"></path>
                <polyline id="Stroke-19" stroke="#7F8C8D" stroke-width="22.92" stroke-linecap="round" stroke-linejoin="round" points="233.6743 423.6817 233.2503 504.1027 264.8593 504.3197"></polyline>
                <path d="M53.184,288.9727 C53.184,288.9727 -53.266,82.9327 98.518,26.6367 C98.518,26.6367 242.83,-33.1803 400.867,28.0327 C400.867,28.0327 481.42,25.8407 475.437,212.8047 C475.437,212.8047 462.317,281.7947 448.52,300.6707" id="Stroke-21" stroke="#7F8C8D" stroke-width="22.92" stroke-linecap="round" stroke-linejoin="round"></path>
                <path d="M76.6093,197.9673 C76.6093,197.9673 56.2163,237.9353 61.5223,307.5013 C61.5223,307.5013 51.3253,495.9713 108.7773,560.7063 C115.9243,568.7003 123.4593,574.6823 137.7703,577.9683 C137.7703,577.9683 166.9973,625.9273 208.1173,635.9163 C208.1173,635.9163 231.0723,643.3063 251.4393,643.3063 C271.7963,643.3063 293.7863,635.9163 293.7863,635.9163 C334.9153,625.9273 364.1413,577.9683 364.1413,577.9683 C378.4443,574.6823 385.9783,568.7003 393.1263,560.7063 C450.5873,495.9713 440.3903,307.5013 440.3903,307.5013 C443.4133,267.8293 438.0803,237.7823 432.9373,219.2853 C427.6133,183.0603 410.9373,167.5273 410.9373,167.5273" id="Stroke-23" stroke="#7F8C8D" stroke-width="22.92" stroke-linecap="round" stroke-linejoin="round"></path>
                <path d="M54.3666,322.6158 C54.3666,322.6158 25.6896,322.3728 24.0116,349.6868 C23.9306,350.9978 23.5066,353.3538 23.5066,353.3538 L23.9576,394.9288 C23.9576,394.9288 27.6836,427.6468 64.3286,436.6508" id="Stroke-25" stroke="#7F8C8D" stroke-width="22.92" stroke-linecap="round" stroke-linejoin="round"></path>
                <path d="M445.9218,322.6158 C445.9218,322.6158 474.5988,322.3728 476.2758,349.6868 C476.3588,350.9978 476.7818,353.3538 476.7818,353.3538 L476.3308,394.9288 C476.3308,394.9288 472.7218,426.6418 437.6388,436.2148" id="Stroke-27" stroke="#7F8C8D" stroke-width="22.92" stroke-linecap="round" stroke-linejoin="round"></path>
            </g>
        </g>
    </g>
</svg>