<?xml version="1.0" encoding="UTF-8"?>
<svg width="108px" height="168px" viewBox="0 0 108 168" version="1.1" xmlns="http://www.w3.org/2000/svg" xmlns:xlink="http://www.w3.org/1999/xlink">
    <!-- Generator: Sketch 48 (47235) - http://www.bohemiancoding.com/sketch -->
    <title>Avatar</title>
    <desc>Created with Sketch.</desc>
    <defs>
        <polygon id="path-1" points="53.9083747 167.385445 107.816604 167.385445 107.816604 0.697196765 53.9083747 0.697196765 0.000145552561 0.697196765 0.000145552561 167.385445"></polygon>
    </defs>
    <g id="Sia_Token_LP_Visual_Design_Metropolis" stroke="none" stroke-width="1" fill="none" fill-rule="evenodd" transform="translate(-216.000000, -3239.000000)">
        <g id="Team" transform="translate(135.000000, 2274.000000)">
            <g id="Profile-–-Chris" transform="translate(0.000000, 914.000000)">
                <g id="Avatar" transform="translate(81.000000, 50.761449)">
                    <g id="Group-3" transform="translate(0.000000, 0.030566)">
                        <mask id="mask-2" fill="white">
                            <use xlink:href="#path-1"></use>
                        </mask>
                        <g id="Clip-2"></g>
                        <path d="M53.9084474,130.360512 C59.3870458,130.360512 64.6800647,128.953747 69.3515741,126.320701 L69.3515741,139.980809 C59.4590943,144.150889 48.3578005,144.150889 38.464593,139.980809 L38.464593,126.319973 C43.1361024,128.953747 48.4298491,130.360512 53.9084474,130.360512 Z M100.274216,70.3477358 L100.274216,75.5345013 C100.274216,79.2861186 97.6724636,82.4409704 94.1792022,83.2931806 L96.4665606,66.1638275 C98.5989057,66.3639623 100.274216,68.1637197 100.274216,70.3477358 Z M59.2997143,5.30247978 C69.557531,5.30247978 79.3153747,9.72946092 86.0719245,17.4473854 C92.3867224,24.6609704 95.5030027,34.093504 94.7752399,43.5966307 L61.6627601,26.6324798 C60.874593,26.2292992 59.9263181,26.3122642 59.2211159,26.8471698 C58.5166415,27.3820755 58.1804151,28.2728571 58.3558059,29.1396226 L60.2596334,38.5233962 L32.6555903,21.9267655 C31.6418167,21.317628 30.3325714,21.5752561 29.6244582,22.5213477 L13.130442,44.5856604 C12.1006577,34.7506739 15.2111159,24.9113208 21.7449704,17.4473854 C28.5007925,9.72946092 38.2593639,5.30247978 48.5171806,5.30247978 L59.2997143,5.30247978 Z M7.65621024,70.3477358 C7.65621024,68.2015633 9.27329919,66.4294609 11.3517898,66.177655 L13.6340539,83.2655256 C10.1990135,82.3718329 7.65621024,79.2446361 7.65621024,75.5345013 L7.65621024,70.3477358 Z M19.908097,95.4577358 L13.9892022,51.1289757 L32.0668302,26.9461456 L62.3694178,45.1664151 C63.1517628,45.6365499 64.1386092,45.6001617 64.884566,45.0732615 C65.6297951,44.5463612 65.9944043,43.6293801 65.8124636,42.7349596 L63.8205768,32.912345 L94.182841,48.4675472 L87.9087978,95.4577358 C87.0980701,101.530916 84.2030296,107.197278 79.7571267,111.41248 L72.4096334,118.378625 C67.3924367,123.135283 60.8221941,125.755229 53.9084474,125.755229 C46.9947008,125.755229 40.4237305,123.135283 35.4072615,118.378625 L28.0597682,111.41248 C23.6138652,107.197278 20.7188248,101.530916 19.908097,95.4577358 Z M10.0389057,146.626739 C9.9814124,146.64566 9.92391914,146.666765 9.86860916,146.690054 C3.87402695,149.208113 0.000145552561,155.037493 0.000145552561,161.540054 L0.000145552561,165.082803 C0.000145552561,166.354205 1.03065768,167.385445 2.30278706,167.385445 C3.57418868,167.385445 4.60542857,166.354205 4.60542857,165.082803 L4.60542857,161.540054 C4.60542857,156.92531 7.33672237,152.785795 11.5715741,150.970027 L34.7850243,143.316873 C34.9109272,143.41221 35.0448356,143.498814 35.1911159,143.566496 C41.1391213,146.331995 47.5237844,147.714744 53.9084474,147.714744 C60.2931105,147.714744 66.6777736,146.331995 72.6250512,143.566496 C72.7720593,143.498814 72.9052399,143.41221 73.0318706,143.316873 L96.244593,150.970027 C100.480173,152.786523 103.211466,156.926038 103.211466,161.540054 L103.211466,165.082803 C103.211466,166.354205 104.242706,167.385445 105.514108,167.385445 C106.785509,167.385445 107.816749,166.354205 107.816749,165.082803 L107.816749,161.540054 C107.816749,155.037493 103.942868,149.208841 97.9482857,146.690054 C97.892248,146.666765 97.8347547,146.64566 97.7772615,146.626739 L73.9568571,138.77345 L73.9568571,123.15566 C74.5114124,122.69717 75.0521402,122.21903 75.5783127,121.720512 L82.9250782,114.755094 C88.1329488,109.816496 91.5243235,103.180027 92.4733261,96.0676011 L93.5416819,88.0643935 C99.89869,87.4319677 104.879499,82.0545283 104.879499,75.5345013 L104.879499,70.3477358 C104.879499,65.8305121 101.461197,62.0985445 97.0756981,61.5978437 L99.131628,46.200566 C100.665024,34.7171968 97.1673962,23.1319407 89.537531,14.4140701 C81.9062102,5.69692722 70.8849704,0.697196765 59.2997143,0.697196765 L48.5171806,0.697196765 C36.9311968,0.697196765 25.9106846,5.69692722 18.2793639,14.4140701 C10.6487709,23.1319407 7.15187062,34.7171968 8.68526685,46.200566 L10.7426523,61.6116712 C6.41100809,62.1633154 3.05092722,65.8690836 3.05092722,70.3477358 L3.05092722,75.5345013 C3.05092722,82.0145013 7.97133154,87.3657412 14.2730296,88.050566 L15.342841,96.0676011 C16.2925714,103.180027 19.6839461,109.816496 24.8910889,114.755094 L32.2385822,121.720512 C32.764027,122.21903 33.3054825,122.69717 33.85931,123.154933 L33.85931,138.77345 L10.0389057,146.626739 Z" id="Fill-1" fill="#7F8C8D" mask="url(#mask-2)"></path>
                    </g>
                    <path d="M53.9084474,62.9603612 C52.6363181,62.9603612 51.6058059,63.9916011 51.6058059,65.2630027 L51.6058059,86.6548625 C51.6058059,87.9262642 52.6363181,88.957504 53.9084474,88.957504 L60.1068032,88.957504 C61.3782049,88.957504 62.408717,87.9262642 62.408717,86.6548625 C62.408717,85.3834609 61.3782049,84.352221 60.1068032,84.352221 L56.2110889,84.352221 L56.2110889,65.2630027 C56.2110889,63.9916011 55.1805768,62.9603612 53.9084474,62.9603612" id="Fill-4" fill="#7F8C8D"></path>
                    <path d="M41.100841,50.5432722 C41.100841,49.2711429 40.0696011,48.2406307 38.7981995,48.2406307 L25.8563935,48.2406307 C24.5849919,48.2406307 23.5544798,49.2711429 23.5544798,50.5432722 C23.5544798,51.8146739 24.5849919,52.8459137 25.8563935,52.8459137 L38.7981995,52.8459137 C40.0696011,52.8459137 41.100841,51.8146739 41.100841,50.5432722" id="Fill-6" fill="#7F8C8D"></path>
                    <path d="M37.1478518,66.4143962 C37.1478518,64.5062022 35.6013558,62.960434 33.6938895,62.960434 C31.7864232,62.960434 30.2399272,64.5062022 30.2399272,66.4143962 C30.2399272,68.3218625 31.7864232,69.8683585 33.6938895,69.8683585 C35.6013558,69.8683585 37.1478518,68.3218625 37.1478518,66.4143962" id="Fill-8" fill="#7F8C8D"></path>
                    <path d="M81.9599919,48.240558 L69.0189137,48.240558 C67.7475121,48.240558 66.7162722,49.2717978 66.7162722,50.5431995 C66.7162722,51.8146011 67.7475121,52.845841 69.0189137,52.845841 L81.9599919,52.845841 C83.2321213,52.845841 84.2626334,51.8146011 84.2626334,50.5431995 C84.2626334,49.2717978 83.2321213,48.240558 81.9599919,48.240558" id="Fill-10" fill="#7F8C8D"></path>
                    <path d="M74.1227143,62.9603612 C72.215248,62.9603612 70.668752,64.5068571 70.668752,66.4143235 C70.668752,68.3217898 72.215248,69.8682857 74.1227143,69.8682857 C76.0301806,69.8682857 77.5766765,68.3217898 77.5766765,66.4143235 C77.5766765,64.5068571 76.0301806,62.9603612 74.1227143,62.9603612" id="Fill-12" fill="#7F8C8D"></path>
                    <path d="M66.1660108,103.736038 L67.1623181,102.740458 C68.0611051,101.840943 68.0618329,100.383962 67.1623181,99.4837197 C66.263531,98.5849326 64.8050943,98.5842049 63.9063073,99.4837197 L62.91,100.479299 C60.823504,102.566523 58.0492722,103.71566 55.0981941,103.71566 L50.1093801,103.71566 C48.8372507,103.71566 47.8060108,104.7469 47.8060108,106.018302 C47.8060108,107.290431 48.8372507,108.320943 50.1093801,108.320943 L55.0981941,108.320943 C59.2791914,108.320943 63.2098383,106.69221 66.1660108,103.736038" id="Fill-14" fill="#7F8C8D"></path>
                    <path d="M93.0253342,54.6461806 L64.761938,54.6461806 C63.4956307,54.6461806 62.4694852,55.6723261 62.4694852,56.9386334 L62.4694852,57.5121105 L45.3168437,57.5121105 L45.3168437,56.9386334 C45.3168437,55.6723261 44.2906981,54.6461806 43.0243908,54.6461806 L14.7609946,54.6461806 C13.4946873,54.6461806 12.4685418,55.6723261 12.4685418,56.9386334 C12.4685418,58.2049407 13.4946873,59.2310863 14.7609946,59.2310863 L40.731938,59.2310863 L40.731938,73.6407898 L17.1677062,73.6407898 C15.9013989,73.6407898 14.8752534,74.6669353 14.8752534,75.9332426 C14.8752534,77.1995499 15.9013989,78.2256954 17.1677062,78.2256954 L43.0243908,78.2256954 C44.2906981,78.2256954 45.3168437,77.1995499 45.3168437,75.9332426 L45.3168437,62.0970162 L62.4694852,62.0970162 L62.4694852,75.9332426 C62.4694852,77.1995499 63.4956307,78.2256954 64.761938,78.2256954 L90.6186226,78.2256954 C91.8849299,78.2256954 92.9110755,77.1995499 92.9110755,75.9332426 C92.9110755,74.6669353 91.8849299,73.6407898 90.6186226,73.6407898 L67.0543908,73.6407898 L67.0543908,59.2310863 L93.0253342,59.2310863 C94.2916415,59.2310863 95.3177871,58.2049407 95.3177871,56.9386334 C95.3177871,55.6723261 94.2916415,54.6461806 93.0253342,54.6461806" id="Fill-16" fill="#7F8C8D"></path>
                </g>
            </g>
        </g>
    </g>
</svg>