<?xml version="1.0" encoding="UTF-8"?>
<svg width="565px" height="841px" viewBox="0 0 565 841" version="1.1" xmlns="http://www.w3.org/2000/svg" xmlns:xlink="http://www.w3.org/1999/xlink">
    <!-- Generator: Sketch 52.2 (67145) - http://www.bohemiancoding.com/sketch -->
    <title>Group 39</title>
    <desc>Created with Sketch.</desc>
    <g id="Token-Site-Landing-Page" stroke="none" stroke-width="1" fill="none" fill-rule="evenodd">
        <g id="Artboard" transform="translate(-270.000000, -229.000000)">
            <g id="Group-39" transform="translate(281.000000, 239.000000)">
                <path d="M495.0339,302.0657 C495.0339,302.0657 525.8229,301.8047 527.6249,331.1307 C527.7119,332.5377 528.1679,335.0667 528.1679,335.0667 L527.6829,379.7047 C527.6829,379.7047 523.0809,420.1407 475.1639,426.1827" id="Stroke-1" stroke="#7F8C8D" stroke-width="22.92" stroke-linecap="round" stroke-linejoin="round"></path>
                <path d="M1.4773,817.7493 C1.4773,817.7493 -12.1927,750.1943 60.6903,727.4083 L175.9493,688.9273 C166.2223,688.6463 274.7283,749.4383 369.5933,687.9203 L490.6453,730.4113 C490.6453,730.4113 545.4793,740.2543 542.1183,819.0863" id="Stroke-3" stroke="#7F8C8D" stroke-width="22.92" stroke-linecap="round" stroke-linejoin="round"></path>
                <path d="M177.7908,595.1545 L177.1228,688.5375" id="Stroke-5" stroke="#7F8C8D" stroke-width="22.92" stroke-linecap="round" stroke-linejoin="round"></path>
                <path d="M364.1198,595.1506 L363.3448,691.9626" id="Stroke-7" stroke="#7F8C8D" stroke-width="22.92" stroke-linecap="round" stroke-linejoin="round"></path>
                <path d="M182.6531,298.0525 C192.5031,298.0525 200.4881,306.0375 200.4881,315.8875 C200.4881,325.7385 192.5031,333.7235 182.6531,333.7235 C172.8021,333.7235 164.8181,325.7385 164.8181,315.8875 C164.8181,306.0375 172.8021,298.0525 182.6531,298.0525" id="Fill-9" fill="#7F8C8D"></path>
                <path d="M144.6379,255.0251 L201.0219,255.0251" id="Stroke-11" stroke="#7F8C8D" stroke-width="22.92" stroke-linecap="round" stroke-linejoin="round"></path>
                <path d="M350.6081,298.0525 C340.7571,298.0525 332.7721,306.0375 332.7721,315.8875 C332.7721,325.7385 340.7571,333.7235 350.6081,333.7235 C360.4581,333.7235 368.4431,325.7385 368.4431,315.8875 C368.4431,306.0375 360.4581,298.0525 350.6081,298.0525" id="Fill-13" fill="#7F8C8D"></path>
                <path d="M388.6228,255.0251 L332.2388,255.0251" id="Stroke-15" stroke="#7F8C8D" stroke-width="22.92" stroke-linecap="round" stroke-linejoin="round"></path>
                <path d="M239.6931,498.5266 L285.0821,499.3396 C299.6621,494.7576 317.2951,491.8506 329.6081,472.6736" id="Stroke-17" stroke="#7F8C8D" stroke-width="22.92" stroke-linecap="round" stroke-linejoin="round"></path>
                <polyline id="Stroke-19" stroke="#7F8C8D" stroke-width="22.92" stroke-linecap="round" stroke-linejoin="round" points="250.8498 320.8357 250.3938 407.1807 284.3318 407.4127"></polyline>
                <path d="M48.5085,302.0657 C48.5085,302.0657 17.7195,301.8047 15.9185,331.1307 C15.8305,332.5377 15.3755,335.0667 15.3755,335.0667 L15.8605,379.7047 C15.8605,379.7047 20.4615,420.1407 68.3785,426.1827" id="Stroke-21" stroke="#7F8C8D" stroke-width="22.92" stroke-linecap="round" stroke-linejoin="round"></path>
                <path d="M100.7991,77.3879 C93.3871,80.9589 81.4521,86.5479 74.7191,97.4169 C55.2261,128.8819 30.2121,183.8449 45.1411,310.7829" id="Stroke-23" stroke="#7F8C8D" stroke-width="22.92" stroke-linecap="round" stroke-linejoin="round"></path>
                <path d="M489.8122,318.0574 C488.6982,366.9744 477.3142,422.7954 450.5562,485.8934 C443.8332,502.5304 430.2312,513.9314 416.1442,522.2634 C416.1442,522.2634 366.6382,631.6404 270.5722,626.6614 C189.1442,630.8854 125.0002,522.2634 125.0002,522.2634 C110.9032,513.9314 97.3012,502.5304 90.5782,485.8934 C64.4492,424.2694 53.3272,364.2884 52.1552,310.1834" id="Stroke-25" stroke="#7F8C8D" stroke-width="22.92" stroke-linecap="round" stroke-linejoin="round"></path>
                <path d="M58.5686,383.511 C58.5686,383.511 87.0036,419.349 92.8936,433.311 C92.8936,433.311 111.9206,463.306 130.2406,474.819 C130.2406,474.819 146.5556,486.783 149.3366,499.248 C149.3366,499.248 170.6396,509.455 175.3386,496.298 C175.3386,496.298 167.3366,474.509 168.0916,471.964 C168.0916,471.964 179.8626,441.09 223.0426,440.043 L285.6656,440.043" id="Stroke-27" stroke="#7F8C8D" stroke-width="22.92" stroke-linecap="round" stroke-linejoin="round"></path>
                <path d="M471.5886,412.6858 C466.0766,420.5978 461.1256,428.3408 459.0326,433.3108 C459.0326,433.3108 440.0056,463.3058 421.6866,474.8188 C421.6866,474.8188 405.3716,486.7838 402.5906,499.2488 C402.5906,499.2488 381.2866,509.4558 376.5886,496.2978 C376.5886,496.2978 384.5906,474.5088 383.8346,471.9638 C383.8346,471.9638 372.0646,441.0898 328.8846,440.0428 L266.2606,440.0428" id="Stroke-29" stroke="#7F8C8D" stroke-width="22.92" stroke-linecap="round" stroke-linejoin="round"></path>
                <path d="M498.3571,308.2473 C516.2601,258.9613 488.3981,225.7423 488.3981,225.7423 C491.7591,189.7123 486.1991,158.0143 470.7851,125.4623 C443.9591,76.6183 399.5391,48.5513 376.3551,41.6913 C355.2461,35.4483 338.9791,35.1163 334.5901,33.8623" id="Stroke-31" stroke="#7F8C8D" stroke-width="22.92" stroke-linecap="round" stroke-linejoin="round"></path>
                <path d="M93.5456,79.699 C123.9316,31.801 175.3486,-0.055 232.6186,0.111 C269.8466,0.22 304.2526,12.385 332.0586,32.904" id="Stroke-33" stroke="#7F8C8D" stroke-width="20.22" stroke-linecap="round" stroke-linejoin="round"></path>
                <path d="M58.9358,318.4162 C59.4978,307.9272 59.3238,301.8912 62.6078,285.7952 C62.6078,285.7952 63.3638,255.6822 76.7908,235.8672 C76.7908,235.8672 85.0358,221.5962 85.9848,185.5592 C85.9848,185.5592 91.5068,145.6212 122.4218,142.8142 C122.4218,142.8142 163.0148,168.9542 243.5508,166.2102 C256.2428,165.7782 310.9898,166.2102 310.9898,166.2102" id="Stroke-35" stroke="#7F8C8D" stroke-width="22.92" stroke-linecap="round" stroke-linejoin="round"></path>
                <path d="M482.2839,318.4162 C481.7219,307.9272 481.8969,301.8912 478.6129,285.7952 C478.6129,285.7952 477.8569,255.6822 464.4299,235.8672 C464.4299,235.8672 456.1839,221.5962 455.2349,185.5592 C455.2349,185.5592 449.7139,145.6212 418.7989,142.8142 C418.7989,142.8142 378.2059,168.9542 297.6699,166.2102 C284.9779,165.7782 230.2309,166.2102 230.2309,166.2102" id="Stroke-37" stroke="#7F8C8D" stroke-width="22.92" stroke-linecap="round" stroke-linejoin="round"></path>
            </g>
        </g>
    </g>
</svg>