<?xml version="1.0" encoding="UTF-8"?>
<svg width="119px" height="198px" viewBox="0 0 119 198" version="1.1" xmlns="http://www.w3.org/2000/svg" xmlns:xlink="http://www.w3.org/1999/xlink">
    <!-- Generator: Sketch 48 (47235) - http://www.bohemiancoding.com/sketch -->
    <title>Avatar</title>
    <desc>Created with Sketch.</desc>
    <defs>
        <polygon id="path-1" points="118.228488 0 0 0 0 196.495593 118.228488 196.495593 118.228488 8.27370517e-14"></polygon>
    </defs>
    <g id="Sia_Token_LP_Visual_Design_Metropolis" stroke="none" stroke-width="1" fill="none" fill-rule="evenodd" transform="translate(-510.000000, -2853.000000)">
        <g id="Team" transform="translate(135.000000, 2274.000000)">
            <g id="Profile-–-Luke" transform="translate(300.000000, 543.000000)">
                <g id="Avatar" transform="translate(75.500000, 36.613713)">
                    <g id="Group-3">
                        <mask id="mask-2" fill="white">
                            <use xlink:href="#path-1"></use>
                        </mask>
                        <g id="Clip-2"></g>
                        <path d="M96.5258733,137.925243 L87.540186,135.54473 C83.4603477,134.463275 79.6010216,132.449555 76.3813989,129.719717 C72.4463854,126.38438 67.6227736,124.546779 62.7991617,124.546779 L55.4291078,124.546779 C50.605496,124.546779 45.7818841,126.38438 41.8468706,129.719717 C38.627248,132.449555 34.7686496,134.463275 30.6880836,135.54473 L21.7023962,137.925243 C20.8392695,136.591981 20.0489191,135.207049 19.346628,133.767534 C16.0847951,127.077938 14.7886496,119.630741 15.5986496,112.254865 L20.8858464,67.9559434 C21.957841,58.9782615 29.5833396,52.2093396 38.6243369,52.2093396 L79.6046604,52.2093396 C88.6456577,52.2093396 96.2704286,58.9782615 97.3424232,67.9559434 L102.628164,112.232305 C103.43962,119.630741 102.144202,127.077938 98.8816415,133.767534 C98.1800782,135.207049 97.3897278,136.591981 96.5258733,137.925243 Z M74.5576253,169.090957 C64.6651456,173.261765 53.5638518,173.261765 43.6706442,169.090957 L43.6706442,158.975782 C48.5844987,160.285027 53.848407,160.940013 59.1144987,160.940013 C64.378407,160.940013 69.6437709,160.285027 74.5576253,158.975054 L74.5576253,169.090957 Z M84.2215876,149.979178 C77.5792965,154.088854 68.6627466,156.352197 59.1144987,156.352197 C49.5662507,156.352197 40.6497008,154.088854 34.0081375,149.979178 C30.4610216,147.784245 27.3098086,145.058046 24.6498356,141.909016 L31.8670593,139.996456 C36.6055229,138.741065 41.0863585,136.402035 44.8256038,133.232628 C47.9295121,130.601765 51.6942291,129.152062 55.4291078,129.152062 L62.7991617,129.152062 C66.5333127,129.152062 70.2994852,130.601765 73.4033935,133.232628 C77.1419111,136.402035 81.6227466,138.741065 86.3604825,139.996456 L93.578434,141.909016 C90.9191887,145.058774 87.7687035,147.784245 84.2215876,149.979178 Z M113.623205,110.111604 C113.623205,113.893059 110.980698,117.066833 107.446682,117.889933 C107.509997,115.836186 107.429216,113.771523 107.202881,111.709043 L105.950402,101.213976 L106.51369,97.9907143 C110.445792,98.0634906 113.623205,101.282385 113.623205,105.231954 L113.623205,110.111604 Z M10.6433127,61.351496 C11.7094852,49.400903 16.6349838,39.6605256 25.6999973,31.5736253 C26.3884609,30.9586658 26.6439057,29.9907412 26.3469784,29.1159704 C24.7822884,24.4954043 24.9627736,19.8282615 26.8695121,15.6210647 C28.707841,11.5652426 32.1305094,8.04432615 36.8282183,5.3530593 C46.9732318,20.7932749 71.3700243,31.2912534 90.4439596,37.4561321 C96.2114798,39.3206604 101.114418,43.1865364 104.248164,48.3412803 C107.386278,53.5025741 108.542693,59.6201482 107.503447,65.5666981 L104.053124,85.3167251 L101.914957,67.4101213 C100.567868,56.1188814 90.9759542,47.6040566 79.6046604,47.6040566 L38.6243369,47.6040566 C27.2523154,47.6040566 17.6611294,56.1188814 16.3133127,67.4101213 L13.6642561,89.6054313 C10.8929353,78.5339757 9.92792183,69.3852695 10.6433127,61.351496 Z M4.60506469,105.231954 C4.60506469,101.457776 7.50665499,98.3502291 11.1956846,98.0183693 C11.5304555,99.1507682 11.8805094,100.299906 12.2480296,101.467965 L11.0232049,111.730148 C10.7975984,113.784623 10.7182722,115.842008 10.7815876,117.889205 C7.24684367,117.066105 4.60506469,113.893059 4.60506469,110.111604 L4.60506469,105.231954 Z M11.1847682,122.62403 C11.8215606,127.170364 13.1715606,131.609717 15.207841,135.786348 C18.8517493,143.258288 24.5144717,149.520687 31.5846873,153.89527 C33.8822345,155.31659 36.3981105,156.522493 39.0653612,157.513706 L39.0653612,167.883598 L15.2449569,175.736887 C15.1874636,175.755809 15.1299704,175.777642 15.0739326,175.80093 C9.08007817,178.318989 5.20619677,184.148369 5.20619677,190.650202 L5.20619677,194.192951 C5.20619677,195.464353 6.23743666,196.495593 7.50883827,196.495593 C8.78023989,196.495593 9.81147978,195.464353 9.81147978,194.192951 L9.81147978,190.650202 C9.81147978,186.036186 12.5427736,181.897399 16.7776253,180.080903 L39.9903477,172.427022 C40.1169784,172.522358 40.2508868,172.608962 40.3971671,172.677372 C46.3451725,175.442871 52.7291078,176.824892 59.1144987,176.824892 C65.4991617,176.824892 71.8838248,175.442871 77.8311024,172.677372 C77.9781105,172.608962 78.1112911,172.522358 78.2379218,172.427022 L101.451372,180.080903 C105.686224,181.897399 108.417518,186.036186 108.417518,190.650202 L108.417518,194.192951 C108.417518,195.464353 109.448757,196.495593 110.720159,196.495593 C111.991561,196.495593 113.022801,195.464353 113.022801,194.192951 L113.022801,190.650202 C113.022801,184.148369 109.148919,178.319717 103.153609,175.80093 C103.098299,175.777642 103.040806,175.755809 102.983313,175.736887 L79.1629084,167.883598 L79.1629084,157.512978 C81.8308868,156.521765 84.3474906,155.31659 86.64431,153.89527 C93.7145256,149.520687 99.377248,143.258288 103.021884,135.786348 C105.057437,131.611173 106.405981,127.173275 107.042774,122.62403 C113.327005,121.921739 118.228488,116.579232 118.228488,110.111604 L118.228488,105.231954 C118.228488,99.0117655 113.410698,93.8999596 107.311318,93.4225472 L112.039593,66.3599596 C113.270968,59.3123046 111.901318,52.0645148 108.183906,45.9483962 C104.475954,39.8504717 98.6785957,35.2786658 91.860186,33.0742722 C80.1817763,29.2993666 70.0527736,25.0492318 61.7548221,20.4417655 C50.9242561,14.4289892 43.4923423,7.94462264 39.6657655,1.17060647 C39.0653612,0.106617251 37.7386496,-0.303113208 36.6426388,0.238342318 C30.0214528,3.50526954 25.1912911,8.16731806 22.6746873,13.7201482 C20.479027,18.5641375 20.0940404,23.864434 21.5393774,29.1378032 C12.256035,37.8411186 7.18789488,48.2597709 6.05622372,60.9424933 C5.23385175,70.1756199 6.47032075,80.680876 9.92937736,93.5404447 C4.30595418,94.4603369 -0.000218328841,99.3523585 -0.000218328841,105.231954 L-0.000218328841,110.111604 C-0.000218328841,116.579232 4.90199191,121.921011 11.1847682,122.62403 Z" id="Fill-1" fill="#7F8C8D" mask="url(#mask-2)"></path>
                    </g>
                    <path d="M65.3124178,113.861474 L61.4167035,113.861474 L61.4167035,94.7722561 C61.4167035,93.5001267 60.3861914,92.4688868 59.114062,92.4688868 C57.8426604,92.4688868 56.8114205,93.5001267 56.8114205,94.7722561 L56.8114205,116.164116 C56.8114205,117.435518 57.8426604,118.466757 59.114062,118.466757 L65.3124178,118.466757 C66.5838194,118.466757 67.6150593,117.435518 67.6150593,116.164116 C67.6150593,114.891987 66.5838194,113.861474 65.3124178,113.861474" id="Fill-4" fill="#7F8C8D"></path>
                    <path d="M31.0627358,87.1656065 L44.003814,87.1656065 C45.2759434,87.1656065 46.3064555,86.1343666 46.3064555,84.862965 C46.3064555,83.5915633 45.2759434,82.5603235 44.003814,82.5603235 L31.0627358,82.5603235 C29.7913342,82.5603235 28.7600943,83.5915633 28.7600943,84.862965 C28.7600943,86.1343666 29.7913342,87.1656065 31.0627358,87.1656065" id="Fill-6" fill="#7F8C8D"></path>
                    <path d="M42.3253019,95.0444394 C42.1309892,93.505221 40.8886981,92.2629299 39.3494798,92.0686173 C37.090504,91.7833342 35.1895876,93.6835229 35.4748706,95.9432264 C35.6684555,97.4824447 36.9122022,98.7261914 38.4514205,98.9197763 C40.7103962,99.2043315 42.6113127,97.3034151 42.3253019,95.0444394" id="Fill-8" fill="#7F8C8D"></path>
                    <path d="M74.2246739,87.1656065 L87.165752,87.1656065 C88.4378814,87.1656065 89.4683935,86.1343666 89.4683935,84.862965 C89.4683935,83.5915633 88.4378814,82.5603235 87.165752,82.5603235 L74.2246739,82.5603235 C72.9532722,82.5603235 71.9220323,83.5915633 71.9220323,84.862965 C71.9220323,86.1343666 72.9532722,87.1656065 74.2246739,87.1656065" id="Fill-10" fill="#7F8C8D"></path>
                    <path d="M82.7829461,95.4943423 C82.7829461,93.5861482 81.2364501,92.0396523 79.3289838,92.0396523 C77.4215175,92.0396523 75.8750216,93.5861482 75.8750216,95.4943423 C75.8750216,97.4018086 77.4215175,98.9483046 79.3289838,98.9483046 C81.2364501,98.9483046 82.7829461,97.4018086 82.7829461,95.4943423" id="Fill-12" fill="#7F8C8D"></path>
                    <path d="M70.7599407,136.483253 C69.8618814,135.585194 68.4034447,135.584466 67.5032022,136.483253 L66.5076226,137.478833 C64.4203989,139.566057 61.6468949,140.715194 58.6958167,140.715194 L53.7062749,140.715194 C52.4348733,140.715194 51.4036334,141.745706 51.4036334,143.017836 C51.4036334,144.289965 52.4348733,145.320477 53.7062749,145.320477 L58.6958167,145.320477 C62.8760863,145.320477 66.8067332,143.692472 69.7636334,140.736299 L70.7599407,139.739992 C71.6587278,138.840477 71.6587278,137.382768 70.7599407,136.483253" id="Fill-14" fill="#7F8C8D"></path>
                </g>
            </g>
        </g>
    </g>
</svg>