<?xml version="1.0" encoding="UTF-8"?>
<svg width="33px" height="33px" viewBox="0 0 33 33" version="1.1" xmlns="http://www.w3.org/2000/svg" xmlns:xlink="http://www.w3.org/1999/xlink">
    <!-- Generator: Sketch 48.2 (47327) - http://www.bohemiancoding.com/sketch -->
    <title>Sia Icon</title>
    <desc>Created with Sketch.</desc>
    <defs></defs>
    <g id="Core-Software-Download-Card" stroke="none" stroke-width="1" fill="none" fill-rule="evenodd" transform="translate(-509.000000, -29.000000)">
        <g id="Sia-Icon" transform="translate(510.000000, 30.000000)">
            <path d="M30,15.483871 C30,23.5009531 23.5009531,30 15.483871,30 C7.46678886,30 0.967741935,23.5009531 0.967741935,15.483871 C0.967741935,7.46678886 7.46678886,0.967741935 15.483871,0.967741935 C23.5009531,0.967741935 30,7.46678886 30,15.483871 Z" id="Stroke-1" stroke="#ECF0F1" stroke-width="3"></path>
            <path d="M5.21994135,9.60381252 C2.80267479,9.60381252 0.836070178,7.63720791 0.836070178,5.21994135 C0.836070178,2.80267479 2.80267479,0.836070178 5.21994135,0.836070178 C7.63720791,0.836070178 9.60381252,2.80267479 9.60381252,5.21994135 C9.60381252,7.63720791 7.63720791,9.60381252 5.21994135,9.60381252" id="Fill-3" fill="#FFFFFF"></path>
            <path d="M7.16994145,5.21994135 C7.16994145,6.29692641 6.29692641,7.16994145 5.21994135,7.16994145 C4.14295629,7.16994145 3.26994125,6.29692641 3.26994125,5.21994135 C3.26994125,4.14295629 4.14295629,3.26994125 5.21994135,3.26994125 C6.29692641,3.26994125 7.16994145,4.14295629 7.16994145,5.21994135" id="Fill-5" fill="#ECF0F1"></path>
            <path d="M19.8826979,15.483871 L19.8826979,19.8826979 L15.483871,19.8826979 C13.0544721,19.8826979 11.085044,17.9132698 11.085044,15.483871 C11.085044,13.0544721 13.0544721,11.085044 15.483871,11.085044 C17.9132698,11.085044 19.8826979,13.0544721 19.8826979,15.483871 M15.1360704,8.16055718 C11.2485337,8.34215543 8.15249267,11.5514663 8.15249267,15.483871 C8.15249267,19.5329179 11.434824,22.8152493 15.483871,22.8152493 L22.8152493,22.8152493 L22.8152493,15.5880499 C22.8152493,11.3866569 19.3328446,7.96458944 15.1360704,8.16055718" id="Fill-7" fill="#ECF0F1"></path>
        </g>
    </g>
</svg>