<svg xmlns="http://www.w3.org/2000/svg" viewBox="0 0 615.67 487.18"><defs><style>.cls-1{fill:#fff;}.cls-2,.cls-3,.cls-6{fill:#7f8c8d;}.cls-2,.cls-5,.cls-8{opacity:0.2;}.cls-12,.cls-3{opacity:0.5;}.cls-12,.cls-4{fill:#20ee82;}.cls-13,.cls-7{opacity:0.1;}.cls-10,.cls-11,.cls-13,.cls-8,.cls-9{fill:none;stroke-miterlimit:10;}.cls-10,.cls-13,.cls-8{stroke:#7f8c8d;}.cls-10,.cls-8,.cls-9{stroke-width:7.82px;}.cls-11,.cls-9{stroke:#20ee82;}.cls-10,.cls-11,.cls-13,.cls-9{stroke-linecap:round;}.cls-11{stroke-width:7.39px;}.cls-13{stroke-width:7.44px;}</style></defs><title>Page1_MAIN_04</title><g id="Layer_2" data-name="Layer 2"><rect class="cls-1" width="615.67" height="487.18"/></g><g id="Layer_9" data-name="Layer 9"><path class="cls-2" d="M7184.18,7044.59v13.26a7.81,7.81,0,0,0,7.8,7.8h44.66a7.81,7.81,0,0,0,7.8-7.8v-34.61h-29.56l-6.4-6.4h-24.29v27.75Zm53.56,13.26a1.1,1.1,0,0,1-1.1,1.1H7192a1.1,1.1,0,0,1-1.1-1.1v-34.32h14.83l6.4,6.4h25.64Z" transform="translate(-6861.03 -6928.53)"/><path class="cls-2" d="M7174.61,7052.35v-55.86a9.81,9.81,0,0,0-2.87-6.93h0a9.81,9.81,0,0,0-6.93-2.87h-45.58a9.81,9.81,0,0,0-6.93,2.87h0a9.81,9.81,0,0,0-2.87,6.93v70.9m7.24-3.52v-68.45l1.5-1.5h47.71l1.5,1.5v57.43" transform="translate(-6861.03 -6928.53)"/><path class="cls-1" d="M7104.24,7063.1s26-10.46,43.07-14.47c8.51-2,22.08-3.76,33.51-5s82.7,21.8,82.7,21.8l-3.08,26.35-152.21,6.17Z" transform="translate(-6861.03 -6928.53)"/><path class="cls-1" d="M7181.44,7075.33" transform="translate(-6861.03 -6928.53)"/><path class="cls-2" d="M7276.68,7039.63a1.7,1.7,0,0,1-1.7-1.7V7032h-5.9a1.7,1.7,0,1,1,0-3.4h5.9v-5.9a1.7,1.7,0,1,1,3.4,0v5.9h5.9a1.7,1.7,0,1,1,0,3.4h-5.9v5.9A1.7,1.7,0,0,1,7276.68,7039.63Z" transform="translate(-6861.03 -6928.53)"/><path class="cls-3" d="M7390.94,7162.23a3.44,3.44,0,1,1,0-6.89h3.55a27,27,0,0,0,3.78-53.81l-1.54-.19-.36,0c-.68,0-1.17-.05-1.65-.05a26.88,26.88,0,0,0-17.51,6.48l-1.53,1.32-4.87-4.87,1.75-1.54a33.72,33.72,0,0,1,22.13-8.27h.75s0-1.09,0-1.41a52.47,52.47,0,0,0-95.53-30l-.09.12h.15a49.85,49.85,0,0,1,29.26,11.51,3.44,3.44,0,0,1-2.2,6.1,3.42,3.42,0,0,1-2.2-.8,42.68,42.68,0,0,0-27.48-10c-1,0-2.07,0-3.11.11l-.34,0a43.28,43.28,0,0,0-37.77,32.26l0,.09h.09a30.18,30.18,0,0,1,14.74,5.64,3.44,3.44,0,0,1-4.07,5.55,23.29,23.29,0,0,0-13.67-4.48h-.56l-.53,0a23,23,0,0,0-21.83,23.25c.12,12.61,10.72,22.86,23.63,22.86h14.73a3.44,3.44,0,1,1,0,6.89H7254c-16.37,0-30.07-13.05-30.55-29.1a30,30,0,0,1,25.53-30.5h.06v-.06a49.44,49.44,0,0,1,42.42-39.11h0l0,0A59.38,59.38,0,0,1,7402.37,7093c0,.7,0,1.42,0,2.14v.07c15.51,3.7,26.65,17.59,26.58,33.24a34,34,0,0,1-33.9,33.74Z" transform="translate(-6861.03 -6928.53)"/><path class="cls-3" d="M7222.27,7258V7121.29h153.14V7258Zm6.58-6.58h140V7174h-140Zm0-83.93h140v-39.59h-140Z" transform="translate(-6861.03 -6928.53)"/><rect class="cls-4" x="476.21" y="213.23" width="11.79" height="11.79"/><path class="cls-1" d="M7263.53,7065.42s47.42,47.39,45.47,78.81c-1,16,2.46,72.69,2.46,72.69l-95.67,7.83s3.61-57.78-3.69-76.75-10.54-40-10.54-40Z" transform="translate(-6861.03 -6928.53)"/><path class="cls-3" d="M7415.7,7186.9a3.34,3.34,0,0,1,0-6.69H7438a3.34,3.34,0,0,1,0,6.69Z" transform="translate(-6861.03 -6928.53)"/><g class="cls-5"><path class="cls-6" d="M7436.9,7083h-10a4,4,0,1,1,0-8h10a4,4,0,0,1,0,8Z" transform="translate(-6861.03 -6928.53)"/></g><path class="cls-4" d="M7458,7186.9a3.34,3.34,0,0,1,0-6.69h4a3.34,3.34,0,1,1,0,6.69Z" transform="translate(-6861.03 -6928.53)"/><g class="cls-7"><path class="cls-6" d="M7140,7342.57a3.34,3.34,0,0,1,0-6.69h4a3.34,3.34,0,1,1,0,6.69Z" transform="translate(-6861.03 -6928.53)"/></g><path class="cls-2" d="M7089.09,7018.7a3.34,3.34,0,0,1,0,6.69H7066.8a3.34,3.34,0,0,1,0-6.69Z" transform="translate(-6861.03 -6928.53)"/><circle class="cls-8" cx="320.41" cy="241.08" r="94.28"/><path class="cls-9" d="M7188,7055.65a113.61,113.61,0,0,1,65.5,25.42" transform="translate(-6861.03 -6928.53)"/><path class="cls-10" d="M7264.92,7091.77a114.13,114.13,0,1,1-92.35-36" transform="translate(-6861.03 -6928.53)"/><polygon class="cls-1" points="355.29 396.48 115.24 396.48 115.24 184.28 189.18 191.67 269.77 196.6 355.29 184.28 355.29 396.48"/><path class="cls-3" d="M7027.42,7277.74a20.58,20.58,0,0,1-20.56-20.56V7157.11a20.58,20.58,0,0,1,20.56-20.56h61a32,32,0,0,1,23.44,10.26,34.6,34.6,0,0,0,25.35,11.1h51.8a20.58,20.58,0,0,1,20.56,20.56v36a3.58,3.58,0,0,1-3.58,3.58h-.14a3.59,3.59,0,0,1-3.53-3.58v-22.61H7014.12v65.3a13.32,13.32,0,0,0,13.31,13.31h124.35a3.63,3.63,0,0,1,0,7.25Zm0-133.93a13.32,13.32,0,0,0-13.31,13.31v27.51h188.25v-6.14a13.32,13.32,0,0,0-13.31-13.31h-56.11a32,32,0,0,1-23.44-10.26,34.6,34.6,0,0,0-25.35-11.1Z" transform="translate(-6861.03 -6928.53)"/><line class="cls-11" x1="170.77" y1="239.37" x2="199.64" y2="239.37"/><rect class="cls-1" x="293.56" y="288.39" width="193.67" height="97.33"/><path class="cls-2" d="M7185.25,7331.53a16.58,16.58,0,0,1-16.56-16.56v-8.61a16.5,16.5,0,0,1,4.25-11,17.17,17.17,0,0,1,12.31-5.52h132.42c8.09,0,12,5.11,12.15,5.33l.1.13a16.64,16.64,0,0,1,4.3,11.1V7315a16.58,16.58,0,0,1-16.56,16.56Zm0-33.93a8.77,8.77,0,0,0-8.76,8.76V7315a8.77,8.77,0,0,0,8.76,8.76h132.42a8.77,8.77,0,0,0,8.76-8.76v-8.61a8.77,8.77,0,0,0-8.76-8.76Z" transform="translate(-6861.03 -6928.53)"/><path class="cls-6" d="M7185.25,7297.26a16.58,16.58,0,0,1-16.56-16.56V7246a16.5,16.5,0,0,1,4.25-11,17.17,17.17,0,0,1,12.31-5.52h132.42c8.09,0,12,5.11,12.15,5.33l.1.13a16.64,16.64,0,0,1,4.3,11.1v34.68a16.58,16.58,0,0,1-16.56,16.56Zm0-60a8.77,8.77,0,0,0-8.76,8.76v34.68a8.77,8.77,0,0,0,8.76,8.76h132.42a8.77,8.77,0,0,0,8.76-8.76V7246a8.77,8.77,0,0,0-8.76-8.76Z" transform="translate(-6861.03 -6928.53)"/><line class="cls-11" x1="338.61" y1="335.75" x2="367.47" y2="335.75"/><rect class="cls-1" x="81.04" y="283.69" width="109.9" height="133.68"/><path class="cls-6" d="M6987.18,7305.34a12.35,12.35,0,0,1-12.34-12.34v-31a12.41,12.41,0,0,1,8-11.54l.36-.14v-5.59a25.36,25.36,0,0,1,50.72,0v5.59l.36.14a12.4,12.4,0,0,1,8,11.53v31a12.35,12.35,0,0,1-12.34,12.34Zm-1.33-49.32a6.14,6.14,0,0,0-4.78,6v31a6.12,6.12,0,0,0,6.12,6.12h42.72A6.12,6.12,0,0,0,7036,7293v-31a6.13,6.13,0,0,0-4.93-6l-.21,0h-44.7Zm41.83-6.27v-5a19.14,19.14,0,1,0-38.27,0v5Z" transform="translate(-6861.03 -6928.53)"/><path class="cls-4" d="M7007.35,7263.77a13,13,0,1,0-.1,25.91h13v-12.79a13.06,13.06,0,0,0-12.86-13.12m7.67,13v7.77h-7.77a7.77,7.77,0,1,1,7.77-7.77" transform="translate(-6861.03 -6928.53)"/><polygon class="cls-1" points="543.5 266.8 579.58 302.72 566.18 387.45 520.3 445.6 457.48 371.69 442.51 310.11 480.28 266.2 543.5 266.8"/><path class="cls-4" d="M7373,7333.72c-44.92-25-46.82-27.9-50.72-74.78-1.06-12.78-1.41-16.36-2.12-23.65l1.12-.56c13-6.45,18.45-9.15,20.43-24.12a107,107,0,0,1,62.49,0l.08,0c2,14.95,7.2,17.54,21,24.38l.59.3c-.74,7.59-1.06,11-2.12,23.65C7419.81,7305.81,7417.91,7308.71,7373,7333.72Zm0-120.3a99.31,99.31,0,0,0-23.78,2.82l-.79.2-.17.79c-2.64,12.11-10.89,17.75-19.4,22l-.79.4.08.88c.6,6.35,1.08,12.11,1.5,17.19l0,.58c3.73,44.86,5.19,45.68,42.67,66.54l.63.35.63-.35c38.94-21.67,39.08-23.36,42.67-66.54l0-.59c.42-5.08.9-10.84,1.5-17.18l.08-.89-.79-.4c-8.52-4.29-16.77-9.93-19.4-22l-.17-.79-.79-.2A99.48,99.48,0,0,0,7373,7213.41Z" transform="translate(-6861.03 -6928.53)"/><path class="cls-4" d="M7349.54,7271.64l15.64,15.64,31.28-31.28a5,5,0,0,0,0-7.1h0a5,5,0,0,0-7.1,0l-24.18,24.18-8.54-8.54a5,5,0,0,0-7.1,0h0A5,5,0,0,0,7349.54,7271.64Z" transform="translate(-6861.03 -6928.53)"/><path class="cls-3" d="M7060.93,7070a52.55,52.55,0,0,0-40.57,22.44l-.09.12h.15a49.85,49.85,0,0,1,29.26,11.51,3.44,3.44,0,0,1-2.2,6.1,3.42,3.42,0,0,1-2.2-.8,42.68,42.68,0,0,0-27.48-10c-1,0-2.07,0-3.11.11l-.34,0a43.28,43.28,0,0,0-37.77,32.26l0,.09h.09a30.18,30.18,0,0,1,14.74,5.64,3.44,3.44,0,0,1-4.07,5.55,23.29,23.29,0,0,0-13.67-4.48h-.56l-.53,0a23,23,0,0,0-21.83,23.25c.12,12.61,10.72,22.86,23.63,22.86h14.73a3.44,3.44,0,1,1,0,6.89h-14.68c-16.37,0-30.07-13.05-30.55-29.1a30,30,0,0,1,25.53-30.5h.06V7132a49.44,49.44,0,0,1,42.42-39.11h0l0,0a59.61,59.61,0,0,1,51.45-29.76" transform="translate(-6861.03 -6928.53)"/><g class="cls-5"><path class="cls-6" d="M7113.77,7313.31h-22.29a4,4,0,1,1,0-8h22.29a4,4,0,1,1,0,8Z" transform="translate(-6861.03 -6928.53)"/></g><g class="cls-5"><path class="cls-6" d="M7153.16,7026h-22.29a4,4,0,0,1,0-8h22.29a4,4,0,1,1,0,8Z" transform="translate(-6861.03 -6928.53)"/></g><path class="cls-12" d="M6946.31,7116.21a2.25,2.25,0,0,1-2.25-2.25v-4.14h-4.14a2.25,2.25,0,0,1,0-4.5h4.14v-4.13a2.25,2.25,0,1,1,4.5,0v4.13h4.14a2.25,2.25,0,0,1,0,4.5h-4.14V7114A2.25,2.25,0,0,1,6946.31,7116.21Z" transform="translate(-6861.03 -6928.53)"/><g class="cls-5"><path class="cls-6" d="M6947.52,7219.39h-10a4,4,0,0,1,0-8h10a4,4,0,0,1,0,8Z" transform="translate(-6861.03 -6928.53)"/></g><path class="cls-1" d="M7225.8,7172.9V7216h-43.06a43.06,43.06,0,1,1,43.06-43.06" transform="translate(-6861.03 -6928.53)"/><g class="cls-5"><path class="cls-6" d="M7153.16,7012.93h-22.29a4,4,0,1,1,0-8h22.29a4,4,0,1,1,0,8Z" transform="translate(-6861.03 -6928.53)"/></g><path class="cls-1" d="M7231.42,7172.9v48.68h-48.68a48.68,48.68,0,1,1,48.68-48.68m-48.06-81.13a81.13,81.13,0,1,0-.62,162.25h81.13v-80.11c0-44.73-35.78-81.81-80.51-82.14" transform="translate(-6861.03 -6928.53)"/><path class="cls-4" d="M7225.8,7172.9V7216h-43.06a43.06,43.06,0,1,1,43.06-43.06m-42.51-71.76a71.76,71.76,0,1,0-.54,143.52h71.76V7173.8c0-39.57-31.65-72.36-71.22-72.66" transform="translate(-6861.03 -6928.53)"/><path class="cls-4" d="M7072.13,7062.28a14.35,14.35,0,1,1,0,20.3,14.35,14.35,0,0,1,0-20.3" transform="translate(-6861.03 -6928.53)"/><path class="cls-4" d="M7225.8,7172.9V7216h-43.06a43.06,43.06,0,1,1,43.06-43.06m-42.51-71.76a71.76,71.76,0,1,0-.54,143.52h71.76V7173.8c0-39.57-31.65-72.36-71.22-72.66" transform="translate(-6861.03 -6928.53)"/><path class="cls-13" d="M6988.59,7091.77A211.82,211.82,0,0,1,7342.25,7025" transform="translate(-6861.03 -6928.53)"/><path class="cls-13" d="M6981.4,7222.31q-2.67-10.11-4.35-20.6" transform="translate(-6861.03 -6928.53)"/><path class="cls-13" d="M7309,7340.61a211.8,211.8,0,0,1-276.65-26.91" transform="translate(-6861.03 -6928.53)"/><path class="cls-13" d="M7397.91,7170.72a213.35,213.35,0,0,1-2.1,27.47" transform="translate(-6861.03 -6928.53)"/></g></svg>