<svg xmlns="http://www.w3.org/2000/svg" viewBox="0 0 669 497.58"><defs><style>.cls-1{fill:#fff;}.cls-2,.cls-3,.cls-6{fill:#7f8c8d;}.cls-2,.cls-5,.cls-7{opacity:0.2;}.cls-11,.cls-3{opacity:0.5;}.cls-11,.cls-4{fill:#20ee82;}.cls-10,.cls-7,.cls-8,.cls-9{fill:none;stroke-miterlimit:10;}.cls-7,.cls-9{stroke:#7f8c8d;}.cls-7,.cls-8,.cls-9{stroke-width:7.89px;}.cls-10,.cls-8{stroke:#20ee82;}.cls-10,.cls-8,.cls-9{stroke-linecap:round;}.cls-10{stroke-width:7.46px;}</style></defs><title>Page1_MAIN_01</title><g id="Layer_2" data-name="Layer 2"><rect class="cls-1" width="669" height="497.58"/></g><g id="Layer_8" data-name="Layer 8"><path class="cls-2" d="M7184.41,7043v13.37a7.87,7.87,0,0,0,7.86,7.86h45a7.87,7.87,0,0,0,7.86-7.86v-34.9h-29.8l-6.45-6.45h-24.5v28Zm54,13.37a1.11,1.11,0,0,1-1.11,1.11h-45a1.11,1.11,0,0,1-1.11-1.11v-34.6h14.95l6.45,6.45h25.85Z" transform="translate(-6868.5 -6923.33)"/><path class="cls-2" d="M7174.76,7050.83V6994.5a9.89,9.89,0,0,0-2.9-7h0a9.89,9.89,0,0,0-7-2.9h-46a9.89,9.89,0,0,0-7,2.9h0a9.89,9.89,0,0,0-2.9,7V7066m7.3-3.55v-69l1.51-1.51h48.11l1.51,1.51v57.91" transform="translate(-6868.5 -6923.33)"/><path class="cls-1" d="M7103.81,7061.67s26.26-10.55,43.43-14.59c8.59-2,22.26-3.79,33.79-5.05s83.39,22,83.39,22l-3.1,26.57-153.48,6.22Z" transform="translate(-6868.5 -6923.33)"/><path class="cls-1" d="M7181.65,7074" transform="translate(-6868.5 -6923.33)"/><path class="cls-2" d="M7279.7,7039a1.72,1.72,0,0,1-1.71-1.71v-5.95H7272a1.71,1.71,0,1,1,0-3.43H7278V7022a1.71,1.71,0,1,1,3.43,0v5.95h5.95a1.71,1.71,0,0,1,0,3.43h-5.95v5.95A1.72,1.72,0,0,1,7279.7,7039Z" transform="translate(-6868.5 -6923.33)"/><path class="cls-3" d="M7392.9,7161.62a3.47,3.47,0,1,1,0-6.94h3.58a27.23,27.23,0,0,0,3.81-54.25l-1.55-.19-.36,0c-.69,0-1.18-.05-1.66-.05a27.1,27.1,0,0,0-17.65,6.53l-1.54,1.33-4.91-4.91,1.76-1.55a34,34,0,0,1,22.31-8.34h.75s0-1.1,0-1.42a52.9,52.9,0,0,0-96.33-30.25l-.09.12h.15a50.26,50.26,0,0,1,29.5,11.61,3.47,3.47,0,0,1-2.22,6.15,3.44,3.44,0,0,1-2.22-.81,43,43,0,0,0-27.71-10.08c-1,0-2.09,0-3.13.11l-.34,0a43.64,43.64,0,0,0-38.08,32.53l0,.09h.09a30.43,30.43,0,0,1,14.86,5.69,3.47,3.47,0,0,1-4.1,5.6,23.48,23.48,0,0,0-13.78-4.52h-.56l-.54,0a23.22,23.22,0,0,0-22,23.45c.12,12.71,10.81,23.05,23.82,23.05h14.85a3.47,3.47,0,1,1,0,6.94h-14.81c-16.5,0-30.32-13.16-30.8-29.34a30.2,30.2,0,0,1,25.74-30.76h.06v-.06A49.85,49.85,0,0,1,7292.6,7062h0l0,0a59.87,59.87,0,0,1,111.77,29.87c0,.71,0,1.43,0,2.16v.08c15.64,3.73,26.88,17.74,26.8,33.51a34.26,34.26,0,0,1-34.18,34Z" transform="translate(-6868.5 -6923.33)"/><path class="cls-3" d="M7222.82,7258.15V7120.34h154.42v137.81Zm6.63-6.63H7370.6v-78H7229.45Zm0-84.63H7370.6V7127H7229.45Z" transform="translate(-6868.5 -6923.33)"/><rect class="cls-4" x="470.25" y="217.65" width="11.89" height="11.89"/><path class="cls-1" d="M7264.42,7064s47.81,47.78,45.85,79.46c-1,16.17,2.49,73.3,2.49,73.3l-96.47,7.89s3.65-58.26-3.72-77.39-10.63-40.3-10.63-40.3Z" transform="translate(-6868.5 -6923.33)"/><path class="cls-3" d="M7417.87,7186.5a3.37,3.37,0,0,1,0-6.74h22.48a3.37,3.37,0,0,1,0,6.74Z" transform="translate(-6868.5 -6923.33)"/><g class="cls-5"><path class="cls-6" d="M7439.24,7081.75h-10a4,4,0,1,1,0-8.06h10a4,4,0,1,1,0,8.06Z" transform="translate(-6868.5 -6923.33)"/></g><path class="cls-4" d="M7460.49,7186.5a3.37,3.37,0,0,1,0-6.74h4a3.37,3.37,0,1,1,0,6.74Z" transform="translate(-6868.5 -6923.33)"/><g class="cls-5"><path class="cls-3" d="M7076.43,7016.89a3.37,3.37,0,0,1,0,6.74H7054a3.37,3.37,0,0,1,0-6.74Z" transform="translate(-6868.5 -6923.33)"/><path class="cls-4" d="M7033.81,7016.89a3.37,3.37,0,0,1,0,6.74h-4a3.37,3.37,0,1,1,0-6.74Z" transform="translate(-6868.5 -6923.33)"/></g><circle class="cls-7" cx="313.15" cy="245.73" r="95.07"/><path class="cls-8" d="M7188.24,7054.16a114.56,114.56,0,0,1,66,25.63" transform="translate(-6868.5 -6923.33)"/><path class="cls-9" d="M7265.82,7090.58a115.08,115.08,0,1,1-93.12-36.26" transform="translate(-6868.5 -6923.33)"/><polygon class="cls-1" points="348.32 402.42 106.28 402.42 106.28 188.46 180.82 195.91 262.09 200.88 348.32 188.46 348.32 402.42"/><path class="cls-3" d="M7026.35,7278.09a20.75,20.75,0,0,1-20.73-20.73v-100.9a20.75,20.75,0,0,1,20.73-20.73h61.55a32.26,32.26,0,0,1,23.63,10.35,34.89,34.89,0,0,0,25.56,11.19h52.23a20.75,20.75,0,0,1,20.73,20.73v36.31a3.61,3.61,0,0,1-3.61,3.61h-.14a3.62,3.62,0,0,1-3.56-3.61v-22.8H7012.93v65.85a13.43,13.43,0,0,0,13.42,13.42h125.39a3.66,3.66,0,1,1,0,7.31Zm0-135a13.43,13.43,0,0,0-13.42,13.42v27.74h189.82V7178a13.43,13.43,0,0,0-13.42-13.42h-56.58a32.26,32.26,0,0,1-23.63-10.35,34.88,34.88,0,0,0-25.56-11.19Z" transform="translate(-6868.5 -6923.33)"/><line class="cls-10" x1="162.27" y1="244" x2="191.37" y2="244"/><rect class="cls-1" x="286.07" y="293.44" width="195.28" height="98.14"/><path class="cls-2" d="M7185.5,7332.34a16.72,16.72,0,0,1-16.7-16.7V7307a16.64,16.64,0,0,1,4.29-11.13,17.31,17.31,0,0,1,12.41-5.57H7319c8.16,0,12.09,5.16,12.25,5.38l.11.13a16.78,16.78,0,0,1,4.34,11.19v8.68a16.72,16.72,0,0,1-16.7,16.7Zm0-34.21a8.85,8.85,0,0,0-8.84,8.84v8.68a8.85,8.85,0,0,0,8.84,8.84H7319a8.85,8.85,0,0,0,8.84-8.84V7307a8.85,8.85,0,0,0-8.84-8.84Z" transform="translate(-6868.5 -6923.33)"/><path class="cls-6" d="M7185.5,7297.78a16.72,16.72,0,0,1-16.7-16.7v-35a16.64,16.64,0,0,1,4.29-11.13,17.31,17.31,0,0,1,12.41-5.57H7319c8.16,0,12.09,5.16,12.25,5.38l.11.13a16.78,16.78,0,0,1,4.34,11.19v35a16.72,16.72,0,0,1-16.7,16.7Zm0-60.5a8.85,8.85,0,0,0-8.84,8.84v35a8.85,8.85,0,0,0,8.84,8.84H7319a8.85,8.85,0,0,0,8.84-8.84v-35a8.85,8.85,0,0,0-8.84-8.84Z" transform="translate(-6868.5 -6923.33)"/><line class="cls-10" x1="331.5" y1="341.19" x2="360.61" y2="341.19"/><rect class="cls-1" x="71.79" y="288.69" width="110.81" height="134.8"/><path class="cls-6" d="M6985.77,7305.92a12.46,12.46,0,0,1-12.44-12.44v-31.27a12.51,12.51,0,0,1,8-11.63l.36-.14v-5.63a25.57,25.57,0,0,1,51.15,0v5.63l.36.14a12.51,12.51,0,0,1,8,11.63v31.27a12.46,12.46,0,0,1-12.44,12.44Zm-1.34-49.74a6.19,6.19,0,0,0-4.82,6v31.27a6.17,6.17,0,0,0,6.17,6.17h43.07a6.17,6.17,0,0,0,6.17-6.17v-31.27a6.18,6.18,0,0,0-5-6.05l-.21,0h-45.07Zm42.18-6.32v-5.05a19.3,19.3,0,1,0-38.59,0v5.05Z" transform="translate(-6868.5 -6923.33)"/><path class="cls-4" d="M7006.11,7264a13.06,13.06,0,1,0-.1,26.13h13.06v-12.9a13.17,13.17,0,0,0-13-13.23m7.74,13.06v7.84H7006a7.84,7.84,0,1,1,7.84-7.84" transform="translate(-6868.5 -6923.33)"/><polygon class="cls-1" points="538.1 271.66 574.49 307.88 560.97 393.32 514.7 451.95 451.36 377.43 436.27 315.34 474.35 271.06 538.1 271.66"/><path class="cls-4" d="M7374.8,7334.54c-45.29-25.21-47.21-28.13-51.14-75.4-1.07-12.89-1.42-16.49-2.13-23.85l1.13-.56c13.1-6.5,18.6-9.23,20.6-24.32a107.94,107.94,0,0,1,63,0l.08,0c2,15.07,7.26,17.69,21.13,24.58l.6.3c-.74,7.65-1.07,11.07-2.13,23.85C7422,7306.41,7420.09,7309.33,7374.8,7334.54Zm0-121.3a100.14,100.14,0,0,0-24,2.84l-.79.2-.17.8c-2.66,12.21-11,17.9-19.56,22.22l-.8.4.08.89c.6,6.4,1.09,12.21,1.51,17.33l0,.59c3.76,45.24,5.23,46.06,43,67.09l.64.36.64-.36c39.27-21.86,39.41-23.55,43-67.09l.05-.6c.43-5.12.91-10.93,1.51-17.32l.08-.89-.8-.4c-8.59-4.33-16.91-10-19.57-22.22l-.17-.8-.79-.2A100.31,100.31,0,0,0,7374.8,7213.23Z" transform="translate(-6868.5 -6923.33)"/><path class="cls-4" d="M7351.15,7271.94l15.77,15.77,31.54-31.54a5.06,5.06,0,0,0,0-7.16h0a5.06,5.06,0,0,0-7.16,0l-24.38,24.38-8.61-8.61a5.06,5.06,0,0,0-7.16,0h0A5.06,5.06,0,0,0,7351.15,7271.94Z" transform="translate(-6868.5 -6923.33)"/><path class="cls-3" d="M7060.13,7068.67a53,53,0,0,0-40.9,22.63l-.09.12h.15a50.26,50.26,0,0,1,29.5,11.61,3.47,3.47,0,0,1-2.22,6.15,3.44,3.44,0,0,1-2.22-.81,43,43,0,0,0-27.71-10.08c-1,0-2.09,0-3.13.11l-.34,0a43.64,43.64,0,0,0-38.08,32.53l0,.09h.09a30.43,30.43,0,0,1,14.86,5.69,3.47,3.47,0,0,1-4.1,5.6,23.48,23.48,0,0,0-13.78-4.52h-.56l-.54,0a23.22,23.22,0,0,0-22,23.45c.12,12.71,10.81,23.05,23.82,23.05h14.85a3.47,3.47,0,1,1,0,6.94h-14.81c-16.5,0-30.32-13.16-30.8-29.34a30.2,30.2,0,0,1,25.74-30.76h.06v-.06a49.85,49.85,0,0,1,42.78-39.44h0l0,0a60.11,60.11,0,0,1,51.88-30" transform="translate(-6868.5 -6923.33)"/><g class="cls-5"><path class="cls-6" d="M7113.42,7314h-22.48a4,4,0,0,1,0-8.06h22.48a4,4,0,1,1,0,8.06Z" transform="translate(-6868.5 -6923.33)"/></g><g class="cls-5"><path class="cls-6" d="M7153.13,7024.22h-22.48a4,4,0,1,1,0-8.06h22.48a4,4,0,0,1,0,8.06Z" transform="translate(-6868.5 -6923.33)"/></g><path class="cls-11" d="M6944.56,7115.22a2.27,2.27,0,0,1-2.27-2.27v-4.17h-4.17a2.27,2.27,0,0,1,0-4.54h4.17v-4.17a2.27,2.27,0,1,1,4.54,0v4.17H6951a2.27,2.27,0,0,1,0,4.54h-4.17v4.17A2.27,2.27,0,0,1,6944.56,7115.22Z" transform="translate(-6868.5 -6923.33)"/><g class="cls-5"><path class="cls-6" d="M6945.79,7219.26h-10a4,4,0,0,1,0-8.06h10a4,4,0,0,1,0,8.06Z" transform="translate(-6868.5 -6923.33)"/></g><path class="cls-1" d="M7226.38,7172.38v43.42H7183a43.42,43.42,0,1,1,43.42-43.42" transform="translate(-6868.5 -6923.33)"/><g class="cls-5"><path class="cls-6" d="M7153.13,7011.08h-22.48a4,4,0,1,1,0-8.06h22.48a4,4,0,0,1,0,8.06Z" transform="translate(-6868.5 -6923.33)"/></g><path class="cls-1" d="M7232,7172.38v49.08H7183a49.08,49.08,0,1,1,49.08-49.08m-48.46-81.8a81.8,81.8,0,1,0-.62,163.6h81.8v-80.78c0-45.1-36.08-82.49-81.18-82.83" transform="translate(-6868.5 -6923.33)"/><path class="cls-4" d="M7226.38,7172.38v43.42H7183a43.42,43.42,0,1,1,43.42-43.42M7183.51,7100a72.36,72.36,0,1,0-.55,144.72h72.36v-71.45c0-39.9-31.91-73-71.81-73.27" transform="translate(-6868.5 -6923.33)"/><path class="cls-4" d="M7071.43,7060.84a14.47,14.47,0,1,1,0,20.47,14.47,14.47,0,0,1,0-20.47" transform="translate(-6868.5 -6923.33)"/><path class="cls-4" d="M7226.38,7172.38v43.42H7183a43.42,43.42,0,1,1,43.42-43.42M7183.51,7100a72.36,72.36,0,1,0-.55,144.72h72.36v-71.45c0-39.9-31.91-73-71.81-73.27" transform="translate(-6868.5 -6923.33)"/></g></svg>