<?xml version="1.0" encoding="UTF-8"?>
<svg width="102px" height="90px" viewBox="0 0 102 90" version="1.1" xmlns="http://www.w3.org/2000/svg" xmlns:xlink="http://www.w3.org/1999/xlink">
    <!-- Generator: Sketch 48.2 (47327) - http://www.bohemiancoding.com/sketch -->
    <title>Video Icon</title>
    <desc>Created with Sketch.</desc>
    <defs></defs>
    <g id="Video-Card" stroke="none" stroke-width="1" fill="none" fill-rule="evenodd" transform="translate(-134.000000, -55.000000)" stroke-linejoin="round">
        <g id="Video-Icon" transform="translate(135.000000, 56.617647)" stroke-width="3">
            <path d="M73.5906863,82.1691176 C73.5906863,84.5281863 71.6605392,86.4583333 69.3014706,86.4583333 L9.25245098,86.4583333 C6.89338235,86.4583333 4.96323529,84.5281863 4.96323529,82.1691176 L4.96323529,47.8553922 C4.96323529,45.4963235 6.89338235,43.5661765 9.25245098,43.5661765 L69.3014706,43.5661765 C71.6605392,43.5661765 73.5906863,45.4963235 73.5906863,47.8553922 L73.5906863,82.1691176 L73.5906863,82.1691176 Z" id="Stroke-1993" stroke="#7F8C8D"></path>
            <path d="M17.8308824,56.4338235 L60.7230392,56.4338235" id="Stroke-1994" stroke="#20EE82" stroke-linecap="round"></path>
            <path d="M34.9877451,17.8308824 C34.9877451,27.3057598 27.3057598,34.9877451 17.8308824,34.9877451 C8.3560049,34.9877451 0.674019608,27.3057598 0.674019608,17.8308824 C0.674019608,8.3560049 8.3560049,0.674019608 17.8308824,0.674019608 C27.3057598,0.674019608 34.9877451,8.3560049 34.9877451,17.8308824 L34.9877451,17.8308824 Z" id="Stroke-1995" stroke="#7F8C8D" stroke-linecap="round"></path>
            <path d="M65.0122549,24.2647059 C65.0122549,30.1881127 60.2126225,34.9877451 54.2892157,34.9877451 C48.3658088,34.9877451 43.5661765,30.1881127 43.5661765,24.2647059 C43.5661765,18.341299 48.3658088,13.5416667 54.2892157,13.5416667 C60.2126225,13.5416667 65.0122549,18.341299 65.0122549,24.2647059 L65.0122549,24.2647059 Z" id="Stroke-1996" stroke="#7F8C8D" stroke-linecap="round"></path>
            <path d="M73.5906863,71.4460784 L95.3670343,80.5177696 C97.5416667,81.4270833 99.3259804,80.2389706 99.3259804,77.879902 L99.3259804,52.1446078 C99.3259804,49.7855392 97.5416667,48.5974265 95.3670343,49.5067402 L73.5906863,58.5784314" id="Stroke-1997" stroke="#7F8C8D" stroke-linecap="round"></path>
        </g>
    </g>
</svg>