<svg id="Layer_5" data-name="Layer 5" xmlns="http://www.w3.org/2000/svg" xmlns:xlink="http://www.w3.org/1999/xlink" viewBox="0 0 280.73 280"><defs><style>.cls-1{fill:none;}.cls-2{clip-path:url(#clip-path);}.cls-3{fill:#f7f9f9;}.cls-4{fill:#7f8c8d;}.cls-5{fill:#20ee82;}</style><clipPath id="clip-path" transform="translate(-7059.64 -7060)"><path class="cls-1" d="M7064.63,7200c0,74.56,60.61,135,135.37,135s135.36-60.44,135.36-135-60.6-135-135.36-135-135.37,60.44-135.37,135"/></clipPath></defs><title>Page1_Circle_D_01</title><g class="cls-2"><rect class="cls-3" width="280.73" height="280"/></g><path class="cls-4" d="M7147.8,7215.75a2.4,2.4,0,0,1-2.19-1.42,59.82,59.82,0,0,1,8.88-62.86,2.67,2.67,0,0,1,.55-.65,60.69,60.69,0,0,1,8.36-7.93,59.81,59.81,0,0,1,91.55,71.33,2.4,2.4,0,0,1-2.19,1.42h0a2.39,2.39,0,0,1-2.19-3.36,54.85,54.85,0,0,0-7.08-56.34l-.24-.3-.35.16c-2.39,1.06-5,2.16-7.58,3.1-2.19.79-4.45,1.51-6.73,2.16l-.47.13.12.47a112.33,112.33,0,0,1,3.32,20.38,2.4,2.4,0,0,1-2.22,2.55h-.17a2.4,2.4,0,0,1-2.39-2.23,107.62,107.62,0,0,0-3.19-19.54l-.12-.47-.47.11a104,104,0,0,1-19.9,2.49h-.49v17.27a2.39,2.39,0,1,1-4.79,0V7165l-.48,0c-.76,0-1.52-.05-2.28-.09a101.67,101.67,0,0,1-17.63-2.56l-.48-.11-.12.47a107.75,107.75,0,0,0-3.19,19.72,2.4,2.4,0,0,1-2.39,2.23h-.16a2.39,2.39,0,0,1-2.23-2.55,112.49,112.49,0,0,1,3.34-20.61l.12-.47-.47-.14a122.17,122.17,0,0,1-14.2-5.1l-.35-.15-.24.3a54.83,54.83,0,0,0-7.08,56.51,2.39,2.39,0,0,1-2.19,3.37Zm54.82-55.57h.52a99.09,99.09,0,0,0,18.49-2.29l.53-.12-.17-.52a108,108,0,0,0-9-20.62l-.11-.19-.21,0a54.94,54.94,0,0,0-9.53-1.34l-.53,0Zm-5.31-25.15a55.11,55.11,0,0,0-9.69,1.4l-.21,0-.11.19a107.92,107.92,0,0,0-8.85,20.39l-.16.52.53.12a96.79,96.79,0,0,0,16.52,2.37l2,.09.52,0V7135Zm22.68,4.52a113.39,113.39,0,0,1,6.67,16.57l.15.46.47-.13c2.18-.62,4.35-1.31,6.44-2.06,1.65-.59,3.37-1.28,5.57-2.23l.67-.29-.52-.52a55.38,55.38,0,0,0-18.82-12.49l-1.22-.48Zm-40.31-.59a55.37,55.37,0,0,0-18.51,12.31l-.53.53.69.28a116.59,116.59,0,0,0,11.84,4.15l.47.14.15-.47a113.27,113.27,0,0,1,6.52-16.26l.58-1.18Z" transform="translate(-7059.64 -7060)"/><path class="cls-5" d="M7200.26,7213.39a12.91,12.91,0,1,1,12.91-12.91,12.93,12.93,0,0,1-12.91,12.91m0-21a8.13,8.13,0,1,0,8.13,8.13,8.13,8.13,0,0,0-8.12-8.12" transform="translate(-7059.64 -7060)"/><path class="cls-5" d="M7178.89,7255.34a4.35,4.35,0,0,1-4.4-4.4v-16.06a17.13,17.13,0,0,1,17.11-17.11h17.28a17.11,17.11,0,0,1,17.08,17.11v16.06a4.44,4.44,0,0,1-4.47,4.4Zm34.56-22.25a1.87,1.87,0,0,1,1.87,1.87v15.6h5.86v-15.67a12.32,12.32,0,0,0-12.29-12.33H7191.6a12.34,12.34,0,0,0-12.33,12.33v15.67h5.78V7235a1.87,1.87,0,1,1,3.73,0v15.6h22.79V7235a1.87,1.87,0,0,1,1.87-1.87" transform="translate(-7059.64 -7060)"/><path class="cls-4" d="M7167.85,7213.39a12.91,12.91,0,1,1,12.91-12.91,12.93,12.93,0,0,1-12.91,12.91m0-21a8.13,8.13,0,1,0,8.13,8.13,8.13,8.13,0,0,0-8.12-8.12" transform="translate(-7059.64 -7060)"/><path class="cls-4" d="M7146.56,7255.34a4.44,4.44,0,0,1-4.48-4.4v-16.06a17.13,17.13,0,0,1,17.11-17.11h15.31a2.39,2.39,0,1,1,0,4.79h-15.31a12.34,12.34,0,0,0-12.33,12.33v15.67h5.86V7235a1.87,1.87,0,1,1,3.73,0v15.6h12.77a2.39,2.39,0,1,1,0,4.79Z" transform="translate(-7059.64 -7060)"/><path class="cls-4" d="M7232.82,7213.39a12.91,12.91,0,1,1,12.91-12.91,12.93,12.93,0,0,1-12.91,12.91m0-21a8.13,8.13,0,1,0,8.13,8.13,8.13,8.13,0,0,0-8.12-8.12" transform="translate(-7059.64 -7060)"/><path class="cls-4" d="M7231.37,7255.34a2.39,2.39,0,1,1,0-4.79h12.77V7235a1.87,1.87,0,0,1,3.73,0v15.6h5.85v-15.67a12.34,12.34,0,0,0-12.32-12.33H7226.1a2.39,2.39,0,0,1,0-4.79h15.31a17.13,17.13,0,0,1,17.11,17.11v16.06a4.35,4.35,0,0,1-4.4,4.4Z" transform="translate(-7059.64 -7060)"/></svg>