<svg id="Layer_9" data-name="Layer 9" xmlns="http://www.w3.org/2000/svg" viewBox="0 0 84.01 111.06"><defs><style>.cls-1{fill:#7f8c8d;}.cls-2{fill:#20ee82;}</style></defs><title>Page1_C_01</title><path class="cls-1" d="M7169.47,7232.41a8.45,8.45,0,1,0-.06,16.89h8.45V7241a8.52,8.52,0,0,0-8.38-8.55m5,8.45v5.07h-5.07a5.07,5.07,0,1,1,5.07-5.07" transform="translate(-7160.96 -7138.24)"/><path class="cls-1" d="M7203,7232.41a8.45,8.45,0,1,0-.06,16.89h8.45V7241a8.52,8.52,0,0,0-8.38-8.55m5,8.45v5.07H7203a5.07,5.07,0,1,1,5.07-5.07" transform="translate(-7160.96 -7138.24)"/><path class="cls-1" d="M7236.58,7232.41a8.45,8.45,0,1,0-.06,16.89H7245V7241a8.52,8.52,0,0,0-8.38-8.55m5,8.45v5.07h-5.07a5.07,5.07,0,1,1,5.07-5.07" transform="translate(-7160.96 -7138.24)"/><path class="cls-1" d="M7183.3,7207.51a2,2,0,0,0-2,2h0a2,2,0,0,0,2,2h17.63v11.24h-27.75a6.11,6.11,0,0,0-6.11,6.11V7233h4.07v-4.07a2,2,0,0,1,2-2h27.75V7233H7205v-6.11h27.75a2,2,0,0,1,2,2V7233h4.07v-4.07a6.11,6.11,0,0,0-6.11-6.11H7205v-11.24h16.73a2,2,0,0,0,2-2h0a2,2,0,0,0-2-2Z" transform="translate(-7160.96 -7138.24)"/><path class="cls-1" d="M7162.77,7155.88v37.8a7.44,7.44,0,0,0,7.43,7.43h65.53a7.44,7.44,0,0,0,7.43-7.43v-37.8a7.44,7.44,0,0,0-7.43-7.43h-6.49l-.36,3.7,0,.37h6.89a3.36,3.36,0,0,1,3.35,3.35v37.8a3.36,3.36,0,0,1-3.35,3.35H7170.2a3.36,3.36,0,0,1-3.35-3.35v-37.8a3.36,3.36,0,0,1,3.35-3.35h6.89c-.15-1.6.22,2.22-.4-4.07h-6.49A7.44,7.44,0,0,0,7162.77,7155.88Z" transform="translate(-7160.96 -7138.24)"/><path class="cls-2" d="M7181,7150.37c.31,3.23.45,4.57.89,10,1.59,19.18,2.18,20.37,21.1,30.9,18.93-10.53,19.51-11.73,21.1-30.9.44-5.32.57-6.65.89-10-6.14-3.06-8.07-3.82-8.82-10.11a44.08,44.08,0,0,0-26.34,0C7189,7146.64,7186.95,7147.39,7181,7150.37Zm12.47-6.9a40.74,40.74,0,0,1,19,0c1.19,5.46,5.14,7.78,8.15,9.3-.25,2.68-.45,5.07-.63,7.22-1.43,17.25-1.49,17.92-17,26.58-15.55-8.66-15.61-9.33-17-26.58-.18-2.15-.38-4.54-.63-7.22C7188.3,7151.25,7192.25,7148.92,7193.44,7143.46Z" transform="translate(-7160.96 -7138.24)"/><path class="cls-2" d="M7193.45,7165.43l6.34,6.34,12.69-12.69a2,2,0,0,0,0-2.88h0a2,2,0,0,0-2.88,0l-9.81,9.81-3.46-3.46a2,2,0,0,0-2.88,0h0A2,2,0,0,0,7193.45,7165.43Z" transform="translate(-7160.96 -7138.24)"/></svg>