<svg id="Layer_7" data-name="Layer 7" xmlns="http://www.w3.org/2000/svg" viewBox="0 0 107.71 112.8"><defs><style>.cls-1{fill:#7f8c8d;}.cls-2{fill:#20ee82;}.cls-3{fill:none;stroke:#20ee82;stroke-linecap:round;stroke-miterlimit:10;stroke-width:3px;}</style></defs><title>Page1_A_01</title><path class="cls-1" d="M7199.57,7240.68v-14.74h10.66a2,2,0,0,0,2-2h0a2,2,0,0,0-2-2h-50.45a4.87,4.87,0,0,1-4.87-4.87v-50h85.31v8.64a2,2,0,0,0,2,2h0a2,2,0,0,0,2-2v-14.61a8.87,8.87,0,0,0-8.87-8.87h-31a13.47,13.47,0,0,1-9.9-4.33h0a13.47,13.47,0,0,0-9.9-4.33h-24.76a8.87,8.87,0,0,0-8.87,8.87v64.59a8.87,8.87,0,0,0,8.87,8.87h35.79v14.58m9.2,9.59h30.46a2,2,0,0,0,2-2h0a2,2,0,0,0-2-2h-30.29m-14.33,0h-30.69a2,2,0,0,0-2,2h0a2,2,0,0,0,2,2h30.52m-30.65-102.5h23a13.47,13.47,0,0,1,9.9,4.33h0a13.47,13.47,0,0,0,9.9,4.33h32.76a4.87,4.87,0,0,1,4.87,4.87v2h-85.31v-10.63A4.87,4.87,0,0,1,7159.79,7147.6Z" transform="translate(-7150.92 -7143.6)"/><path class="cls-2" d="M7238.27,7183.28a15.37,15.37,0,0,0-15.36,15.36v3.26a7.56,7.56,0,0,0-5,7.1v18.62a7.55,7.55,0,0,0,7.54,7.54h25.65a7.55,7.55,0,0,0,7.54-7.54V7209a7.56,7.56,0,0,0-5-7.1v-3.27A15.37,15.37,0,0,0,7238.27,7183.28Zm-16.36,27.34V7209a3.53,3.53,0,0,1,2.76-3.46l.18,0h26.93a3.55,3.55,0,0,1,2.85,3.47v18.62a3.54,3.54,0,0,1-3.54,3.54h-25.65a3.54,3.54,0,0,1-3.54-3.54v-17Zm27.72-9.11h-22.71v-2.88a11.36,11.36,0,0,1,22.71,0Z" transform="translate(-7150.92 -7143.6)"/><line class="cls-3" x1="10.64" y1="13.24" x2="22.36" y2="13.24"/><path class="cls-1" d="M7197.64,7239.81a8.3,8.3,0,1,0-.06,16.59h8.29v-8.19a8.36,8.36,0,0,0-8.23-8.4m4.91,8.29v5h-5a5,5,0,1,1,5-5" transform="translate(-7150.92 -7143.6)"/></svg>