<svg id="Layer_10" data-name="Layer 10" xmlns="http://www.w3.org/2000/svg" viewBox="0 0 100.54 105.14"><defs><style>.cls-1{fill:#7f8c8d;}.cls-2{fill:#20ee82;}</style></defs><title>Page1_D_01</title><path class="cls-1" d="M7250.2,7175.83a50.24,50.24,0,0,0-48.75-38h-.05a50.31,50.31,0,0,0-37.9,17.3,2.39,2.39,0,0,0-.51.6,50.24,50.24,0,0,0-7.46,52.82,2.41,2.41,0,0,0,4.41-2,45.37,45.37,0,0,1,5.85-46.66,102.18,102.18,0,0,0,11.88,4.27,94,94,0,0,0-2.79,17.25,2.41,2.41,0,0,0,2.24,2.57h.16a2.41,2.41,0,0,0,2.4-2.25,89.15,89.15,0,0,1,2.65-16.35,84.88,84.88,0,0,0,14.77,2.14l1.91.08v14a2.41,2.41,0,1,0,4.82,0v-14a87,87,0,0,0,16.67-2.08,89.14,89.14,0,0,1,2.64,16.2,2.41,2.41,0,0,0,2.4,2.25h.17a2.41,2.41,0,0,0,2.24-2.57,94,94,0,0,0-2.78-17.06q2.85-.81,5.64-1.81c2.17-.78,4.29-1.69,6.34-2.59a45.37,45.37,0,0,1,5.85,46.52,2.41,2.41,0,1,0,4.41,2,50.19,50.19,0,0,0,2.79-32.59Zm-81-19.74a45.75,45.75,0,0,1,15.29-10.17,94.64,94.64,0,0,0-5.46,13.61A96.46,96.46,0,0,1,7169.16,7156.09Zm28.19,6.63a80,80,0,0,1-13.69-2,89.43,89.43,0,0,1,7.34-16.91,45.38,45.38,0,0,1,8-1.15v20.1Zm6.47.08v-20.11a45.38,45.38,0,0,1,7.87,1.11,89.44,89.44,0,0,1,7.46,17.1A82.13,82.13,0,0,1,7203.83,7162.79Zm25.35-4.79q-2.63.95-5.34,1.71a94.64,94.64,0,0,0-5.59-13.87,45.74,45.74,0,0,1,15.54,10.31C7232.26,7156.81,7230.74,7157.44,7229.17,7158Z" transform="translate(-7151.18 -7137.81)"/><path class="cls-2" d="M7212.62,7196.81a11.18,11.18,0,1,0-11.18,11.18A11.19,11.19,0,0,0,7212.62,7196.81Zm-17.53,0a6.35,6.35,0,1,1,6.35,6.35A6.36,6.36,0,0,1,7195.09,7196.81Z" transform="translate(-7151.18 -7137.81)"/><path class="cls-2" d="M7208.63,7210.8h-14.4a14.69,14.69,0,0,0-14.68,14.68v13.38a4,4,0,0,0,4.08,4.08h35.5a4.12,4.12,0,0,0,4.15-4.08v-13.38h0A14.68,14.68,0,0,0,7208.63,7210.8Zm-14.4,4.82h14.4a9.85,9.85,0,0,1,9.82,9.85v12.64h-4v-12.58a2,2,0,1,0-3.95,0v12.58H7192.3v-12.58a2,2,0,1,0-3.95,0v12.58h-4v-12.64A9.87,9.87,0,0,1,7194.23,7215.62Z" transform="translate(-7151.18 -7137.81)"/><path class="cls-1" d="M7185.61,7196.81a11.18,11.18,0,1,0-11.18,11.18A11.19,11.19,0,0,0,7185.61,7196.81Zm-17.53,0a6.35,6.35,0,1,1,6.35,6.35A6.36,6.36,0,0,1,7168.08,7196.81Z" transform="translate(-7151.18 -7137.81)"/><path class="cls-1" d="M7175.58,7238.12h-10.23v-12.58a2,2,0,1,0-3.95,0v12.58h-4v-12.64a9.87,9.87,0,0,1,9.85-9.85H7180a2.41,2.41,0,1,0,0-4.82h-12.76a14.69,14.69,0,0,0-14.68,14.68v13.38a4.12,4.12,0,0,0,4.15,4.08h18.89a2.41,2.41,0,0,0,0-4.82Z" transform="translate(-7151.18 -7137.81)"/><path class="cls-1" d="M7228.58,7208a11.18,11.18,0,1,0-11.18-11.18A11.19,11.19,0,0,0,7228.58,7208Zm0-17.53a6.35,6.35,0,1,1-6.35,6.35A6.36,6.36,0,0,1,7228.58,7190.45Z" transform="translate(-7151.18 -7137.81)"/><path class="cls-1" d="M7235.73,7210.8H7223a2.41,2.41,0,0,0,0,4.82h12.76a9.87,9.87,0,0,1,9.85,9.85v12.64h-4v-12.58a2,2,0,1,0-3.95,0v12.58h-10.23a2.41,2.41,0,0,0,0,4.82h19a4,4,0,0,0,4.08-4.08v-13.38h0A14.69,14.69,0,0,0,7235.73,7210.8Z" transform="translate(-7151.18 -7137.81)"/></svg>