<svg id="Layer_3" data-name="Layer 3" xmlns="http://www.w3.org/2000/svg" xmlns:xlink="http://www.w3.org/1999/xlink" viewBox="0 0 280.73 280"><defs><style>.cls-1,.cls-7,.cls-8{fill:none;}.cls-2{clip-path:url(#clip-path);}.cls-3{fill:#f7f9f9;}.cls-4{opacity:0.5;}.cls-5{opacity:0.3;}.cls-6{fill:#7f8c8d;}.cls-7{stroke:#7f8c8d;}.cls-7,.cls-8{stroke-linecap:round;stroke-miterlimit:10;stroke-width:4.32px;}.cls-8{stroke:#20ee82;}</style><clipPath id="clip-path" transform="translate(-7059.64 -7060)"><path class="cls-1" d="M7199.51,7065c-74.53.26-134.87,60.6-134.87,135,0,74.56,60.6,135,135.37,135s135.36-60.44,135.36-135c0-74.4-60.34-134.74-134.87-135Z"/></clipPath></defs><title>Page1_Circle_B_01</title><g class="cls-2"><rect class="cls-3" width="280.73" height="280"/></g><g class="cls-4"><path class="cls-6" d="M7161.31,7189.66a9.54,9.54,0,0,1-6.13,2.34v2.34h-3.33v-2.45a14.88,14.88,0,0,1-6.74-2.49,2.1,2.1,0,0,1-.46-3.05h0a2.07,2.07,0,0,1,2.78-.42,12.17,12.17,0,0,0,4.41,2v-7.13a14.83,14.83,0,0,1-5.65-2.54,5.56,5.56,0,0,1-1.88-4.55,6.88,6.88,0,0,1,2.08-5,9,9,0,0,1,5.45-2.49v-2.23h3.33v2.27a13.36,13.36,0,0,1,5.86,2,2.1,2.1,0,0,1,.58,3h0a2.07,2.07,0,0,1-2.78.53,10.8,10.8,0,0,0-3.66-1.58V7177a16.41,16.41,0,0,1,6.23,2.56,5.62,5.62,0,0,1,2.1,4.75A7,7,0,0,1,7161.31,7189.66Zm-11.68-14.7a6.41,6.41,0,0,0,2.23,1.21v-6.07a4.23,4.23,0,0,0-2.12,1.19,2.78,2.78,0,0,0-.8,2A2.26,2.26,0,0,0,7149.62,7175Zm8.34,12a2.85,2.85,0,0,0,1-2.16,2.37,2.37,0,0,0-.86-1.92,8.29,8.29,0,0,0-2.91-1.3v6.51A4.85,4.85,0,0,0,7158,7187Z" transform="translate(-7059.64 -7060)"/></g><path class="cls-6" d="M7123.22,7246.54a8.9,8.9,0,0,1-8.89-8.89v-16.88a8.85,8.85,0,0,1,2.28-5.92,9.1,9.1,0,0,1,6.6-3h64.46a8.34,8.34,0,0,1,6.58,2.93,8.89,8.89,0,0,1,2.31,6v16.88a8.9,8.9,0,0,1-8.89,8.89Zm0-29.21a3.45,3.45,0,0,0-3.44,3.44v16.88a3.45,3.45,0,0,0,3.44,3.44h64.46a3.45,3.45,0,0,0,3.44-3.44v-16.88a3.45,3.45,0,0,0-3.44-3.44Z" transform="translate(-7059.64 -7060)"/><path class="cls-6" d="M7207.94,7246.54a8.9,8.9,0,0,1-8.89-8.89v-16.88a8.86,8.86,0,0,1,2.28-5.92l.22-.24-.22-.24a8.86,8.86,0,0,1-2.28-5.92v-16.88a8.86,8.86,0,0,1,2.28-5.92l.22-.24-.22-.24a8.86,8.86,0,0,1-2.28-5.92v-16.88a8.9,8.9,0,0,1,8.89-8.89h64.47a8.9,8.9,0,0,1,8.89,8.89v16.88a8.86,8.86,0,0,1-2.28,5.92l-.22.24.22.24a8.86,8.86,0,0,1,2.28,5.92v16.88a8.86,8.86,0,0,1-2.28,5.92l-.22.24.22.24a8.86,8.86,0,0,1,2.28,5.92v16.88a8.9,8.9,0,0,1-8.89,8.89Zm0-29.21a3.45,3.45,0,0,0-3.44,3.44v16.88a3.44,3.44,0,0,0,3.44,3.44h64.47a3.44,3.44,0,0,0,3.44-3.44v-16.88a3.45,3.45,0,0,0-3.44-3.44Zm0-29.21a3.44,3.44,0,0,0-3.44,3.44v16.88a3.45,3.45,0,0,0,3.44,3.44h64.47a3.45,3.45,0,0,0,3.44-3.44v-16.88a3.44,3.44,0,0,0-3.44-3.44Zm0-29.21a3.45,3.45,0,0,0-3.44,3.44v16.88a3.45,3.45,0,0,0,3.44,3.44h64.47a3.45,3.45,0,0,0,3.44-3.44v-16.88a3.45,3.45,0,0,0-3.44-3.44Z" transform="translate(-7059.64 -7060)"/><line class="cls-7" x1="70.06" y1="169.51" x2="86.93" y2="169.51"/><line class="cls-8" x1="154.78" y1="110.71" x2="171.65" y2="110.71"/><line class="cls-8" x1="154.78" y1="139.51" x2="171.65" y2="139.51"/><line class="cls-8" x1="154.78" y1="169.51" x2="171.65" y2="169.51"/></svg>