<svg id="Layer_8" data-name="Layer 8" xmlns="http://www.w3.org/2000/svg" viewBox="0 0 139.13 77.56"><defs><style>.cls-1{opacity:0.5;}.cls-2{fill:#7f8c8d;}.cls-3,.cls-4{fill:none;stroke-linecap:round;stroke-miterlimit:10;stroke-width:3.6px;}.cls-3{stroke:#7f8c8d;}.cls-4{stroke:#20ee82;}</style></defs><title>Page1_B_01</title><g class="cls-1"><path class="cls-2" d="M7171.13,7182a8,8,0,0,1-5.1,2v2h-2.77v-2a12.4,12.4,0,0,1-5.62-2.08,1.75,1.75,0,0,1-.38-2.54h0a1.72,1.72,0,0,1,2.32-.35,10.14,10.14,0,0,0,3.67,1.63v-5.94a12.36,12.36,0,0,1-4.71-2.12,4.63,4.63,0,0,1-1.57-3.79,5.73,5.73,0,0,1,1.74-4.21,7.46,7.46,0,0,1,4.54-2.07v-1.86H7166v1.89a11.13,11.13,0,0,1,4.89,1.71,1.75,1.75,0,0,1,.48,2.52h0a1.72,1.72,0,0,1-2.32.44,9,9,0,0,0-3.05-1.31v5.73a13.68,13.68,0,0,1,5.2,2.13,4.68,4.68,0,0,1,1.75,4A5.81,5.81,0,0,1,7171.13,7182Zm-9.74-12.25a5.34,5.34,0,0,0,1.86,1v-5.06a3.52,3.52,0,0,0-1.77,1,2.32,2.32,0,0,0-.67,1.63A1.88,1.88,0,0,0,7161.39,7169.7Zm6.95,10a2.37,2.37,0,0,0,.82-1.8,2,2,0,0,0-.72-1.6,6.91,6.91,0,0,0-2.42-1.08v5.42A4,4,0,0,0,7168.34,7179.7Z" transform="translate(-7131.99 -7151.79)"/></g><path class="cls-2" d="M7139.39,7229.35a7.41,7.41,0,0,1-7.4-7.4v-14.07a7.38,7.38,0,0,1,1.9-4.94,7.58,7.58,0,0,1,5.5-2.47h53.72a7,7,0,0,1,5.48,2.44,7.41,7.41,0,0,1,1.92,5v14.07a7.41,7.41,0,0,1-7.4,7.4Zm0-24.34a2.87,2.87,0,0,0-2.87,2.87v14.07a2.87,2.87,0,0,0,2.87,2.87h53.72a2.87,2.87,0,0,0,2.87-2.87v-14.07a2.87,2.87,0,0,0-2.87-2.87Z" transform="translate(-7131.99 -7151.79)"/><path class="cls-2" d="M7210,7229.35a7.41,7.41,0,0,1-7.4-7.4v-14.07a7.38,7.38,0,0,1,1.9-4.94l.18-.2-.18-.2a7.39,7.39,0,0,1-1.9-4.94v-14.07a7.39,7.39,0,0,1,1.9-4.94l.18-.2-.18-.2a7.39,7.39,0,0,1-1.9-4.94V7159.2a7.41,7.41,0,0,1,7.4-7.4h53.72a7.41,7.41,0,0,1,7.4,7.4v14.07a7.38,7.38,0,0,1-1.9,4.94l-.18.2.18.2a7.38,7.38,0,0,1,1.9,4.94v14.07a7.38,7.38,0,0,1-1.9,4.94l-.18.2.18.2a7.38,7.38,0,0,1,1.9,4.94v14.07a7.41,7.41,0,0,1-7.4,7.4Zm0-24.34a2.87,2.87,0,0,0-2.87,2.87v14.07a2.87,2.87,0,0,0,2.87,2.87h53.72a2.87,2.87,0,0,0,2.87-2.87v-14.07a2.87,2.87,0,0,0-2.87-2.87Zm0-24.34a2.87,2.87,0,0,0-2.87,2.87v14.07a2.87,2.87,0,0,0,2.87,2.87h53.72a2.87,2.87,0,0,0,2.87-2.87v-14.07a2.87,2.87,0,0,0-2.87-2.87Zm0-24.34a2.87,2.87,0,0,0-2.87,2.87v14.07a2.87,2.87,0,0,0,2.87,2.87h53.72a2.87,2.87,0,0,0,2.87-2.87V7159.2a2.87,2.87,0,0,0-2.87-2.87Z" transform="translate(-7131.99 -7151.79)"/><line class="cls-3" x1="12.8" y1="63.37" x2="26.85" y2="63.37"/><line class="cls-4" x1="83.4" y1="14.37" x2="97.45" y2="14.37"/><line class="cls-4" x1="83.4" y1="38.37" x2="97.45" y2="38.37"/><line class="cls-4" x1="83.4" y1="63.37" x2="97.45" y2="63.37"/></svg>