<svg id="Layer_6" data-name="Layer 6" xmlns="http://www.w3.org/2000/svg" xmlns:xlink="http://www.w3.org/1999/xlink" viewBox="0 0 280.73 280"><defs><style>.cls-1,.cls-5{fill:none;}.cls-2{clip-path:url(#clip-path);}.cls-3{fill:#f7f9f9;}.cls-4{fill:#7f8c8d;}.cls-5{stroke:#20ee82;stroke-linecap:round;stroke-miterlimit:10;stroke-width:3.6px;}</style><clipPath id="clip-path" transform="translate(-7059.14 -7060.48)"><path class="cls-1" d="M7064.14,7200.48c0,74.56,60.61,135,135.37,135s135.36-60.44,135.36-135-60.61-135-135.36-135-135.37,60.44-135.37,135"/></clipPath></defs><title>Page1_Circle_E_01</title><g class="cls-2"><rect class="cls-3" width="280.73" height="280"/></g><path class="cls-4" d="M7253.46,7237h-7.7v-5.14a7.71,7.71,0,0,0-7.7-7.7h-35V7210h24.29a7.71,7.71,0,0,0,7.7-7.7V7188.2a7.66,7.66,0,0,1,0-10.27v-14.07a7.66,7.66,0,0,1,0-10.27v-14.07a7.71,7.71,0,0,0-7.7-7.7h-53.72a7.71,7.71,0,0,0-7.7,7.7v14.07a7.66,7.66,0,0,1,0,10.27v14.07a7.66,7.66,0,0,1,0,10.27v14.07a7.71,7.71,0,0,0,7.7,7.7h24.29v14.18h-35a7.71,7.71,0,0,0-7.7,7.7V7237h-7.7m63.24,0h-7.7v-7.7h35a2.57,2.57,0,0,1,2.57,2.57V7237h-7.7m-64.84,0h-7.7v-5.14a2.57,2.57,0,0,1,2.57-2.57h35v7.7h-7.7m-19.16-59.06v-14.07a2.57,2.57,0,0,1,2.57-2.57h53.72a2.57,2.57,0,0,1,2.57,2.57v14.07a2.57,2.57,0,0,1-2.57,2.57h-53.72A2.57,2.57,0,0,1,7171.07,7177.93Zm0-38.41a2.57,2.57,0,0,1,2.57-2.57h53.72a2.57,2.57,0,0,1,2.57,2.57v14.07a2.57,2.57,0,0,1-2.57,2.57h-53.72a2.57,2.57,0,0,1-2.57-2.57Zm0,62.75V7188.2a2.57,2.57,0,0,1,2.57-2.57h53.72a2.57,2.57,0,0,1,2.57,2.57v14.07a2.57,2.57,0,0,1-2.57,2.57h-53.72A2.57,2.57,0,0,1,7171.07,7202.27Z" transform="translate(-7059.14 -7060.48)"/><line class="cls-5" x1="119.9" y1="86.01" x2="133.95" y2="86.01"/><path class="cls-4" d="M7158,7236.36a10.14,10.14,0,1,0-.08,20.27h10.14v-10a10.22,10.22,0,0,0-10.06-10.26m6,10.14v6.08h-6.08a6.08,6.08,0,1,1,6.08-6.08" transform="translate(-7059.14 -7060.48)"/><path class="cls-4" d="M7200.67,7236.36a10.14,10.14,0,1,0-.08,20.27h10.14v-10a10.22,10.22,0,0,0-10.06-10.26m6,10.14v6.08h-6.08a6.08,6.08,0,1,1,6.08-6.08" transform="translate(-7059.14 -7060.48)"/><path class="cls-4" d="M7243.34,7236.36a10.14,10.14,0,1,0-.08,20.27h10.14v-10a10.22,10.22,0,0,0-10.06-10.26m6,10.14v6.08h-6.08a6.08,6.08,0,1,1,6.08-6.08" transform="translate(-7059.14 -7060.48)"/><line class="cls-5" x1="119.9" y1="110.01" x2="133.95" y2="110.01"/><line class="cls-5" x1="119.9" y1="134.01" x2="133.95" y2="134.01"/></svg>