<svg id="Layer_11" data-name="Layer 11" xmlns="http://www.w3.org/2000/svg" viewBox="0 0 88.27 104.01"><defs><style>.cls-1{fill:#7f8c8d;}.cls-2{fill:none;stroke:#20ee82;stroke-linecap:round;stroke-miterlimit:10;stroke-width:3px;}</style></defs><title>Page1_E_01</title><path class="cls-1" d="M7246,7226.94h-6.42v-4.28a6.43,6.43,0,0,0-6.42-6.42H7204v-11.81h20.24a6.43,6.43,0,0,0,6.42-6.42v-11.72a6.38,6.38,0,0,1,0-8.56V7166a6.38,6.38,0,0,1,0-8.56v-11.72a6.43,6.43,0,0,0-6.42-6.42H7179.5a6.43,6.43,0,0,0-6.42,6.42v11.72a6.38,6.38,0,0,1,0,8.56v11.72a6.38,6.38,0,0,1,0,8.56V7198a6.43,6.43,0,0,0,6.42,6.42h20.24v11.81h-29.16a6.43,6.43,0,0,0-6.42,6.42v4.28h-6.42m52.7,0H7204v-6.42h29.16a2.14,2.14,0,0,1,2.14,2.14v4.28h-6.42m-54,0h-6.42v-4.28a2.14,2.14,0,0,1,2.14-2.14h29.16v6.42h-6.42m-16-49.22V7166a2.14,2.14,0,0,1,2.14-2.14h44.77a2.14,2.14,0,0,1,2.14,2.14v11.72a2.14,2.14,0,0,1-2.14,2.14H7179.5A2.14,2.14,0,0,1,7177.36,7177.72Zm0-32a2.14,2.14,0,0,1,2.14-2.14h44.77a2.14,2.14,0,0,1,2.14,2.14v11.72a2.14,2.14,0,0,1-2.14,2.14H7179.5a2.14,2.14,0,0,1-2.14-2.14Zm0,52.29v-11.72a2.14,2.14,0,0,1,2.14-2.14h44.77a2.14,2.14,0,0,1,2.14,2.14V7198a2.14,2.14,0,0,1-2.14,2.14H7179.5A2.14,2.14,0,0,1,7177.36,7198Z" transform="translate(-7157.75 -7139.29)"/><line class="cls-2" x1="26.25" y1="12.23" x2="37.96" y2="12.23"/><path class="cls-1" d="M7166.47,7226.41a8.45,8.45,0,1,0-.06,16.89h8.45V7235a8.52,8.52,0,0,0-8.38-8.55m5,8.45v5.07h-5.07a5.07,5.07,0,1,1,5.07-5.07" transform="translate(-7157.75 -7139.29)"/><path class="cls-1" d="M7202,7226.41a8.45,8.45,0,1,0-.06,16.89h8.45V7235a8.52,8.52,0,0,0-8.38-8.55m5,8.45v5.07H7202a5.07,5.07,0,1,1,5.07-5.07" transform="translate(-7157.75 -7139.29)"/><path class="cls-1" d="M7237.58,7226.41a8.45,8.45,0,1,0-.06,16.89H7246V7235a8.52,8.52,0,0,0-8.38-8.55m5,8.45v5.07h-5.07a5.07,5.07,0,1,1,5.07-5.07" transform="translate(-7157.75 -7139.29)"/><line class="cls-2" x1="26.25" y1="32.23" x2="37.96" y2="32.23"/><line class="cls-2" x1="26.25" y1="52.23" x2="37.96" y2="52.23"/></svg>