<svg id="Layer_2" data-name="Layer 2" xmlns="http://www.w3.org/2000/svg" xmlns:xlink="http://www.w3.org/1999/xlink" viewBox="0 0 280.73 280"><defs><style>.cls-1,.cls-6{fill:none;}.cls-2{clip-path:url(#clip-path);}.cls-3{fill:#f7f9f9;}.cls-4{fill:#7f8c8d;}.cls-5{fill:#20ee82;}.cls-6{stroke:#20ee82;stroke-linecap:round;stroke-miterlimit:10;stroke-width:3.6px;}</style><clipPath id="clip-path" transform="translate(-7059.13 -7059.5)"><path class="cls-1" d="M7064.14,7199.5c0,74.39,60.32,134.72,134.84,135h1c74.52-.28,134.85-60.61,134.85-135,0-74.56-60.6-135-135.37-135s-135.36,60.44-135.36,135"/></clipPath></defs><title>Page1_Circle_A_01</title><g class="cls-2"><rect class="cls-3" width="280.73" height="280"/></g><path class="cls-4" d="M7196.26,7249.32v-17.69h12.79a2.4,2.4,0,1,0,0-4.8h-60.54a5.84,5.84,0,0,1-5.84-5.84v-60H7245v10.37a2.38,2.38,0,0,0,2.35,2.38h0a2.38,2.38,0,0,0,2.41-2.37v-17.53a10.64,10.64,0,0,0-10.64-10.64H7202a16.17,16.17,0,0,1-11.88-5.2,16.16,16.16,0,0,0-11.88-5.2h-29.72a10.64,10.64,0,0,0-10.64,10.64V7221a10.64,10.64,0,0,0,10.64,10.64h42.94v17.49m11,11.51H7239a2.4,2.4,0,1,0,0-4.8H7202.7m-17.2,0h-36.83a2.4,2.4,0,1,0,0,4.8h36.63m-36.78-123h27.62a16.16,16.16,0,0,1,11.88,5.2,16.16,16.16,0,0,0,11.88,5.2h39.32a5.84,5.84,0,0,1,5.84,5.84v2.36H7142.67v-12.76a5.84,5.84,0,0,1,5.84-5.84" transform="translate(-7059.13 -7059.5)"/><path class="cls-5" d="M7242.69,7180.44a18.45,18.45,0,0,0-18.43,18.43v3.92a9.07,9.07,0,0,0-6,8.52v22.34a9.06,9.06,0,0,0,9,9h30.77a9.06,9.06,0,0,0,9-9V7211.3a9.07,9.07,0,0,0-6-8.51v-3.92a18.45,18.45,0,0,0-18.43-18.43m-19.63,32.81v-2a4.23,4.23,0,0,1,3.31-4.15l.22,0h32.31a4.26,4.26,0,0,1,3.42,4.17v22.34a4.25,4.25,0,0,1-4.25,4.25H7227.3a4.25,4.25,0,0,1-4.25-4.25v-20.39Zm33.26-10.94h-27.26v-3.45a13.63,13.63,0,0,1,27.26,0Z" transform="translate(-7059.13 -7059.5)"/><line class="cls-6" x1="91.51" y1="89.22" x2="105.57" y2="89.22"/><path class="cls-4" d="M7193.94,7248.27a10,10,0,1,0-.08,19.91h10v-9.83a10,10,0,0,0-9.88-10.08m5.9,10v6h-6a6,6,0,1,1,6-6" transform="translate(-7059.13 -7059.5)"/></svg>