<svg id="Layer_5_copy" data-name="Layer 5 copy" xmlns="http://www.w3.org/2000/svg" xmlns:xlink="http://www.w3.org/1999/xlink" viewBox="0 0 280.73 280"><defs><style>.cls-1,.cls-4{fill:none;}.cls-2{clip-path:url(#clip-path);}.cls-3{fill:#f7f9f9;}.cls-4{stroke:#7f8c8d;stroke-linecap:round;stroke-linejoin:round;stroke-width:4.74px;}.cls-5{opacity:0.5;}.cls-6{fill:#7f8c8d;}.cls-7{fill:#fff;}.cls-8{fill:#20ee82;}</style><clipPath id="clip-path" transform="translate(-7059.64 -7060)"><path class="cls-1" d="M7064.63,7200c0,74.56,60.61,135,135.37,135s135.36-60.44,135.36-135-60.6-135-135.36-135-135.37,60.44-135.37,135"/></clipPath></defs><title>Page1_Circle_D_02</title><g class="cls-2"><rect class="cls-3" width="280.73" height="280"/></g><path class="cls-4" d="M7224.26,7268.76a74.45,74.45,0,0,0,47.8-58.79" transform="translate(-7059.64 -7060)"/><path class="cls-4" d="M7124.94,7187.92a74.38,74.38,0,0,1,147.13,0" transform="translate(-7059.64 -7060)"/><path class="cls-4" d="M7124.94,7210a74.43,74.43,0,0,0,65,62.9" transform="translate(-7059.64 -7060)"/><g class="cls-5"><circle class="cls-4" cx="138.86" cy="86.59" r="8.27"/><path class="cls-4" d="M7147.31,7187.92a52.37,52.37,0,0,1,26.39-35.07" transform="translate(-7059.64 -7060)"/><path class="cls-4" d="M7157.43,7231.39a52.33,52.33,0,0,0,80.36,2.13" transform="translate(-7059.64 -7060)"/><path class="cls-4" d="M7206.71,7147.26a52.28,52.28,0,0,1,43,40.67" transform="translate(-7059.64 -7060)"/></g><path class="cls-6" d="M7198.77,7262.64a10.6,10.6,0,1,0-.08,21.19h10.59v-10.46a10.68,10.68,0,0,0-10.51-10.73m6.28,10.59v6.36h-6.36a6.36,6.36,0,1,1,6.36-6.36" transform="translate(-7059.64 -7060)"/><polygon class="cls-7" points="105.07 146.19 118.26 121.63 167.13 121.63 176.7 157.09 105.07 156.94 105.07 146.19"/><path class="cls-7" d="M7199.54,7197.2a15.23,15.23,0,1,1,15.22-15.23A15.24,15.24,0,0,1,7199.54,7197.2Zm0-17.13a1.9,1.9,0,1,0,1.9,1.9A1.9,1.9,0,0,0,7199.54,7180.07Z" transform="translate(-7059.64 -7060)"/><path class="cls-7" d="M7210.46,7182a10.92,10.92,0,1,0-10.92,10.92A10.93,10.93,0,0,0,7210.46,7182Zm-17.13,0a6.21,6.21,0,1,1,6.21,6.21A6.22,6.22,0,0,1,7193.34,7182Z" transform="translate(-7059.64 -7060)"/><path class="cls-7" d="M7182.14,7231.35a8.21,8.21,0,0,1-8.3-8.3V7210a18.67,18.67,0,0,1,18.64-18.64h14.07a18.65,18.65,0,0,1,18.62,18.64v13.07a8.34,8.34,0,0,1-8.36,8.3ZM7204,7218v-8a6.24,6.24,0,0,1,3-5.36l-.53,0h-14.07a5.14,5.14,0,0,0-.61,0,6.24,6.24,0,0,1,3,5.35v8Z" transform="translate(-7059.64 -7060)"/><path class="cls-7" d="M7206.56,7195.64h-14.07a14.36,14.36,0,0,0-14.34,14.34v13.07a4,4,0,0,0,4,4h34.68a4,4,0,0,0,4.05-4V7210h0A14.34,14.34,0,0,0,7206.56,7195.64Zm-14.07,4.71h14.07a9.62,9.62,0,0,1,9.6,9.63v12.35h-4V7210a1.93,1.93,0,1,0-3.85,0v12.29h-17.74V7210a1.93,1.93,0,0,0-3.85,0v12.29h-3.89V7210A9.64,9.64,0,0,1,7192.49,7200.35Z" transform="translate(-7059.64 -7060)"/><path class="cls-7" d="M7172.47,7195.49a13.86,13.86,0,1,1,13.86-13.86A13.87,13.87,0,0,1,7172.47,7195.49Zm0-15a1.12,1.12,0,1,0,1.12,1.12A1.13,1.13,0,0,0,7172.47,7180.51Z" transform="translate(-7059.64 -7060)"/><path class="cls-7" d="M7182,7181.63a9.55,9.55,0,1,0-9.55,9.55A9.56,9.56,0,0,0,7182,7181.63Zm-15,0a5.43,5.43,0,1,1,5.43,5.43A5.44,5.44,0,0,1,7167,7181.63Z" transform="translate(-7059.64 -7060)"/><path class="cls-7" d="M7157.3,7225.36a7.83,7.83,0,0,1-7.85-7.8v-11.43a16.87,16.87,0,0,1,16.85-16.85h10.9a6.37,6.37,0,0,1,0,12.73h-9.88a6,6,0,0,1,1.69,4.17v6.44h4.43a6.37,6.37,0,1,1,0,12.73Z" transform="translate(-7059.64 -7060)"/><path class="cls-7" d="M7173.44,7216.94h-8.74v-10.75a1.69,1.69,0,0,0-3.37,0v10.75h-3.46v-10.8a8.43,8.43,0,0,1,8.42-8.42h10.9a2.06,2.06,0,0,0,0-4.12h-10.9a12.56,12.56,0,0,0-12.54,12.54v11.43a3.52,3.52,0,0,0,3.54,3.49h16.14a2.06,2.06,0,0,0,0-4.12Z" transform="translate(-7059.64 -7060)"/><path class="cls-7" d="M7226.76,7195.52a13.87,13.87,0,1,1,13.87-13.87A13.89,13.89,0,0,1,7226.76,7195.52Zm0-15a1.13,1.13,0,1,0,1.13,1.13A1.14,1.14,0,0,0,7226.76,7180.52Z" transform="translate(-7059.64 -7060)"/><path class="cls-7" d="M7226.76,7191.22a9.57,9.57,0,1,0-9.57-9.57A9.58,9.58,0,0,0,7226.76,7191.22Zm0-15a5.44,5.44,0,1,1-5.44,5.44A5.45,5.45,0,0,1,7226.76,7176.21Z" transform="translate(-7059.64 -7060)"/><path class="cls-7" d="M7225.73,7225.45a6.37,6.37,0,1,1,0-12.74h4.45v-6.46a6,6,0,0,1,1.7-4.18H7222a6.37,6.37,0,0,1,0-12.74h10.93a16.89,16.89,0,0,1,16.87,16.87v11.46a7.81,7.81,0,0,1-7.8,7.8Z" transform="translate(-7059.64 -7060)"/><path class="cls-7" d="M7232.89,7193.63H7222a2.06,2.06,0,0,0,0,4.13h10.93a8.45,8.45,0,0,1,8.44,8.44V7217h-3.46v-10.77a1.69,1.69,0,0,0-3.38,0V7217h-8.75a2.06,2.06,0,1,0,0,4.13H7242a3.46,3.46,0,0,0,3.5-3.5V7206.2h0A12.58,12.58,0,0,0,7232.89,7193.63Z" transform="translate(-7059.64 -7060)"/><path class="cls-8" d="M7210.46,7182a10.92,10.92,0,1,0-10.92,10.92A10.93,10.93,0,0,0,7210.46,7182Zm-17.13,0a6.21,6.21,0,1,1,6.21,6.21A6.22,6.22,0,0,1,7193.34,7182Z" transform="translate(-7059.64 -7060)"/><path class="cls-8" d="M7206.56,7195.64h-14.07a14.36,14.36,0,0,0-14.34,14.34v13.07a4,4,0,0,0,4,4h34.68a4,4,0,0,0,4.05-4V7210h0A14.34,14.34,0,0,0,7206.56,7195.64Zm-14.07,4.71h14.07a9.62,9.62,0,0,1,9.6,9.63v12.35h-4V7210a1.93,1.93,0,1,0-3.85,0v12.29h-17.74V7210a1.93,1.93,0,0,0-3.85,0v12.29h-3.89V7210A9.64,9.64,0,0,1,7192.49,7200.35Z" transform="translate(-7059.64 -7060)"/><path class="cls-6" d="M7182,7181.63a9.55,9.55,0,1,0-9.55,9.55A9.56,9.56,0,0,0,7182,7181.63Zm-15,0a5.43,5.43,0,1,1,5.43,5.43A5.44,5.44,0,0,1,7167,7181.63Z" transform="translate(-7059.64 -7060)"/><path class="cls-6" d="M7173.44,7216.94h-8.74v-10.75a1.69,1.69,0,0,0-3.37,0v10.75h-3.46v-10.8a8.43,8.43,0,0,1,8.42-8.42h10.9a2.06,2.06,0,0,0,0-4.12h-10.9a12.56,12.56,0,0,0-12.54,12.54v11.43a3.52,3.52,0,0,0,3.54,3.49h16.14a2.06,2.06,0,0,0,0-4.12Z" transform="translate(-7059.64 -7060)"/><path class="cls-6" d="M7226.76,7191.22a9.57,9.57,0,1,0-9.57-9.57A9.58,9.58,0,0,0,7226.76,7191.22Zm0-15a5.44,5.44,0,1,1-5.44,5.44A5.45,5.45,0,0,1,7226.76,7176.21Z" transform="translate(-7059.64 -7060)"/><path class="cls-6" d="M7232.89,7193.63H7222a2.06,2.06,0,0,0,0,4.13h10.93a8.45,8.45,0,0,1,8.44,8.44V7217h-3.46v-10.77a1.69,1.69,0,0,0-3.38,0V7217h-8.75a2.06,2.06,0,1,0,0,4.13H7242a3.46,3.46,0,0,0,3.5-3.5V7206.2h0A12.58,12.58,0,0,0,7232.89,7193.63Z" transform="translate(-7059.64 -7060)"/></svg>