<svg id="Layer_3" data-name="Layer 3" xmlns="http://www.w3.org/2000/svg" xmlns:xlink="http://www.w3.org/1999/xlink" viewBox="0 0 280.73 280"><defs><style>.cls-1,.cls-7,.cls-8{fill:none;}.cls-2{clip-path:url(#clip-path);}.cls-3{fill:#f7f9f9;}.cls-4{opacity:0.5;}.cls-5{opacity:0.3;}.cls-6{fill:#7f8c8d;}.cls-7{stroke:#7f8c8d;}.cls-7,.cls-8{stroke-linecap:round;stroke-miterlimit:10;stroke-width:4.24px;}.cls-8{stroke:#1ED660;}</style><clipPath id="clip-path" transform="translate(-7059.64 -7060)"><path class="cls-1" d="M7199.51,7065c-74.53.26-134.87,60.6-134.87,135,0,74.56,60.6,135,135.37,135s135.36-60.44,135.36-135c0-74.4-60.34-134.74-134.87-135Z"/></clipPath></defs><title>Page1_Circle_B_02</title><g class="cls-2"><rect class="cls-3" width="280.73" height="280"/></g><g class="cls-4"><path class="cls-6" d="M7165,7189.87a9.35,9.35,0,0,1-6,2.3v2.3h-3.26v-2.4a14.59,14.59,0,0,1-6.61-2.45,2.06,2.06,0,0,1-.45-3h0a2,2,0,0,1,2.73-.41,11.94,11.94,0,0,0,4.32,1.92v-7a14.54,14.54,0,0,1-5.54-2.49,5.45,5.45,0,0,1-1.85-4.46,6.74,6.74,0,0,1,2-4.95,8.77,8.77,0,0,1,5.34-2.44v-2.19H7159v2.22a13.1,13.1,0,0,1,5.75,2,2.06,2.06,0,0,1,.57,3h0a2,2,0,0,1-2.73.52,10.59,10.59,0,0,0-3.59-1.55v6.74a16.1,16.1,0,0,1,6.11,2.51,5.51,5.51,0,0,1,2.06,4.66A6.84,6.84,0,0,1,7165,7189.87Zm-11.46-14.42a6.28,6.28,0,0,0,2.19,1.18v-6a4.15,4.15,0,0,0-2.08,1.17,2.73,2.73,0,0,0-.79,1.92A2.21,2.21,0,0,0,7153.56,7175.46Zm8.18,11.76a2.79,2.79,0,0,0,1-2.12,2.32,2.32,0,0,0-.84-1.88A8.13,8.13,0,0,0,7159,7182v6.38A4.75,4.75,0,0,0,7161.73,7187.22Z" transform="translate(-7059.64 -7060)"/></g><path class="cls-6" d="M7125.67,7244.65a8.72,8.72,0,0,1-8.71-8.71v-16.55a8.68,8.68,0,0,1,2.24-5.81,8.92,8.92,0,0,1,6.48-2.91h63.22a8.18,8.18,0,0,1,6.45,2.88,8.72,8.72,0,0,1,2.26,5.84v16.55a8.72,8.72,0,0,1-8.71,8.71Zm0-28.64a3.38,3.38,0,0,0-3.38,3.38v16.55a3.38,3.38,0,0,0,3.38,3.37h63.22a3.38,3.38,0,0,0,3.38-3.37v-16.55a3.38,3.38,0,0,0-3.38-3.38Z" transform="translate(-7059.64 -7060)"/><path class="cls-6" d="M7208.75,7244.65a8.72,8.72,0,0,1-8.71-8.71v-16.55a8.69,8.69,0,0,1,2.24-5.81l.21-.24-.21-.24a8.69,8.69,0,0,1-2.24-5.81v-16.55a8.69,8.69,0,0,1,2.24-5.81l.21-.24-.21-.24a8.69,8.69,0,0,1-2.24-5.81V7162.1a8.72,8.72,0,0,1,8.71-8.71H7272a8.72,8.72,0,0,1,8.71,8.71v16.55a8.69,8.69,0,0,1-2.24,5.81l-.21.24.21.24a8.69,8.69,0,0,1,2.24,5.81v16.55a8.69,8.69,0,0,1-2.24,5.81l-.21.24.21.24a8.68,8.68,0,0,1,2.24,5.81v16.55a8.72,8.72,0,0,1-8.71,8.71Zm0-28.64a3.38,3.38,0,0,0-3.37,3.38v16.55a3.38,3.38,0,0,0,3.37,3.37H7272a3.38,3.38,0,0,0,3.37-3.37v-16.55A3.38,3.38,0,0,0,7272,7216Zm0-28.64a3.38,3.38,0,0,0-3.37,3.37v16.55a3.38,3.38,0,0,0,3.37,3.38H7272a3.38,3.38,0,0,0,3.37-3.38v-16.55a3.38,3.38,0,0,0-3.37-3.37Zm0-28.64a3.38,3.38,0,0,0-3.37,3.38v16.55a3.38,3.38,0,0,0,3.37,3.38H7272a3.38,3.38,0,0,0,3.37-3.38V7162.1a3.38,3.38,0,0,0-3.37-3.38Z" transform="translate(-7059.64 -7060)"/><line class="cls-7" x1="72.38" y1="167.95" x2="88.92" y2="167.95"/><line class="cls-8" x1="155.46" y1="110.29" x2="172" y2="110.29"/><line class="cls-8" x1="155.46" y1="138.53" x2="172" y2="138.53"/><line class="cls-8" x1="155.46" y1="167.95" x2="172" y2="167.95"/></svg>