<svg id="Layer_4" data-name="Layer 4" xmlns="http://www.w3.org/2000/svg" xmlns:xlink="http://www.w3.org/1999/xlink" viewBox="0 0 280.73 280"><defs><style>.cls-1{fill:none;}.cls-2{clip-path:url(#clip-path);}.cls-3{fill:#f7f9f9;}.cls-4{fill:#7f8c8d;}.cls-5{fill:#1ED660;}</style><clipPath id="clip-path" transform="translate(-7059.63 -7059.5)"><path class="cls-1" d="M7064.64,7199.5c0,74.56,60.6,135,135.36,135s135.36-60.44,135.36-135-60.6-135-135.36-135-135.36,60.44-135.36,135"/></clipPath></defs><title>Page1_Circle_C_02</title><g class="cls-2"><rect class="cls-3" width="280.73" height="280"/></g><path class="cls-4" d="M7157.34,7241.88a10.14,10.14,0,1,0-.08,20.27h10.14v-10a10.22,10.22,0,0,0-10.06-10.26m6,10.14v6.08h-6.08a6.08,6.08,0,1,1,6.08-6.08" transform="translate(-7059.63 -7059.5)"/><path class="cls-4" d="M7197.61,7241.88a10.14,10.14,0,1,0-.08,20.27h10.14v-10a10.22,10.22,0,0,0-10.06-10.26m6,10.14v6.08h-6.08a6.08,6.08,0,1,1,6.08-6.08" transform="translate(-7059.63 -7059.5)"/><path class="cls-4" d="M7237.87,7241.88a10.14,10.14,0,1,0-.08,20.27h10.14v-10a10.22,10.22,0,0,0-10.06-10.26m6,10.14v6.08h-6.08a6.08,6.08,0,1,1,6.08-6.08" transform="translate(-7059.63 -7059.5)"/><path class="cls-4" d="M7173.93,7212a2.44,2.44,0,0,0,0,4.89h21.15v13.49h-33.3a7.33,7.33,0,0,0-7.33,7.33v4.89h4.89v-4.89a2.44,2.44,0,0,1,2.44-2.44h33.3v7.33H7200v-7.33h33.3a2.44,2.44,0,0,1,2.44,2.44v4.89h4.89v-4.89a7.33,7.33,0,0,0-7.33-7.33H7200v-13.49H7220a2.44,2.44,0,0,0,0-4.89Z" transform="translate(-7059.63 -7059.5)"/><path class="cls-4" d="M7149.3,7150v45.36a8.92,8.92,0,0,0,8.91,8.91h78.64a8.92,8.92,0,0,0,8.91-8.91V7150a8.92,8.92,0,0,0-8.91-8.91h-7.79l-.43,4.45,0,.44h8.27a4,4,0,0,1,4,4v45.36a4,4,0,0,1-4,4h-78.64a4,4,0,0,1-4-4V7150a4,4,0,0,1,4-4h8.27c-.18-1.91.26,2.66-.48-4.89h-7.79a8.92,8.92,0,0,0-8.91,8.91" transform="translate(-7059.63 -7059.5)"/><path class="cls-5" d="M7171.13,7143.42c.38,3.88.54,5.48,1.07,11.94,1.91,23,2.61,24.44,25.32,37.08,22.71-12.64,23.41-14.08,25.32-37.08.53-6.39.69-8,1.07-11.94-7.37-3.67-9.68-4.59-10.59-12.13a52.89,52.89,0,0,0-31.61,0c-.92,7.66-3.41,8.55-10.59,12.13m15-8.28a48.89,48.89,0,0,1,22.85,0c1.43,6.56,6.17,9.34,9.78,11.16-.3,3.21-.54,6.08-.75,8.66-1.72,20.7-1.79,21.5-20.45,31.89-18.66-10.39-18.73-11.2-20.45-31.89-.21-2.58-.45-5.45-.75-8.66,3.61-1.82,8.35-4.61,9.78-11.16" transform="translate(-7059.63 -7059.5)"/><path class="cls-5" d="M7186.11,7161.5l7.61,7.61,15.23-15.23a2.44,2.44,0,0,0-3.46-3.46l-11.77,11.77-4.16-4.16a2.44,2.44,0,0,0-3.46,3.46" transform="translate(-7059.63 -7059.5)"/></svg>