<?xml version="1.0" encoding="UTF-8"?>
<svg width="370px" height="370px" viewBox="0 0 370 370" version="1.1" xmlns="http://www.w3.org/2000/svg" xmlns:xlink="http://www.w3.org/1999/xlink">
    <!-- Generator: Sketch 48 (47235) - http://www.bohemiancoding.com/sketch -->
    <title>Sia Logo</title>
    <desc>Created with Sketch.</desc>
    <defs></defs>
    <g id="Sia_Token_LP_Visual_Design_Metropolis" stroke="none" stroke-width="1" fill="none" fill-rule="evenodd" transform="translate(-935.000000, -260.000000)">
        <g id="Nav-/-Hero">
            <g id="Hero-/-Header" transform="translate(135.000000, 260.000000)">
                <g id="Sia-Logo" transform="translate(800.000000, 0.000000)">
                    <path d="M182.765919,0.012079158 C145.833277,0.428686852 111.470538,11.7374904 82.7344671,30.8583045 L89.4987956,39.4246461 C117.422604,21.0507677 150.918849,10.4852022 186.861739,10.8870191 C279.640766,11.923608 355.809718,86.4224313 358.802391,179.158318 C362.044042,279.624866 279.622277,362.046631 179.15573,358.802514 C86.4210755,355.808608 11.9234848,279.638424 10.8868958,186.86063 C10.4863115,150.91774 21.051877,117.422727 39.4232903,89.4989189 L30.8581812,82.7345904 C11.7361346,111.470661 0.428563596,145.8334 0.0119559013,182.766042 C-1.12816871,283.811896 79.400373,367.439112 180.62495,369.721826 C286.031627,372.099448 372.100558,286.030517 369.722936,180.62384 C367.437756,79.3992637 283.810541,-1.12927802 182.765919,0.012079158" id="Fill-1" fill="#7F8C8D"></path>
                    <path d="M76.1296328,58.0035004 C76.1296328,68.0144108 68.0144108,76.1296328 58.0035004,76.1296328 C47.9925901,76.1296328 39.877368,68.0144108 39.877368,58.0035004 C39.877368,47.9925901 47.9925901,39.877368 58.0035004,39.877368 C68.0144108,39.877368 76.1296328,47.9925901 76.1296328,58.0035004" id="Fill-4" fill="#20EE82"></path>
                    <path d="M239.262976,184.885071 L239.262976,239.263469 L184.885811,239.263469 C154.85308,239.263469 130.507414,214.91657 130.507414,184.885071 C130.507414,154.85234 154.85308,130.506674 184.885811,130.506674 C214.917309,130.506674 239.262976,154.85234 239.262976,184.885071 M185.571118,94.2581071 C135.203495,93.8846393 94.255149,134.602495 94.255149,184.885071 C94.255149,234.938391 134.831259,275.514501 184.885811,275.514501 L275.51524,275.514501 L275.51524,186.022731 C275.51524,136.049529 235.543088,94.6278773 185.571118,94.2581071" id="Fill-6" fill="#20EE82"></path>
                </g>
            </g>
        </g>
    </g>
</svg>