<?xml version="1.0" encoding="UTF-8"?>
<svg width="40px" height="41px" viewBox="0 0 40 41" version="1.1" xmlns="http://www.w3.org/2000/svg" xmlns:xlink="http://www.w3.org/1999/xlink">
    <!-- Generator: Sketch 48.2 (47327) - http://www.bohemiancoding.com/sketch -->
    <title>FB Social Icon</title>
    <desc>Created with Sketch.</desc>
    <defs></defs>
    <g id="About" stroke="none" stroke-width="1" fill="none" fill-rule="evenodd" transform="translate(-916.000000, -3953.000000)">
        <g id="Contact" transform="translate(0.000000, 3623.000000)" fill="#BFC9CA">
            <path d="M953.792374,330.3125 L918.207626,330.3125 C916.988111,330.3125 916,331.300754 916,332.52011 L916,368.10474 C916,369.323946 916.988111,370.3125 918.207626,370.3125 L937.365266,370.3125 L937.365266,354.822363 L932.152541,354.822363 L932.152541,348.785532 L937.365266,348.785532 L937.365266,344.333594 C937.365266,339.167218 940.520688,336.353977 945.129576,336.353977 C947.337203,336.353977 949.234742,336.518236 949.787773,336.591673 L949.787773,341.99095 L946.591136,341.992449 C944.084663,341.992449 943.599225,343.183479 943.599225,344.931283 L943.599225,348.785532 L949.577201,348.785532 L948.798762,354.822363 L943.599225,354.822363 L943.599225,370.3125 L953.792374,370.3125 C955.011439,370.3125 956,369.323946 956,368.10474 L956,332.52011 C956,331.300754 955.011439,330.3125 953.792374,330.3125" id="FB-Social-Icon"></path>
        </g>
    </g>
</svg>