<?xml version="1.0" encoding="UTF-8"?>
<svg width="41px" height="41px" viewBox="0 0 41 41" version="1.1" xmlns="http://www.w3.org/2000/svg" xmlns:xlink="http://www.w3.org/1999/xlink">
    <!-- Generator: Sketch 52.2 (67145) - http://www.bohemiancoding.com/sketch -->
    <title>Group 4</title>
    <desc>Created with Sketch.</desc>
    <g id="Token-Site-Landing-Page" stroke="none" stroke-width="1" fill="none" fill-rule="evenodd">
        <g id="Sia_Token_LP_Visual_Design_Metropolis" transform="translate(-1232.000000, -7635.000000)">
            <g id="Group-4" transform="translate(1232.000000, 7635.000000)">
                <path d="M20.5390236,40.8740829 C9.49332856,40.8740829 0.539023559,31.9197779 0.539023559,20.8740829 C0.539023559,9.82838789 9.49332856,0.87408289 20.5390236,0.87408289 C31.5847186,0.87408289 40.5390236,9.82838789 40.5390236,20.8740829 C40.5390236,31.9197779 31.5847186,40.8740829 20.5390236,40.8740829 Z M34.2124355,22.6102625 L32.664453,17.8373165 L29.5884828,8.38107851 C29.5178166,8.16334226 29.31495,8.01589916 29.0860335,8.01589916 C28.857117,8.01589916 28.6542504,8.16334226 28.5835842,8.38107851 L25.509549,17.8379615 L15.3031844,17.8379615 L12.2291492,8.38107851 C12.158483,8.16334226 11.9556164,8.01589916 11.7266999,8.01589916 C11.4977833,8.01589916 11.2949167,8.16334226 11.2242506,8.38107851 L8.15150532,17.8379615 L6.60352283,22.6109075 C6.46286545,23.0468371 6.61914403,23.5237472 6.99051845,23.7918892 L20.4063667,33.5415989 L33.8286649,23.7912442 C34.2000393,23.5231022 34.3563178,23.0461921 34.2156605,22.6102625 L34.2124355,22.6102625 Z" id="Combined-Shape" fill="#BFC9CA" fill-rule="nonzero"></path>
                <g id="stacked_wm_grayscale" transform="translate(6.539024, 7.994083)">
                    <polygon id="path50" fill-opacity="0" fill="#5C5C5C" points="13.8673431 25.547516 13.8673431 25.547516 18.9705254 9.84387864 8.76416086 9.84387864"></polygon>
                    <polygon id="path58" fill="#BFC9CA" points="13.8673431 25.547516 8.76416086 9.84387864 1.61248176 9.84387864"></polygon>
                    <path d="M1.61248176,9.84387864 L0.0644992704,14.6168247 C-0.0763721457,15.0527547 0.0799476644,15.5297906 0.451494893,15.7978063 L13.8673431,25.547516 L1.61248176,9.84387864 Z" id="path66" fill-opacity="0" fill="#95A5A6"></path>
                    <path d="M1.61248176,9.84387864 L8.76416086,9.84387864 L5.69012563,0.386995622 C5.61945944,0.169259371 5.41659286,0.0218162651 5.18767632,0.0218162651 C4.95875977,0.0218162651 4.75589319,0.169259371 4.685227,0.386995622 L1.61248176,9.84387864 Z" id="path74" fill-opacity="0" fill="#5C5C5C"></path>
                    <polygon id="path78" fill="#BFC9CA" points="13.8673431 25.547516 18.9705254 9.84387864 26.1222045 9.84387864"></polygon>
                    <path d="M26.1222045,9.84387864 L27.670187,14.6168247 C27.8110584,15.0527547 27.6547386,15.5297906 27.2831914,15.7978063 L13.8673431,25.547516 L26.1222045,9.84387864 Z" id="path82" fill-opacity="0" fill="#95A5A6"></path>
                    <path d="M26.1222045,9.84387864 L18.9705254,9.84387864 L22.0445606,0.386995622 C22.1152268,0.169259371 22.3180934,0.0218162651 22.5470099,0.0218162651 C22.7759265,0.0218162651 22.9787931,0.169259371 23.0494593,0.386995622 L26.1222045,9.84387864 Z" id="path86" fill-opacity="0" fill="#5C5C5C"></path>
                </g>
            </g>
        </g>
    </g>
</svg>