<?xml version="1.0" encoding="UTF-8"?>
<svg width="41px" height="40px" viewBox="0 0 41 40" version="1.1" xmlns="http://www.w3.org/2000/svg" xmlns:xlink="http://www.w3.org/1999/xlink">
    <!-- Generator: Sketch 48.2 (47327) - http://www.bohemiancoding.com/sketch -->
    <title>Github Social Icon</title>
    <desc>Created with Sketch.</desc>
    <defs></defs>
    <g id="About" stroke="none" stroke-width="1" fill="none" fill-rule="evenodd" transform="translate(-855.000000, -3953.000000)">
        <g id="Contact" transform="translate(0.000000, 3623.000000)" fill="#BFC9CA">
            <g id="Github-Social-Icon" transform="translate(855.000000, 330.312500)">
                <path d="M20.36075,-3.55271368e-15 C9.117,-3.55271368e-15 -0.0005,9.11625 -0.0005,20.36375 C-0.0005,29.35875 5.83325,36.99 13.92575,39.68375 C14.9445,39.87 15.31575,39.24125 15.31575,38.70125 C15.31575,38.21875 15.29825,36.9375 15.28825,35.23875 C9.6245,36.46875 8.4295,32.50875 8.4295,32.50875 C7.50325,30.15625 6.16825,29.53125 6.16825,29.53125 C4.3195,28.2675 6.30825,28.2925 6.30825,28.2925 C8.352,28.4375 9.427,30.39125 9.427,30.39125 C11.24325,33.5025 14.192,32.60375 15.35325,32.08375 C15.53825,30.7675 16.06325,29.87 16.64575,29.36125 C12.1245,28.8475 7.37075,27.1 7.37075,19.2975 C7.37075,17.075 8.1645,15.2575 9.467,13.83375 C9.257,13.31875 8.55825,11.24875 9.66575,8.445 C9.66575,8.445 11.37575,7.8975 15.26575,10.5325 C16.8895,10.08 18.632,9.855 20.36325,9.84625 C22.092,9.855 23.8345,10.08 25.46075,10.5325 C29.34825,7.8975 31.0545,8.445 31.0545,8.445 C32.16575,11.24875 31.467,13.31875 31.257,13.83375 C32.562,15.2575 33.35075,17.075 33.35075,19.2975 C33.35075,27.12 28.5895,28.84125 24.05325,29.345 C24.7845,29.97375 25.43575,31.21625 25.43575,33.11625 C25.43575,35.8375 25.41075,38.03375 25.41075,38.70125 C25.41075,39.24625 25.777,39.88 26.81075,39.68125 C34.8945,36.9825 40.7245,29.35625 40.7245,20.36375 C40.7245,9.11625 31.607,-3.55271368e-15 20.36075,-3.55271368e-15" id="Fill-1"></path>
            </g>
        </g>
    </g>
</svg>