<?xml version="1.0" encoding="UTF-8"?>
<svg width="40px" height="41px" viewBox="0 0 40 41" version="1.1" xmlns="http://www.w3.org/2000/svg" xmlns:xlink="http://www.w3.org/1999/xlink">
    <!-- Generator: Sketch 48.2 (47327) - http://www.bohemiancoding.com/sketch -->
    <title>LinkedIn</title>
    <desc>Created with Sketch.</desc>
    <defs></defs>
    <g id="About" stroke="none" stroke-width="1" fill="none" fill-rule="evenodd" transform="translate(-976.000000, -3953.000000)">
        <g id="Contact" transform="translate(0.000000, 3623.000000)" fill="#BFC9CA">
            <path d="M1010.08533,364.396722 L1004.15311,364.396722 L1004.15311,355.1145 C1004.15311,352.900056 1004.11533,350.052278 1001.07089,350.052278 C997.983111,350.052278 997.513111,352.465611 997.513111,354.955611 L997.513111,364.396722 L991.587556,364.396722 L991.587556,345.307833 L997.274222,345.307833 L997.274222,347.917833 L997.355333,347.917833 C998.146444,346.416722 1000.082,344.8345 1002.96867,344.8345 C1008.97533,344.8345 1010.08533,348.786722 1010.08533,353.927833 L1010.08533,364.396722 Z M984.897556,342.700056 C982.992,342.700056 981.455333,341.158944 981.455333,339.258944 C981.455333,337.360056 982.992,335.818944 984.897556,335.818944 C986.795333,335.818944 988.336444,337.360056 988.336444,339.258944 C988.336444,341.158944 986.795333,342.700056 984.897556,342.700056 Z M981.926444,364.396722 L987.865333,364.396722 L987.865333,345.307833 L981.926444,345.307833 L981.926444,364.396722 Z M1013.03978,330.312278 L978.950889,330.312278 C977.323111,330.312278 975.999778,331.603389 975.999778,333.196722 L975.999778,367.426722 C975.999778,369.018944 977.323111,370.312278 978.950889,370.312278 L1013.03978,370.312278 C1014.67089,370.312278 1015.99867,369.018944 1015.99867,367.426722 L1015.99867,333.196722 C1015.99867,331.603389 1014.67089,330.312278 1013.03978,330.312278 Z" id="LinkedIn"></path>
        </g>
    </g>
</svg>