<?xml version="1.0" encoding="UTF-8"?>
<svg width="40px" height="41px" viewBox="0 0 40 41" version="1.1" xmlns="http://www.w3.org/2000/svg" xmlns:xlink="http://www.w3.org/1999/xlink">
    <!-- Generator: Sketch 48.2 (47327) - http://www.bohemiancoding.com/sketch -->
    <title>Twitter Social Icon</title>
    <desc>Created with Sketch.</desc>
    <defs></defs>
    <g id="About" stroke="none" stroke-width="1" fill="none" fill-rule="evenodd" transform="translate(-795.000000, -3953.000000)">
        <g id="Contact" transform="translate(0.000000, 3623.000000)" fill="#BFC9CA" fill-rule="nonzero">
            <path d="M835,350.3125 C835,361.3625 826.05,370.3125 815,370.3125 C803.95,370.3125 795,361.3625 795,350.3125 C795,339.2625 803.95,330.3125 815,330.3125 C826.05,330.3125 835,339.2625 835,350.3125 Z M811.34,360.8625 C820.21,360.8625 825.06,353.5125 825.06,347.1425 C825.06,346.9325 825.06,346.7225 825.05,346.5225 C825.99,345.8425 826.81,344.9925 827.46,344.0225 C826.6,344.4025 825.67,344.6625 824.69,344.7825 C825.69,344.1825 826.45,343.2425 826.81,342.1125 C825.88,342.6625 824.85,343.0625 823.75,343.2825 C822.87,342.3425 821.62,341.7625 820.23,341.7625 C817.57,341.7625 815.41,343.9225 815.41,346.5825 C815.41,346.9625 815.45,347.3325 815.54,347.6825 C811.53,347.4825 807.98,345.5625 805.6,342.6425 C805.19,343.3525 804.95,344.1825 804.95,345.0625 C804.95,346.7325 805.8,348.2125 807.1,349.0725 C806.31,349.0525 805.57,348.8325 804.92,348.4725 C804.92,348.4925 804.92,348.5125 804.92,348.5325 C804.92,350.8725 806.58,352.8125 808.79,353.2625 C808.39,353.3725 807.96,353.4325 807.52,353.4325 C807.21,353.4325 806.91,353.4025 806.61,353.3425 C807.22,355.2625 809,356.6525 811.11,356.6925 C809.46,357.9825 807.38,358.7525 805.12,358.7525 C804.73,358.7525 804.35,358.7325 803.97,358.6825 C806.08,360.0625 808.62,360.8625 811.34,360.8625 Z" id="Twitter-Social-Icon"></path>
        </g>
    </g>
</svg>