<?xml version="1.0" encoding="UTF-8"?>
<svg width="40px" height="41px" viewBox="0 0 40 41" version="1.1" xmlns="http://www.w3.org/2000/svg" xmlns:xlink="http://www.w3.org/1999/xlink">
    <!-- Generator: Sketch 48.2 (47327) - http://www.bohemiancoding.com/sketch -->
    <title>Medium Logo</title>
    <desc>Created with Sketch.</desc>
    <defs></defs>
    <g id="About" stroke="none" stroke-width="1" fill="none" fill-rule="evenodd" transform="translate(-735.000000, -3953.000000)">
        <g id="Contact" transform="translate(0.000000, 3623.000000)" fill-rule="nonzero">
            <g id="Medium-Logo" transform="translate(735.000000, 330.312500)">
                <rect id="Rectangle-path" fill="#BFC9CA" x="0" y="0" width="40" height="40" rx="4"></rect>
                <path d="M9.54545237,13.3775909 C9.57883852,13.0477246 9.45304615,12.7216884 9.20673227,12.4996759 L6.69769446,9.47714014 L6.69769446,9.02564103 L14.4882568,9.02564103 L20.5099476,22.2319902 L25.8040174,9.02564103 L33.2307692,9.02564103 L33.2307692,9.47714014 L31.0855419,11.5339695 C30.9005998,11.6749431 30.8088591,11.9066433 30.8471834,12.1359683 L30.8471834,27.2486472 C30.8088591,27.4779721 30.9005998,27.7096722 31.0855419,27.8506459 L33.1805885,29.9074753 L33.1805885,30.3589744 L22.6426297,30.3589744 L22.6426297,29.9074753 L24.8129475,27.8004794 C25.0262156,27.5872714 25.0262156,27.5245633 25.0262156,27.1984806 L25.0262156,14.9829211 L18.9919797,30.3088078 L18.1765424,30.3088078 L11.1512366,14.9829211 L11.1512366,25.2545259 C11.0926621,25.6863731 11.2360861,26.1211487 11.5401374,26.4334404 L14.3628049,29.8573087 L14.3628049,30.3088078 L6.35897436,30.3088078 L6.35897436,29.8573087 L9.18164189,26.4334404 C9.48347941,26.120631 9.61854027,25.6829713 9.54545237,25.2545259 L9.54545237,13.3775909 Z" id="Shape" fill="#F7F9F9"></path>
            </g>
        </g>
    </g>
</svg>