<svg xmlns="http://www.w3.org/2000/svg" viewBox="0 0 669 669"><defs><style>.cls-1,.cls-5{fill:#fff;}.cls-1{opacity:0;}.cls-2{fill:#7f8c8d;}.cls-3,.cls-5{opacity:0.5;}.cls-4{fill:#20ee82;}</style></defs><title>Page2_Square_B_01</title><g id="Layer_2" data-name="Layer 2"><rect class="cls-1" width="669" height="669"/></g><g id="Layer_3" data-name="Layer 3"><path class="cls-2" d="M7324.94,7191.31V7153.5h36.16v24.57a13.66,13.66,0,0,1-13.64,13.64H7324.9v-7.17h22.56a6.48,6.48,0,0,0,6.47-6.47v-17.4h-21.82v30.64" transform="translate(-6868.5 -6864.5)"/><path class="cls-2" d="M7031.82,7273.06v-37.81H7068v24.57a13.66,13.66,0,0,1-13.64,13.64h-22.56v-7.17h22.56a6.48,6.48,0,0,0,6.47-6.47v-17.4H7039v30.64" transform="translate(-6868.5 -6864.5)"/><path class="cls-2" d="M7052.51,7191.12a19.51,19.51,0,1,1,19.51-19.51A19.53,19.53,0,0,1,7052.51,7191.12Zm0-31.22a11.71,11.71,0,1,0,11.72,11.71A11.73,11.73,0,0,0,7052.51,7159.9Z" transform="translate(-6868.5 -6864.5)"/><path class="cls-2" d="M7343.78,7272.16a19.51,19.51,0,1,1,19.51-19.52A19.54,19.54,0,0,1,7343.78,7272.16Zm0-31.23a11.72,11.72,0,1,0,11.72,11.71A11.73,11.73,0,0,0,7343.78,7240.93Z" transform="translate(-6868.5 -6864.5)"/><g class="cls-3"><path class="cls-2" d="M7101.23,7216h-27.28a3.9,3.9,0,0,1,0-7.79h27.28a3.9,3.9,0,1,1,0,7.79Z" transform="translate(-6868.5 -6864.5)"/></g><path class="cls-4" d="M7054.46,7216h-3.9a3.9,3.9,0,0,1,0-7.79h3.9a3.9,3.9,0,0,1,0,7.79Z" transform="translate(-6868.5 -6864.5)"/><g class="cls-3"><path class="cls-2" d="M7322.34,7216h-27.28a3.9,3.9,0,0,1,0-7.79h27.28a3.9,3.9,0,1,1,0,7.79Z" transform="translate(-6868.5 -6864.5)"/></g><path class="cls-2" d="M7101.23,7175.51h-33.1a3.9,3.9,0,1,1,0-7.79h33.1a3.9,3.9,0,1,1,0,7.79Z" transform="translate(-6868.5 -6864.5)"/><path class="cls-2" d="M7328.16,7175.51h-33.1a3.9,3.9,0,0,1,0-7.79h33.1a3.9,3.9,0,1,1,0,7.79Z" transform="translate(-6868.5 -6864.5)"/><path class="cls-2" d="M7101.23,7256.54h-33.1a3.9,3.9,0,1,1,0-7.79h33.1a3.9,3.9,0,1,1,0,7.79Z" transform="translate(-6868.5 -6864.5)"/><path class="cls-2" d="M7328.16,7256.54h-33.1a3.9,3.9,0,0,1,0-7.79h33.1a3.9,3.9,0,1,1,0,7.79Z" transform="translate(-6868.5 -6864.5)"/><path class="cls-4" d="M7345.73,7216h-3.9a3.9,3.9,0,0,1,0-7.79h3.9a3.9,3.9,0,1,1,0,7.79Z" transform="translate(-6868.5 -6864.5)"/><path class="cls-2" d="M7279.45,7312.76h-27.28a3.9,3.9,0,0,1,0-7.79h27.28a3.9,3.9,0,1,1,0,7.79Z" transform="translate(-6868.5 -6864.5)"/><path class="cls-4" d="M7232.68,7312.76h-3.9a3.9,3.9,0,1,1,0-7.79h3.9a3.9,3.9,0,1,1,0,7.79Z" transform="translate(-6868.5 -6864.5)"/><path class="cls-2" d="M7144.12,7312.76h-27.28a3.9,3.9,0,1,1,0-7.79h27.28a3.9,3.9,0,1,1,0,7.79Z" transform="translate(-6868.5 -6864.5)"/><g class="cls-3"><path class="cls-2" d="M7209,7312.76h-21.81a3.9,3.9,0,0,1,0-7.79H7209a3.9,3.9,0,1,1,0,7.79Z" transform="translate(-6868.5 -6864.5)"/></g><path class="cls-4" d="M7167.5,7312.76h-3.9a3.9,3.9,0,1,1,0-7.79h3.9a3.9,3.9,0,1,1,0,7.79Z" transform="translate(-6868.5 -6864.5)"/><path class="cls-5" d="M7144.06,7162.32a17.27,17.27,0,0,0-13.62,16.79v72.35a17.17,17.17,0,0,0,17.15,17.15h99.67a17.17,17.17,0,0,0,17.15-17.15v-72.35a17.18,17.18,0,0,0-13.83-16.83l-.53-.11H7145Z" transform="translate(-6868.5 -6864.5)"/><path class="cls-2" d="M7295.06,7096.31a18.19,18.19,0,1,0-.14,36.39h18.19v-18a18.34,18.34,0,0,0-18.06-18.42m10.78,18.19v10.92h-10.92a10.92,10.92,0,1,1,10.92-10.92" transform="translate(-6868.5 -6864.5)"/><path class="cls-2" d="M7101.36,7096.31a18.19,18.19,0,1,0-.14,36.39h18.19v-18a18.34,18.34,0,0,0-18.06-18.42m10.78,18.19v10.92h-10.92a10.92,10.92,0,1,1,10.92-10.92" transform="translate(-6868.5 -6864.5)"/><path class="cls-4" d="M7147.6,7277.37a25.94,25.94,0,0,1-25.91-25.91v-72.35a26,26,0,0,1,17.21-24.38l2.25-.81v-15.08a56.29,56.29,0,0,1,112.59,0v15.08l2.25.81a26,26,0,0,1,17.2,24.38v72.35a25.94,25.94,0,0,1-25.91,25.91Zm-3.53-115.05a17.27,17.27,0,0,0-13.62,16.79v72.35a17.17,17.17,0,0,0,17.15,17.15h99.67a17.17,17.17,0,0,0,17.15-17.15v-72.35a17.18,17.18,0,0,0-13.83-16.83l-.53-.11H7145Zm53.37-71a47.59,47.59,0,0,0-47.53,47.53v14.57H7245v-14.57A47.59,47.59,0,0,0,7197.43,7091.32Z" transform="translate(-6868.5 -6864.5)"/><path class="cls-2" d="M7295.06,7289.73a18.19,18.19,0,1,0-.14,36.39h18.19v-18a18.34,18.34,0,0,0-18.06-18.42m10.78,18.19v10.92h-10.92a10.92,10.92,0,1,1,10.92-10.92" transform="translate(-6868.5 -6864.5)"/><path class="cls-2" d="M7101.36,7289.73a18.19,18.19,0,1,0-.14,36.39h18.19v-18a18.34,18.34,0,0,0-18.06-18.42m10.78,18.19v10.92h-10.92a10.92,10.92,0,1,1,10.92-10.92" transform="translate(-6868.5 -6864.5)"/><path class="cls-4" d="M7254.61,7077.47h-3.9a3.9,3.9,0,1,1,0-7.79h3.9a3.9,3.9,0,0,1,0,7.79Z" transform="translate(-6868.5 -6864.5)"/><g class="cls-3"><path class="cls-2" d="M7209,7057.53h-21.81a3.9,3.9,0,0,1,0-7.79H7209a3.9,3.9,0,1,1,0,7.79Z" transform="translate(-6868.5 -6864.5)"/></g><path class="cls-4" d="M7145.57,7077.47h-3.9a3.9,3.9,0,0,1,0-7.79h3.9a3.9,3.9,0,0,1,0,7.79Z" transform="translate(-6868.5 -6864.5)"/><path class="cls-4" d="M7197,7186.48a26.78,26.78,0,1,0-.2,53.55h26.78v-26.44a27,27,0,0,0-26.57-27.11m15.86,26.78v16.07h-16.07a16.07,16.07,0,1,1,16.07-16.07" transform="translate(-6868.5 -6864.5)"/></g></svg>