<svg id="Layer_1" data-name="Layer 1" xmlns="http://www.w3.org/2000/svg" viewBox="0 0 468.3 468.3"><defs><style>.cls-1,.cls-5{fill:#fff;}.cls-1{fill-opacity:0;}.cls-2,.cls-4{fill:#7f8c8d;}.cls-3{fill:#1ED660;}.cls-4,.cls-6{opacity:0.5;}.cls-4{isolation:isolate;}.cls-7{opacity:0.2;}.cls-8{fill:#f7f9f9;}</style></defs><title>Page2_Square_C_02</title><g id="Layer_2" data-name="Layer 2"><rect class="cls-1" width="468.3" height="468.3"/></g><g id="Layer_4" data-name="Layer 4"><path class="cls-2" d="M245.76,450.56A17.27,17.27,0,0,0,263,466.79h72.9V459.9H263a10.34,10.34,0,0,1-10.33-10.33v-4.91A10.34,10.34,0,0,1,263,434.33h72.9v-6.89H263a17.1,17.1,0,0,0-10.33,3.48V337.2A10.34,10.34,0,0,1,263,326.87h3.52V320H263a17.24,17.24,0,0,0-17.22,17.22V450.56Z" transform="translate(-100.35 -100.35)"/><rect class="cls-3" x="163.83" y="343.32" width="21.18" height="6.89" rx="3.44" ry="3.44"/><rect class="cls-4" x="186.91" y="219.35" width="21.18" height="6.89" rx="3.44" ry="3.44"/><rect class="cls-5" x="246.31" y="288.79" width="85.51" height="74.89"/><path class="cls-2" d="M342.77,384.55v82.87h92.48V384.55Zm85.6,6.89V411.5H349.66V391.42Zm-78.71,27h78.71V460.5H349.66Z" transform="translate(-100.35 -100.35)"/><rect class="cls-3" x="311.09" y="297.68" width="6.89" height="6.89"/><g class="cls-6"><path class="cls-2" d="M451.56,370.9H430.83a3.72,3.72,0,0,1,0-7.43h20.73a3.72,3.72,0,0,1,0,7.43Z" transform="translate(-100.35 -100.35)"/></g><path class="cls-3" d="M473.85,370.9h-3.72a3.72,3.72,0,0,1,0-7.43h3.72a3.72,3.72,0,1,1,.38,7.43Z" transform="translate(-100.35 -100.35)"/><g class="cls-6"><path class="cls-2" d="M460.5,450.83H450.18a3.72,3.72,0,0,1-.38-7.43h10.7a3.72,3.72,0,1,1,.38,7.43Z" transform="translate(-100.35 -100.35)"/></g><g class="cls-6"><path class="cls-2" d="M212.65,444.83H228.1a3.72,3.72,0,0,1,.38,7.43H212.65a3.72,3.72,0,0,1-.38-7.43Z" transform="translate(-100.35 -100.35)"/></g><path class="cls-3" d="M190.36,444.83h3.72a3.72,3.72,0,0,1,0,7.43h-3.72a3.72,3.72,0,0,1,0-7.43Z" transform="translate(-100.35 -100.35)"/><g class="cls-7"><path class="cls-2" d="M247.35,224.57h4.89a3.72,3.72,0,0,1,0,7.43h-4.89a3.72,3.72,0,0,1,0-7.43Z" transform="translate(-100.35 -100.35)"/></g><g class="cls-7"><path class="cls-2" d="M485.68,285.5h4.89a3.72,3.72,0,1,1,.38,7.43h-5.27a3.72,3.72,0,0,1-.38-7.43Z" transform="translate(-100.35 -100.35)"/></g><path class="cls-3" d="M288.77,299.22a10.73,10.73,0,0,0-8.45,10.46V336.5A10.7,10.7,0,0,0,291,347.19h120.1A10.7,10.7,0,0,0,421.8,336.5V309.73a10.71,10.71,0,0,0-8.62-10.49l-.29-.06H289.37ZM293.2,292H408.93l7.12.53,1,.38a17.85,17.85,0,0,1,11.82,16.76V336.5a17.83,17.83,0,0,1-17.81,17.81H291A17.83,17.83,0,0,1,273.2,336.5V309.73A17.86,17.86,0,0,1,285,293l1-.38Z" transform="translate(-100.35 -100.35)"/><path class="cls-3" d="M402.5,356.26a17.83,17.83,0,0,1-17.81,17.81h-67.3a17.83,17.83,0,0,1-17.81-17.81h7.12a10.7,10.7,0,0,0,10.69,10.69h67.3a10.7,10.7,0,0,0,10.69-10.69Z" transform="translate(-100.35 -100.35)"/><path class="cls-4" d="M337,274.45a3,3,0,0,1-4.06.22,77.56,77.56,0,0,0-50.09-18.22c-1.87,0-3.77.07-5.66.2l-.64.06c-32.57,2.78-60.87,27-68.84,58.8l-.89,3.54,3.63.37a49.63,49.63,0,0,1,24.34,9.31,3,3,0,0,1,.38,4.5h0a3,3,0,0,1-3.94.35,43.58,43.58,0,0,0-25.72-8.44h-1l-1,.06A43.44,43.44,0,0,0,162.34,369c.24,24,20.41,43,44.41,43h23.16a3,3,0,0,1,3,3h0a3,3,0,0,1-3,3H206.83c-26.94,0-49.69-21.11-50.49-48a49.71,49.71,0,0,1,42.14-50.35l2.19-.32.45-2.17A83.59,83.59,0,0,1,272.84,251l1.57-.19.79-1.37a101,101,0,0,1,188.53,50.39c0,1.19,0,2.4-.07,3.63l-.1,2.64,1.51.34c26.09,5.79,45.27,28.75,45.15,55.48A56.43,56.43,0,0,1,453.86,418h-7.12a3,3,0,0,1-3-3h0a3,3,0,0,1,3-3H453c27.07,0,50-21,51.19-48a50.35,50.35,0,0,0-44.21-52.23l-3.19-.39-.31.09h-.36q-1.36-.07-2.71-.07a50.1,50.1,0,0,0-32.63,12.08l-.56.48-4.26-4.27.64-.56a56,56,0,0,1,36.77-13.75h1.1l3.14.06.11-3.75v-1.8a94.93,94.93,0,0,0-172.85-54.29l-3.27,4.68,5.7.3a84,84,0,0,1,49.47,19.46,3,3,0,0,1,.44,4.22l-.19.21Z" transform="translate(-100.35 -100.35)"/><polygon class="cls-8" points="273.12 156.7 285.51 219.63 306.56 237.02 340.51 222.79 350.73 199.52 346.09 163.56 334.31 149.9 273.12 156.7"/><path class="cls-3" d="M414.57,327.5c-25-13.9-26-15.45-28.19-41.31-.58-6.94-.76-8.79-1.15-12.84l-.07-.74,1.44-.72c7-3.46,9.33-4.63,10.25-12.32l0-.43.42-.12a57.3,57.3,0,0,1,17.56-2.68,56.72,56.72,0,0,1,17.1,2.54l.9.26,0,.43c.93,7.68,3,8.69,10.54,12.46l1.16.57V273c-.42,4.32-.6,6.11-1.18,13.13-2.15,25.86-3.2,27.41-28.19,41.31l-.32.18Zm-22.31-51c.31,3.28.55,6.24.77,8.92v.17c1.93,23.17,2.31,23.51,21.84,34.38,19.9-11.08,20-11.63,21.84-34.38v-.14c.22-2.68.47-5.63.77-8.92-4.63-2.38-9-5.55-10.61-12.12a53.25,53.25,0,0,0-24,0c-1.57,6.6-6,9.76-10.61,12.14Z" transform="translate(-100.35 -100.35)"/><path class="cls-3" d="M385.85,273c.42,4.27.59,6,1.18,13.14,2.1,25.31,2.88,26.89,27.85,40.78,25-13.9,25.75-15.48,27.85-40.78.58-7,.75-8.77,1.18-13.14-8.11-4-10.65-5-11.65-13.34a58.19,58.19,0,0,0-34.77,0C396.5,268.13,393.75,269.12,385.85,273Zm16.47-9.11a53.77,53.77,0,0,1,25.13,0c1.57,7.21,6.78,10.28,10.76,12.28-.33,3.53-.59,6.69-.83,9.52-1.89,22.76-2,23.65-22.5,35.08-20.53-11.43-20.6-12.31-22.5-35.08-.24-2.84-.5-6-.83-9.52,4-2,9.2-5.07,10.77-12.28Z" transform="translate(-100.35 -100.35)"/><path class="cls-3" d="M401.86,293.4a3.35,3.35,0,0,1,4.73-4.73l4.11,4.11,12.48-12.48a3.35,3.35,0,0,1,4.73,4.73l-17.22,17.22Z" transform="translate(-100.35 -100.35)"/><path class="cls-3" d="M402.33,292.93l8.37,8.38,16.75-16.75a2.69,2.69,0,0,0,0-3.8h0a2.69,2.69,0,0,0-3.8,0l-13,13-4.57-4.57a2.69,2.69,0,0,0-3.8,0h0a2.64,2.64,0,0,0-.11,3.76A.09.09,0,0,0,402.33,292.93Z" transform="translate(-100.35 -100.35)"/><path class="cls-3" d="M486.81,456.9a2.55,2.55,0,0,1-2.55-2.55v-4.68h-4.69a2.55,2.55,0,0,1,0-5.1h4.69v-4.68a2.55,2.55,0,0,1,5.1,0v4.68H494a2.55,2.55,0,1,1,0,5.1h-4.68v4.68a2.55,2.55,0,0,1-2.55,2.55Z" transform="translate(-100.35 -100.35)"/><path class="cls-3" d="M171.36,304.27a2.55,2.55,0,0,1-2.55-2.55V297h-4.69a2.55,2.55,0,0,1,0-5.1h4.69v-4.68a2.55,2.55,0,0,1,5.1,0v4.68h4.68a2.55,2.55,0,1,1,0,5.1h-4.68v4.68a2.55,2.55,0,0,1-2.55,2.55Z" transform="translate(-100.35 -100.35)"/></g></svg>