<svg id="Layer_5" data-name="Layer 5" xmlns="http://www.w3.org/2000/svg" viewBox="0 0 388.8 255.78"><defs><style>.cls-1,.cls-4{fill:#7f8c8d;}.cls-2{fill:#20ee82;}.cls-3{opacity:0.5;}.cls-4,.cls-7{opacity:0.2;}.cls-5{fill:#fff;}.cls-6{fill:none;stroke:#20ee82;stroke-linecap:round;stroke-miterlimit:10;stroke-width:6.22px;}</style></defs><title>Page2_E_01</title><path class="cls-1" d="M7299.89,7240.15v17.72H7088.47v-93a9.72,9.72,0,0,1,9.72-9.72h66.73a4.86,4.86,0,0,0,4.86-4.86h0a4.86,4.86,0,0,0-4.86-4.86h-66.73a19.44,19.44,0,0,0-19.44,19.44v102.76a19.44,19.44,0,0,0,19.44,19.44h192a19.44,19.44,0,0,0,19.44-19.44v-27.43a4.8,4.8,0,0,0-4.26-4.78h-.1A4.81,4.81,0,0,0,7299.89,7240.15Zm0,27.44a9.73,9.73,0,0,1-9.72,9.72h-192a9.73,9.73,0,0,1-9.72-9.72Z" transform="translate(-7005.6 -7066.6)"/><path class="cls-1" d="M7156.51,7301.61v6.59h-10.73a4.86,4.86,0,0,0-4.86,4.86h0a4.86,4.86,0,0,0,4.86,4.86h94.37a4.86,4.86,0,0,0,4.86-4.86h0a4.86,4.86,0,0,0-4.86-4.86h-10.73v-6.59a4.86,4.86,0,0,0-4.86-4.86h0a4.86,4.86,0,0,0-4.86,4.86v6.59h-53.46v-6.59a4.86,4.86,0,0,0-4.86-4.86h0A4.86,4.86,0,0,0,7156.51,7301.61Z" transform="translate(-7005.6 -7066.6)"/><path class="cls-2" d="M7262.55,7066.6c-46.14.23-83,38.59-83,84.73v24.84H7169a5.82,5.82,0,0,0-5.14,8.54l29.1,55,29.1-55a5.82,5.82,0,0,0-5.14-8.54H7203.8a4.86,4.86,0,0,0-4.86,4.86h0a4.86,4.86,0,0,0,4.86,4.86h6.65L7193,7218.95l-17.49-33.07h13.74v-34.49c0-40.79,33.37-75.29,74.16-75.07a73.83,73.83,0,0,1,73.33,73.33c.23,40.79-34.28,74.16-75.07,74.16h-33.25a4.86,4.86,0,0,0-4.86,5h0a4.86,4.86,0,0,0,4.86,4.71h33.31c46.14,0,84.5-36.9,84.73-83A83.56,83.56,0,0,0,7262.55,7066.6Z" transform="translate(-7005.6 -7066.6)"/><path class="cls-2" d="M7263,7154.92h30a4.86,4.86,0,0,0,0-9.72h-25.14v-44.58a4.86,4.86,0,0,0-9.72,0v49.44A4.86,4.86,0,0,0,7263,7154.92Z" transform="translate(-7005.6 -7066.6)"/><g class="cls-3"><path class="cls-1" d="M7047.18,7216.33h-10.61a3.82,3.82,0,1,1,0-7.64h10.61a3.82,3.82,0,0,1,0,7.64Z" transform="translate(-7005.6 -7066.6)"/></g><path class="cls-4" d="M7146.38,7102a2.62,2.62,0,0,1-2.62-2.62v-4.82h-4.82a2.62,2.62,0,1,1,0-5.24h4.82v-4.82a2.62,2.62,0,1,1,5.24,0v4.82h4.82a2.62,2.62,0,0,1,0,5.24H7149v4.82A2.62,2.62,0,0,1,7146.38,7102Z" transform="translate(-7005.6 -7066.6)"/><g class="cls-3"><path class="cls-1" d="M7367.66,7239.71h-21.31a3.82,3.82,0,0,1,0-7.64h21.31a3.82,3.82,0,0,1,0,7.64Z" transform="translate(-7005.6 -7066.6)"/></g><path class="cls-2" d="M7390.58,7239.71h-3.82a3.82,3.82,0,0,1,0-7.64h3.82a3.82,3.82,0,0,1,0,7.64Z" transform="translate(-7005.6 -7066.6)"/><g class="cls-3"><path class="cls-1" d="M7080.13,7107.17H7096a3.82,3.82,0,1,1,0,7.64h-15.88a3.82,3.82,0,0,1,0-7.64Z" transform="translate(-7005.6 -7066.6)"/></g><path class="cls-2" d="M7057.21,7107.17H7061a3.82,3.82,0,0,1,0,7.64h-3.82a3.82,3.82,0,0,1,0-7.64Z" transform="translate(-7005.6 -7066.6)"/><path class="cls-5" d="M7021.8,7322.38a12.62,12.62,0,0,1-12.57-12.64v-24a12.64,12.64,0,0,1,3.23-8.43,12.85,12.85,0,0,1,9.34-4.22H7113a11.79,11.79,0,0,1,9.31,4.17,12.69,12.69,0,0,1,3.26,8.47v24a12.62,12.62,0,0,1-12.57,12.64Z" transform="translate(-7005.6 -7066.6)"/><path class="cls-1" d="M7020.42,7322.38a12.8,12.8,0,0,1-12.79-12.79v-24.3a12.74,12.74,0,0,1,3.28-8.52,13.09,13.09,0,0,1,9.5-4.26h92.78a12,12,0,0,1,9.47,4.22,12.8,12.8,0,0,1,3.32,8.57v24.3a12.8,12.8,0,0,1-12.79,12.79Zm0-42a5,5,0,0,0-5,5v24.3a5,5,0,0,0,5,5h92.78a5,5,0,0,0,5-5v-24.3a5,5,0,0,0-5-5Z" transform="translate(-7005.6 -7066.6)"/><line class="cls-6" x1="24.14" y1="231.27" x2="48.41" y2="231.27"/><g class="cls-7"><path class="cls-1" d="M7020,7216.33h-10.61a3.82,3.82,0,0,1,0-7.64H7020a3.82,3.82,0,0,1,0,7.64Z" transform="translate(-7005.6 -7066.6)"/></g><g class="cls-7"><path class="cls-1" d="M7338.7,7301.69h-10.61a3.82,3.82,0,0,1,0-7.64h10.61a3.82,3.82,0,0,1,0,7.64Z" transform="translate(-7005.6 -7066.6)"/></g></svg>