<svg id="Layer_2" data-name="Layer 2" xmlns="http://www.w3.org/2000/svg" viewBox="0 0 331.51 276.39"><defs><style>.cls-1{fill:#7f8c8d;}.cls-2,.cls-4{opacity:0.5;}.cls-3{fill:#20ee82;}.cls-4{fill:#fff;}</style></defs><title>Page2_B_01</title><path class="cls-1" d="M7326.44,7189.81V7152h36.16v24.57a13.66,13.66,0,0,1-13.64,13.64H7326.4V7183H7349a6.48,6.48,0,0,0,6.47-6.47v-17.4h-21.82v30.64" transform="translate(-7033.28 -7048.23)"/><path class="cls-1" d="M7033.32,7271.56v-37.81h36.16v24.57a13.66,13.66,0,0,1-13.64,13.64h-22.56v-7.17h22.56a6.48,6.48,0,0,0,6.47-6.47v-17.4h-21.82v30.64" transform="translate(-7033.28 -7048.23)"/><path class="cls-1" d="M7054,7189.62a19.51,19.51,0,1,1,19.51-19.51A19.53,19.53,0,0,1,7054,7189.62Zm0-31.22a11.71,11.71,0,1,0,11.72,11.71A11.73,11.73,0,0,0,7054,7158.4Z" transform="translate(-7033.28 -7048.23)"/><path class="cls-1" d="M7345.28,7270.66a19.51,19.51,0,1,1,19.51-19.52A19.54,19.54,0,0,1,7345.28,7270.66Zm0-31.23a11.72,11.72,0,1,0,11.72,11.71A11.73,11.73,0,0,0,7345.28,7239.43Z" transform="translate(-7033.28 -7048.23)"/><g class="cls-2"><path class="cls-1" d="M7102.73,7214.52h-27.28a3.9,3.9,0,0,1,0-7.79h27.28a3.9,3.9,0,1,1,0,7.79Z" transform="translate(-7033.28 -7048.23)"/></g><path class="cls-3" d="M7056,7214.52h-3.9a3.9,3.9,0,0,1,0-7.79h3.9a3.9,3.9,0,0,1,0,7.79Z" transform="translate(-7033.28 -7048.23)"/><g class="cls-2"><path class="cls-1" d="M7323.84,7214.52h-27.28a3.9,3.9,0,0,1,0-7.79h27.28a3.9,3.9,0,1,1,0,7.79Z" transform="translate(-7033.28 -7048.23)"/></g><path class="cls-1" d="M7102.73,7174h-33.1a3.9,3.9,0,1,1,0-7.79h33.1a3.9,3.9,0,1,1,0,7.79Z" transform="translate(-7033.28 -7048.23)"/><path class="cls-1" d="M7329.66,7174h-33.1a3.9,3.9,0,0,1,0-7.79h33.1a3.9,3.9,0,1,1,0,7.79Z" transform="translate(-7033.28 -7048.23)"/><path class="cls-1" d="M7102.73,7255h-33.1a3.9,3.9,0,1,1,0-7.79h33.1a3.9,3.9,0,1,1,0,7.79Z" transform="translate(-7033.28 -7048.23)"/><path class="cls-1" d="M7329.66,7255h-33.1a3.9,3.9,0,0,1,0-7.79h33.1a3.9,3.9,0,1,1,0,7.79Z" transform="translate(-7033.28 -7048.23)"/><path class="cls-3" d="M7347.23,7214.52h-3.9a3.9,3.9,0,0,1,0-7.79h3.9a3.9,3.9,0,1,1,0,7.79Z" transform="translate(-7033.28 -7048.23)"/><path class="cls-1" d="M7280.95,7311.26h-27.28a3.9,3.9,0,0,1,0-7.79h27.28a3.9,3.9,0,1,1,0,7.79Z" transform="translate(-7033.28 -7048.23)"/><path class="cls-3" d="M7234.18,7311.26h-3.9a3.9,3.9,0,1,1,0-7.79h3.9a3.9,3.9,0,1,1,0,7.79Z" transform="translate(-7033.28 -7048.23)"/><path class="cls-1" d="M7145.62,7311.26h-27.28a3.9,3.9,0,1,1,0-7.79h27.28a3.9,3.9,0,1,1,0,7.79Z" transform="translate(-7033.28 -7048.23)"/><g class="cls-2"><path class="cls-1" d="M7210.55,7311.26h-21.81a3.9,3.9,0,0,1,0-7.79h21.81a3.9,3.9,0,1,1,0,7.79Z" transform="translate(-7033.28 -7048.23)"/></g><path class="cls-3" d="M7169,7311.26h-3.9a3.9,3.9,0,1,1,0-7.79h3.9a3.9,3.9,0,1,1,0,7.79Z" transform="translate(-7033.28 -7048.23)"/><path class="cls-4" d="M7145.56,7160.82a17.27,17.27,0,0,0-13.62,16.79V7250a17.17,17.17,0,0,0,17.15,17.15h99.67a17.17,17.17,0,0,0,17.15-17.15v-72.35a17.18,17.18,0,0,0-13.83-16.83l-.53-.11h-105Z" transform="translate(-7033.28 -7048.23)"/><path class="cls-1" d="M7296.56,7094.81a18.19,18.19,0,1,0-.14,36.39h18.19v-18a18.34,18.34,0,0,0-18.06-18.42m10.78,18.19v10.92h-10.92a10.92,10.92,0,1,1,10.92-10.92" transform="translate(-7033.28 -7048.23)"/><path class="cls-1" d="M7102.86,7094.81a18.19,18.19,0,1,0-.14,36.39h18.19v-18a18.34,18.34,0,0,0-18.06-18.42m10.78,18.19v10.92h-10.92a10.92,10.92,0,1,1,10.92-10.92" transform="translate(-7033.28 -7048.23)"/><path class="cls-3" d="M7149.1,7275.87a25.94,25.94,0,0,1-25.91-25.91v-72.35a26,26,0,0,1,17.21-24.38l2.25-.81v-15.08a56.29,56.29,0,0,1,112.59,0v15.08l2.25.81a26,26,0,0,1,17.2,24.38V7250a25.94,25.94,0,0,1-25.91,25.91Zm-3.53-115.05a17.27,17.27,0,0,0-13.62,16.79V7250a17.17,17.17,0,0,0,17.15,17.15h99.67a17.17,17.17,0,0,0,17.15-17.15v-72.35a17.18,17.18,0,0,0-13.83-16.83l-.53-.11h-105Zm53.37-71a47.59,47.59,0,0,0-47.53,47.53v14.57h95.07v-14.57A47.59,47.59,0,0,0,7198.93,7089.82Z" transform="translate(-7033.28 -7048.23)"/><path class="cls-1" d="M7296.56,7288.23a18.19,18.19,0,1,0-.14,36.39h18.19v-18a18.34,18.34,0,0,0-18.06-18.42m10.78,18.19v10.92h-10.92a10.92,10.92,0,1,1,10.92-10.92" transform="translate(-7033.28 -7048.23)"/><path class="cls-1" d="M7102.86,7288.23a18.19,18.19,0,1,0-.14,36.39h18.19v-18a18.34,18.34,0,0,0-18.06-18.42m10.78,18.19v10.92h-10.92a10.92,10.92,0,1,1,10.92-10.92" transform="translate(-7033.28 -7048.23)"/><path class="cls-3" d="M7256.11,7076h-3.9a3.9,3.9,0,1,1,0-7.79h3.9a3.9,3.9,0,0,1,0,7.79Z" transform="translate(-7033.28 -7048.23)"/><g class="cls-2"><path class="cls-1" d="M7210.55,7056h-21.81a3.9,3.9,0,0,1,0-7.79h21.81a3.9,3.9,0,1,1,0,7.79Z" transform="translate(-7033.28 -7048.23)"/></g><path class="cls-3" d="M7147.07,7076h-3.9a3.9,3.9,0,0,1,0-7.79h3.9a3.9,3.9,0,0,1,0,7.79Z" transform="translate(-7033.28 -7048.23)"/><path class="cls-3" d="M7198.46,7185a26.78,26.78,0,1,0-.2,53.55H7225v-26.44a27,27,0,0,0-26.57-27.11m15.86,26.78v16.07h-16.07a16.07,16.07,0,1,1,16.07-16.07" transform="translate(-7033.28 -7048.23)"/></svg>