<svg id="Layer_1" data-name="Layer 1" xmlns="http://www.w3.org/2000/svg" viewBox="0 0 468.3 468.3"><defs><style>.cls-1,.cls-2{fill:#fff;}.cls-1{fill-opacity:0;}.cls-3{fill:#1ED660;}.cls-4{fill:#7f8c8d;}</style></defs><title>Page2_Square_A_02</title><g id="Layer_2" data-name="Layer 2"><rect class="cls-1" width="468.3" height="468.3"/></g><g id="Layer_1-2" data-name="Layer 1"><rect class="cls-2" x="148.3" y="229.35" width="30.43" height="37.24"/><rect class="cls-2" x="281.33" y="230.2" width="30.43" height="36.4"/><rect class="cls-2" x="148.45" y="313" width="30.43" height="36.72"/><rect class="cls-2" x="281.29" y="313" width="30.43" height="36.72"/><path class="cls-3" d="M268.5,192.87h25.35a18.82,18.82,0,0,1,13.31,5.51h0a18.82,18.82,0,0,0,13.31,5.51h71.87v4.22h7.8v-12H323.7a18.82,18.82,0,0,1-13.31-5.51h0a18.82,18.82,0,0,0-13.31-5.51H260.7v23h7.8Z" transform="translate(-100.35 -100.35)"/><path class="cls-4" d="M334.35,331.43V280.79H326.5v50.64" transform="translate(-100.35 -100.35)"/><rect class="cls-3" x="226.19" y="164.83" width="7.8" height="7.8"/><path class="cls-3" d="M275.56,296.39h43.18v-7.8H275.56a7,7,0,0,1-7-7V223.76H392.39v57.83a7,7,0,0,1-7,7H342.21v7.8h43.18a14.85,14.85,0,0,0,14.84-14.84V215.92H260.73v65.63A14.85,14.85,0,0,0,275.56,296.39Z" transform="translate(-100.35 -100.35)"/><path class="cls-3" d="M286.76,371.33V323.7H240.92v33.23a14.85,14.85,0,0,0,14.84,14.84h31V364h-31a7,7,0,0,1-7-7h0V331.5H279v39.83" transform="translate(-100.35 -100.35)"/><rect class="cls-3" x="94.16" y="241.36" width="8.11" height="8.11"/><path class="cls-3" d="M374.5,371.33V323.7h45.84v33.23a14.85,14.85,0,0,1-14.84,14.84h-31V364h31a7,7,0,0,0,7-7h0V331.5H382.27v39.83" transform="translate(-100.35 -100.35)"/><rect class="cls-3" x="358.34" y="241.36" width="8.11" height="8.11"/><rect class="cls-4" x="325.42" y="241.34" width="25.04" height="8.14"/><path class="cls-3" d="M286.76,454.13V406.5H240.92v33.23a14.85,14.85,0,0,0,14.84,14.84h31v-7.8h-31a7,7,0,0,1-7-7h0V414.3H279v39.83" transform="translate(-100.35 -100.35)"/><rect class="cls-3" x="94.16" y="324.16" width="8.11" height="8.11"/><path class="cls-3" d="M374.5,454.13V406.5h45.84v33.23a14.85,14.85,0,0,1-14.84,14.84h-31v-7.8h31a7,7,0,0,0,7-7h0V414.3H382.27v39.83" transform="translate(-100.35 -100.35)"/><rect class="cls-3" x="358.34" y="324.16" width="8.11" height="8.11"/><rect class="cls-3" x="292.49" y="392.21" width="8.11" height="8.11"/><rect class="cls-4" x="325.42" y="324.14" width="25.04" height="8.14"/><rect class="cls-4" x="192.15" y="324.14" width="75.43" height="8.14"/><rect class="cls-4" x="110.14" y="324.14" width="25.04" height="8.14"/><rect class="cls-4" x="292.48" y="276.09" width="8.14" height="25.04"/><rect class="cls-4" x="159.28" y="276.09" width="8.14" height="25.04"/><rect class="cls-4" x="292.48" y="360.69" width="8.14" height="25.04"/><rect class="cls-4" x="159.28" y="360.69" width="8.14" height="25.04"/><rect class="cls-3" x="159.29" y="392.21" width="8.11" height="8.11"/><path class="cls-4" d="M330.87,329.82a14.93,14.93,0,1,0-.11,29.86h14.93V344.94a15.05,15.05,0,0,0-14.82-15.12m8.85,14.93v9h-9a9,9,0,1,1,9-9h0" transform="translate(-100.35 -100.35)"/><rect class="cls-4" x="110.14" y="241.34" width="25.04" height="8.14"/><rect class="cls-4" x="191.17" y="241.34" width="25.04" height="8.14"/><rect class="cls-4" x="243.37" y="241.34" width="25.04" height="8.14"/></g></svg>