<svg id="Layer_3" data-name="Layer 3" xmlns="http://www.w3.org/2000/svg" viewBox="0 0 353.89 268.56"><defs><style>.cls-1,.cls-3{fill:#7f8c8d;}.cls-2{fill:#20ee82;}.cls-3,.cls-5{opacity:0.5;}.cls-4{fill:#fff;}.cls-6{opacity:0.2;}.cls-7{fill:#f7f9f9;}</style></defs><title>Page2_C_01</title><path class="cls-1" d="M7101.26,7298.06a17.27,17.27,0,0,0,17.22,16.23h72.9v-6.89h-72.9a10.34,10.34,0,0,1-10.33-10.33v-4.91a10.34,10.34,0,0,1,10.33-10.33h72.9v-6.89h-72.9a17.1,17.1,0,0,0-10.33,3.48V7184.7a10.34,10.34,0,0,1,10.33-10.33H7122v-6.89h-3.54a17.24,17.24,0,0,0-17.22,17.22v113.36Z" transform="translate(-7011.8 -7046.36)"/><rect class="cls-2" x="107.89" y="244.81" width="21.18" height="6.89" rx="3.44" ry="3.44"/><rect class="cls-3" x="130.96" y="120.84" width="21.18" height="6.89" rx="3.44" ry="3.44"/><rect class="cls-4" x="190.36" y="190.28" width="85.51" height="74.89"/><path class="cls-1" d="M7198.27,7232.05v82.87h92.48v-82.87h-92.48Zm85.6,6.89V7259h-78.71v-20.08Zm-78.71,27h78.71V7308h-78.71Z" transform="translate(-7011.8 -7046.36)"/><rect class="cls-2" x="255.15" y="199.17" width="6.89" height="6.89"/><g class="cls-5"><path class="cls-1" d="M7307.06,7218.4h-20.73a3.72,3.72,0,0,1,0-7.43h20.73a3.72,3.72,0,0,1,0,7.43Z" transform="translate(-7011.8 -7046.36)"/></g><path class="cls-2" d="M7329.35,7218.4h-3.72a3.72,3.72,0,0,1,0-7.43h3.72a3.72,3.72,0,1,1,0,7.43Z" transform="translate(-7011.8 -7046.36)"/><g class="cls-5"><path class="cls-1" d="M7316,7298.33h-10.32a3.72,3.72,0,1,1,0-7.43H7316a3.72,3.72,0,1,1,0,7.43Z" transform="translate(-7011.8 -7046.36)"/></g><g class="cls-5"><path class="cls-1" d="M7068.15,7292.33h15.45a3.72,3.72,0,1,1,0,7.43h-15.45a3.72,3.72,0,1,1,0-7.43Z" transform="translate(-7011.8 -7046.36)"/></g><path class="cls-2" d="M7045.86,7292.33h3.72a3.72,3.72,0,0,1,0,7.43h-3.72a3.72,3.72,0,0,1,0-7.43Z" transform="translate(-7011.8 -7046.36)"/><g class="cls-6"><path class="cls-1" d="M7102.85,7072.07h4.89a3.72,3.72,0,0,1,0,7.43h-4.89a3.72,3.72,0,0,1,0-7.43Z" transform="translate(-7011.8 -7046.36)"/></g><g class="cls-6"><path class="cls-1" d="M7341.18,7133h4.89a3.72,3.72,0,1,1,0,7.43h-4.89a3.72,3.72,0,1,1,0-7.43Z" transform="translate(-7011.8 -7046.36)"/></g><path class="cls-2" d="M7144.27,7146.72a10.73,10.73,0,0,0-8.45,10.46V7184a10.7,10.7,0,0,0,10.69,10.69h120.1A10.7,10.7,0,0,0,7277.3,7184v-26.77a10.71,10.71,0,0,0-8.62-10.49l-.29-.06H7144.87Zm4.43-7.21h115.73l7.12.53,1.05.38a17.85,17.85,0,0,1,11.82,16.76V7184a17.83,17.83,0,0,1-17.81,17.81h-120.1A17.83,17.83,0,0,1,7128.7,7184v-26.77a17.86,17.86,0,0,1,11.83-16.76l1.05-.38Z" transform="translate(-7011.8 -7046.36)"/><path class="cls-2" d="M7258,7203.76a17.83,17.83,0,0,1-17.81,17.81h-67.3a17.83,17.83,0,0,1-17.81-17.81h7.12a10.7,10.7,0,0,0,10.69,10.69h67.3a10.7,10.7,0,0,0,10.69-10.69Z" transform="translate(-7011.8 -7046.36)"/><path class="cls-3" d="M7192.48,7121.95a3,3,0,0,1-4.06.22,77.56,77.56,0,0,0-50.09-18.22c-1.87,0-3.77.07-5.66.2l-.64.06c-32.57,2.78-60.87,27-68.84,58.8l-.89,3.54,3.63.37a49.63,49.63,0,0,1,24.34,9.31,3,3,0,0,1,.38,4.5h0a3,3,0,0,1-3.94.35,43.58,43.58,0,0,0-25.72-8.44h-1.05l-1,.06a43.44,43.44,0,0,0-41.1,43.78c.24,24,20.41,43,44.41,43h23.16a3,3,0,0,1,3,3h0a3,3,0,0,1-3,3h-23.08c-26.94,0-49.69-21.11-50.49-48a49.71,49.71,0,0,1,42.14-50.35l2.19-.32.45-2.17a83.59,83.59,0,0,1,71.72-66.14l1.57-.19.79-1.37a101,101,0,0,1,188.53,50.39c0,1.19,0,2.4-.07,3.63l-.1,2.64,1.51.34c26.09,5.79,45.27,28.75,45.15,55.48a56.43,56.43,0,0,1-56.36,56.1h-7.12a3,3,0,0,1-3-3h0a3,3,0,0,1,3-3h6.22c27.07,0,50-21,51.19-48a50.35,50.35,0,0,0-44.21-52.23l-3.19-.39-.31.09-.36,0q-1.36-.07-2.71-.07a50.1,50.1,0,0,0-32.63,12.08l-.56.48-4.26-4.27.64-.56a56,56,0,0,1,36.77-13.75h1.1l3.14.06.11-3.75c0-.61,0-1.21,0-1.8a94.93,94.93,0,0,0-172.85-54.29l-3.27,4.68,5.7.3a84,84,0,0,1,49.47,19.46,3,3,0,0,1,.25,4.43Z" transform="translate(-7011.8 -7046.36)"/><polygon class="cls-7" points="217.18 58.19 229.56 121.13 250.61 138.51 284.56 124.28 294.79 101.01 290.14 65.05 278.37 51.39 217.18 58.19"/><path class="cls-2" d="M7270.07,7175c-25-13.9-26-15.45-28.19-41.31-.58-6.94-.76-8.79-1.15-12.84l-.07-.74,1.44-.72c7-3.46,9.33-4.63,10.25-12.32l.05-.43.42-.12a57.31,57.31,0,0,1,17.56-2.68,56.72,56.72,0,0,1,17.1,2.54l.9.26.05.43c.93,7.68,3,8.69,10.54,12.46l1.16.57,0,.45c-.42,4.32-.6,6.11-1.18,13.13-2.15,25.86-3.2,27.41-28.19,41.31l-.32.18Zm-22.31-50.95c.31,3.28.55,6.24.77,8.92v.17c1.93,23.17,2.31,23.51,21.84,34.38,19.9-11.08,19.95-11.63,21.84-34.38V7133c.22-2.68.47-5.63.77-8.92-4.63-2.38-9-5.55-10.61-12.12a53.26,53.26,0,0,0-24,0C7256.8,7118.56,7252.38,7121.72,7247.76,7124.1Z" transform="translate(-7011.8 -7046.36)"/><path class="cls-2" d="M7241.35,7120.55c.42,4.27.59,6,1.18,13.14,2.1,25.31,2.88,26.89,27.85,40.78,25-13.9,25.75-15.48,27.85-40.78.58-7,.75-8.77,1.18-13.14-8.11-4-10.65-5-11.65-13.34a58.19,58.19,0,0,0-34.77,0C7252,7115.63,7249.25,7116.62,7241.35,7120.55Zm16.47-9.11a53.77,53.77,0,0,1,25.13,0c1.57,7.21,6.78,10.28,10.76,12.28-.33,3.53-.59,6.69-.83,9.52-1.89,22.76-2,23.65-22.5,35.08-20.53-11.43-20.6-12.31-22.5-35.08-.24-2.84-.5-6-.83-9.52C7251,7121.71,7256.25,7118.65,7257.82,7111.44Z" transform="translate(-7011.8 -7046.36)"/><path class="cls-2" d="M7257.36,7140.9a3.35,3.35,0,0,1,4.73-4.73l4.11,4.11,12.48-12.48a3.35,3.35,0,0,1,4.73,4.73l-17.22,17.22Z" transform="translate(-7011.8 -7046.36)"/><path class="cls-2" d="M7257.83,7140.43l8.37,8.38,16.75-16.75a2.69,2.69,0,0,0,0-3.8h0a2.69,2.69,0,0,0-3.8,0l-12.95,12.95-4.57-4.57a2.69,2.69,0,0,0-3.8,0h0A2.69,2.69,0,0,0,7257.83,7140.43Z" transform="translate(-7011.8 -7046.36)"/><path class="cls-2" d="M7342.31,7304.4a2.55,2.55,0,0,1-2.55-2.55v-4.68h-4.69a2.55,2.55,0,0,1,0-5.1h4.69v-4.68a2.55,2.55,0,1,1,5.1,0v4.68h4.68a2.55,2.55,0,0,1,0,5.1h-4.68v4.68A2.55,2.55,0,0,1,7342.31,7304.4Z" transform="translate(-7011.8 -7046.36)"/><path class="cls-2" d="M7026.86,7151.77a2.55,2.55,0,0,1-2.55-2.55v-4.68h-4.69a2.55,2.55,0,0,1,0-5.1h4.69v-4.68a2.55,2.55,0,1,1,5.1,0v4.68h4.68a2.55,2.55,0,0,1,0,5.1h-4.68v4.68A2.55,2.55,0,0,1,7026.86,7151.77Z" transform="translate(-7011.8 -7046.36)"/></svg>