<svg id="Layer_1" data-name="Layer 1" xmlns="http://www.w3.org/2000/svg" viewBox="0 0 468.3 468.3"><defs><style>.cls-1{fill:#fff;fill-opacity:0;}.cls-2{fill:#20ee82;}.cls-3{fill:none;stroke:#7f8c8d;stroke-linecap:round;stroke-miterlimit:10;stroke-width:6.93px;opacity:0.3;isolation:isolate;}.cls-4{fill:#7f8c8d;}.cls-5{opacity:0.5;}.cls-6{opacity:0.2;}</style></defs><title>Page2_Square_D_02</title><g id="Layer_2" data-name="Layer 2"><rect class="cls-1" width="468.3" height="468.3"/></g><g id="Layer_5" data-name="Layer 5"><path class="cls-2" d="M209.89,270.38a2.62,2.62,0,0,1-2.62-2.62h0v-4.81H202.5a2.62,2.62,0,1,1,0-5.24h4.82V252.9a2.62,2.62,0,1,1,5.24,0v4.81h4.81a2.62,2.62,0,1,1,0,5.24H212.5v4.81A2.62,2.62,0,0,1,209.89,270.38Z" transform="translate(-100.35 -100.35)"/><path class="cls-2" d="M447.36,418a2.62,2.62,0,0,1-2.62-2.62h0v-4.81h-4.82a2.62,2.62,0,0,1,0-5.24h4.82v-4.81a2.62,2.62,0,0,1,5.24,0v4.81h4.81a2.62,2.62,0,0,1,0,5.24H450v4.81a2.62,2.62,0,0,1-2.62,2.62Z" transform="translate(-100.35 -100.35)"/><path class="cls-3" d="M435.73,334.5a101,101,0,0,1-60.44,77.57" transform="translate(-100.35 -100.35)"/><path class="cls-3" d="M236.08,332.83a101.78,101.78,0,0,1-.92-13.65,100.76,100.76,0,0,1,44.47-83.64" transform="translate(-100.35 -100.35)"/><circle class="cls-4" cx="205.05" cy="309.77" r="7.41"/><path class="cls-4" d="M361.13,472.65H184.29a3.83,3.83,0,0,1,0-7.65h173V355.24h-69a3.83,3.83,0,0,1-.39-7.65h73.2a3.82,3.82,0,0,1,3.83,3.81V468.83A3.82,3.82,0,0,1,361.13,472.65Z" transform="translate(-100.35 -100.35)"/><g class="cls-5"><path class="cls-4" d="M327.39,455.44H211.07a3.83,3.83,0,1,1-.39-7.65H323.92a20.42,20.42,0,0,1,16.17-16.17v-43a20.42,20.42,0,0,1-16.17-16.17H271.1a3.83,3.83,0,0,1-.39-7.65h56.67a3.83,3.83,0,0,1,3.83,3.83h0a12.72,12.72,0,0,0,12.71,12.71,3.82,3.82,0,0,1,3.83,3.81v49.94a3.82,3.82,0,0,1-3.81,3.83h0a12.72,12.72,0,0,0-12.71,12.71A3.83,3.83,0,0,1,327.39,455.44Z" transform="translate(-100.35 -100.35)"/></g><g class="cls-6"><path class="cls-4" d="M129,472.65H111.58a3.83,3.83,0,0,1,0-7.65H129a3.83,3.83,0,1,1,.39,7.65Z" transform="translate(-100.35 -100.35)"/></g><g class="cls-5"><path class="cls-4" d="M162.34,472.65H146.88a3.83,3.83,0,0,1,0-7.65h15.46a3.83,3.83,0,0,1,0,7.65Z" transform="translate(-100.35 -100.35)"/></g><path class="cls-2" d="M194.32,431.82H135.64a3.83,3.83,0,0,1,0-7.65h58.68a3.83,3.83,0,0,1,0,7.65Z" transform="translate(-100.35 -100.35)"/><path class="cls-2" d="M176.29,391.24h-12a3.83,3.83,0,0,1,0-7.65h12a3.83,3.83,0,0,1,.39,7.65Z" transform="translate(-100.35 -100.35)"/><g class="cls-5"><path class="cls-4" d="M233.19,391.24H196.85a3.83,3.83,0,0,1,0-7.65h36.34a3.83,3.83,0,0,1,0,7.65Z" transform="translate(-100.35 -100.35)"/></g><path class="cls-4" d="M260.7,355.24H185.38a3.83,3.83,0,0,1-.39-7.65H260.7a3.83,3.83,0,0,1,0,7.65Z" transform="translate(-100.35 -100.35)"/><circle class="cls-4" cx="256.85" cy="160.57" r="7.41"/><path class="cls-4" d="M301.5,198.39H478.3a3.83,3.83,0,1,1,.39,7.65H305.3V315.8h69a3.83,3.83,0,0,1,0,7.65H301.5a3.82,3.82,0,0,1-3.83-3.81V202.21a3.82,3.82,0,0,1,3.82-3.82Z" transform="translate(-100.35 -100.35)"/><g class="cls-5"><path class="cls-4" d="M335.21,215.6H451.5a3.83,3.83,0,0,1,0,7.65H338.68a20.42,20.42,0,0,1-16.17,16.17v43a20.42,20.42,0,0,1,16.17,16.17H391.5a3.83,3.83,0,0,1,0,7.65H335.22a3.83,3.83,0,0,1-3.83-3.83h0a12.72,12.72,0,0,0-12.71-12.71,3.82,3.82,0,0,1-3.83-3.81V235.95a3.82,3.82,0,0,1,3.81-3.83h0a12.72,12.72,0,0,0,12.71-12.71A3.83,3.83,0,0,1,335.21,215.6Z" transform="translate(-100.35 -100.35)"/></g><path class="cls-2" d="M533.65,198.39H551a3.83,3.83,0,0,1,.39,7.65H533.65a3.83,3.83,0,0,1,0-7.65Z" transform="translate(-100.35 -100.35)"/><g class="cls-5"><path class="cls-4" d="M500.25,198.39h15.46a3.83,3.83,0,0,1,0,7.65H500.25a3.83,3.83,0,0,1-.39-7.65Z" transform="translate(-100.35 -100.35)"/></g><path class="cls-2" d="M468.28,239.22H527a3.83,3.83,0,1,1,.39,7.65H468.28a3.83,3.83,0,0,1,0-7.65Z" transform="translate(-100.35 -100.35)"/><path class="cls-2" d="M486.31,279.8h12a3.83,3.83,0,0,1,0,7.65h-12a3.83,3.83,0,0,1,0-7.65Z" transform="translate(-100.35 -100.35)"/><g class="cls-5"><path class="cls-4" d="M429.41,279.8h36.34a3.83,3.83,0,0,1,0,7.65H429.41a3.83,3.83,0,0,1,0-7.65Z" transform="translate(-100.35 -100.35)"/></g><path class="cls-4" d="M401.9,315.8h75.32a3.83,3.83,0,0,1,0,7.65H401.9a3.83,3.83,0,0,1-.39-7.65Z" transform="translate(-100.35 -100.35)"/><path class="cls-4" d="M399.83,242.5a17.82,17.82,0,0,0-.13,35.64h17.8v-17.6a18,18,0,0,0-17.69-18m10.56,17.82V271H399.7a10.69,10.69,0,1,1,10.69-10.69h0" transform="translate(-100.35 -100.35)"/><path class="cls-4" d="M262.67,392.3a17.82,17.82,0,0,0-.13,35.64h17.82v-17.6a18,18,0,0,0-17.69-18m10.56,17.82v10.69H262.5a10.69,10.69,0,1,1,10.69-10.69h0" transform="translate(-100.35 -100.35)"/></g></svg>