<svg id="Layer_1" data-name="Layer 1" xmlns="http://www.w3.org/2000/svg" viewBox="0 0 468.3 468.3"><defs><style>.cls-1,.cls-9{fill:#fff;}.cls-1{fill-opacity:0;}.cls-2{fill:#1ED660;}.cls-3,.cls-8{opacity:0.2;}.cls-4,.cls-6,.cls-8{fill:#7f8c8d;}.cls-5,.cls-6{opacity:0.5;}.cls-6,.cls-8{isolation:isolate;}.cls-7{fill:#ecf0f1;}</style></defs><title>Page2_Square_F_02</title><g id="Layer_2" data-name="Layer 2"><rect class="cls-1" width="468.3" height="468.3"/></g><g id="Layer_7" data-name="Layer 7"><path class="cls-2" d="M419.74,441.62h4a4.05,4.05,0,0,1,0,8.11h-4a4.05,4.05,0,0,1,0-8.11Z" transform="translate(-100.35 -100.35)"/><g class="cls-3"><path class="cls-4" d="M482.19,264.35h5.31a4.05,4.05,0,0,1,0,8.11h-5.33a4.05,4.05,0,0,1,0-8.11Z" transform="translate(-100.35 -100.35)"/></g><g class="cls-3"><path class="cls-4" d="M158.41,452.23h12.53a4.05,4.05,0,0,1,0,8.11H158.41a4.05,4.05,0,0,1,0-8.11Z" transform="translate(-100.35 -100.35)"/></g><g class="cls-5"><path class="cls-4" d="M480.32,301.83H457.71a4.05,4.05,0,1,1,0-8.11h22.61a4.05,4.05,0,0,1,0,8.11Z" transform="translate(-100.35 -100.35)"/></g><path class="cls-2" d="M504.64,301.83h-4a4.05,4.05,0,1,1,0-8.11h4a4.05,4.05,0,1,1,0,8.11Z" transform="translate(-100.35 -100.35)"/><path class="cls-2" d="M419.74,467.5h4a4.05,4.05,0,0,1,0,8.11h-4a4.05,4.05,0,0,1,0-8.11Z" transform="translate(-100.35 -100.35)"/><path class="cls-2" d="M203.74,441.62h4a4.05,4.05,0,0,1,0,8.11h-4a4.05,4.05,0,0,1,0-8.11Z" transform="translate(-100.35 -100.35)"/><path class="cls-2" d="M203.74,467.5h4a4.05,4.05,0,0,1,0,8.11h-4a4.05,4.05,0,0,1,0-8.11Z" transform="translate(-100.35 -100.35)"/><path class="cls-2" d="M171.73,299a2.78,2.78,0,0,1-2.78-2.78v-5.11h-5.11a2.78,2.78,0,0,1,0-5.56H169v-5.11a2.78,2.78,0,1,1,5.56,0v5.11h5.11a2.78,2.78,0,1,1,0,5.56H174.5v5.11A2.78,2.78,0,0,1,171.73,299Z" transform="translate(-100.35 -100.35)"/><path class="cls-6" d="M377.4,327.35v90.4H478.3v-90.4Zm93.38,7.51v21.9H384.91v-21.9Zm-85.87,29.41h85.87v46H384.91Z" transform="translate(-100.35 -100.35)"/><path class="cls-6" d="M153,327.35v90.4H253.9v-90.4Zm93.38,7.51v21.9H160.5v-21.9ZM160.5,364.27h85.87v46H160.5Z" transform="translate(-100.35 -100.35)"/><rect class="cls-2" x="127.57" y="241.7" width="7.51" height="7.51"/><rect class="cls-7" x="206.49" y="169.71" width="122.97" height="122.97" rx="27.33" ry="27.33"/><rect class="cls-7" x="96.1" y="169.71" width="122.97" height="122.97" rx="27.33" ry="27.33"/><path class="cls-8" d="M458.94,467.5a2.78,2.78,0,0,1-2.78-2.78v-5.11h-5.11a2.78,2.78,0,0,1,0-5.56h5.11v-5.11a2.78,2.78,0,1,1,5.56,0v5.11h5.11a2.78,2.78,0,1,1,0,5.56h-5.11v5.11a2.78,2.78,0,0,1-2.78,2.78Z" transform="translate(-100.35 -100.35)"/><path class="cls-2" d="M214.25,237.5V213.7H261a27.28,27.28,0,0,1,19.29,8h0a27.28,27.28,0,0,0,19.29,8H412.4v7.8h7.93V221.78H302.89a27.28,27.28,0,0,1-19.29-8h0a27.28,27.28,0,0,0-19.29-8h-58V237.5Z" transform="translate(-100.35 -100.35)"/><path class="cls-2" d="M206.32,245.41V364.3a19.84,19.84,0,0,0,19.82,19.82H400.5a19.84,19.84,0,0,0,19.82-19.82V245.41Zm206.08,7.93v111a11.9,11.9,0,0,1-11.89,11.89H226.14a11.9,11.9,0,0,1-11.89-11.89v-111Z" transform="translate(-100.35 -100.35)"/><path class="cls-4" d="M369,295.84a18.92,18.92,0,1,0-.14,37.84h18.92V315A19.07,19.07,0,0,0,369,295.84m11.21,18.92v11.35H368.81a11.35,11.35,0,1,1,11.35-11.35" transform="translate(-100.35 -100.35)"/><path class="cls-4" d="M258.07,295.84a18.92,18.92,0,1,0-.14,37.84h18.92V315a19.07,19.07,0,0,0-18.78-19.16m11.21,18.92v11.35H257.93a11.35,11.35,0,1,1,11.35-11.35" transform="translate(-100.35 -100.35)"/><path class="cls-4" d="M277.42,482.93a10.1,10.1,0,0,1-9.75-7.55H221.5v-8.64h45.87v-17H221.5V441.1h46.32a10.06,10.06,0,0,1,9.63-7.12h10.5a1.44,1.44,0,0,0,1.44-1.44V422a10.15,10.15,0,0,1,7.34-9.69V382.92h8.64v29h17v-29H331v29.43a10.15,10.15,0,0,1,7.34,9.69V432.5a1.44,1.44,0,0,0,1.44,1.44h10.5a10.06,10.06,0,0,1,9.63,7.12h46.32v8.64H360.37v17h45.87v8.64H360a10.1,10.1,0,0,1-9.75,7.55Zm0-40.36A1.44,1.44,0,0,0,276,444v28.84a1.44,1.44,0,0,0,1.44,1.44h72.87a1.44,1.44,0,0,0,1.44-1.44V444a1.44,1.44,0,0,0-1.44-1.44h-10.5a10.09,10.09,0,0,1-10.08-10.08V422a1.44,1.44,0,0,0-1.44-1.44H299.43A1.44,1.44,0,0,0,298,422V432.5a10.09,10.09,0,0,1-10.08,10.08Z" transform="translate(-100.35 -100.35)"/><path class="cls-2" d="M314.23,295.84a18.92,18.92,0,1,0-.14,37.84H333V315a19.07,19.07,0,0,0-18.78-19.16m11.21,18.92v11.35H314.09a11.35,11.35,0,1,1,11.35-11.35" transform="translate(-100.35 -100.35)"/><polygon class="cls-7" points="265.24 95.55 278.75 164.21 301.72 183.17 338.75 167.65 349.91 142.26 344.84 103.03 332 88.13 265.24 95.55"/><path class="cls-9" d="M397.06,203.42a58.66,58.66,0,0,1,27.42,0c1.71,7.87,7.4,11.21,11.74,13.39-.36,3.85-.65,7.3-.9,10.39-2.06,24.83-2.14,25.8-24.54,38.27C388.38,253,388.3,252,386.24,227.2c-.26-3.09-.54-6.54-.9-10.39C389.66,214.63,395.35,211.28,397.06,203.42Z" transform="translate(-100.35 -100.35)"/><path class="cls-2" d="M410.42,272.81C383.16,257.65,382,256,379.67,227.75c-.63-7.57-.82-9.59-1.25-14l-.08-.81,1.57-.78c7.61-3.78,10.17-5,11.18-13.44l.06-.47.46-.13a62.52,62.52,0,0,1,19.16-2.93A61.87,61.87,0,0,1,429.42,198l1,.29.06.47c1,8.38,3.23,9.49,11.5,13.59l1.26.63v.49c-.46,4.72-.65,6.66-1.29,14.32-2.34,28.21-3.49,29.9-30.75,45.06l-.35.2Zm-24.33-55.58c.33,3.58.6,6.81.85,9.73v.18c2.1,25.28,2.52,25.65,23.82,37.5,21.71-12.09,21.76-12.69,23.82-37.5V227c.24-2.92.51-6.15.85-9.73-5-2.59-9.86-6-11.58-13.22a58.09,58.09,0,0,0-26.21,0C396,211.18,391.13,214.64,386.09,217.23Z" transform="translate(-100.35 -100.35)"/><path class="cls-2" d="M379.1,213.36c.45,4.65.64,6.58,1.29,14.33,2.29,27.61,3.14,29.33,30.39,44.49C438,257,438.87,255.29,441.17,227.69c.64-7.67.82-9.57,1.29-14.33-8.85-4.41-11.61-5.51-12.7-14.56a63.48,63.48,0,0,0-37.93,0C390.7,208,387.71,209.06,379.1,213.36Zm18-9.94a58.66,58.66,0,0,1,27.42,0c1.71,7.87,7.4,11.21,11.74,13.39-.36,3.85-.65,7.3-.9,10.39-2.06,24.83-2.14,25.8-24.54,38.27C388.42,253,388.34,252,386.28,227.2c-.26-3.09-.54-6.54-.9-10.39,4.28-2.18,10-5.53,11.68-13.39Z" transform="translate(-100.35 -100.35)"/><path class="cls-2" d="M396.56,235.55a3.66,3.66,0,0,1,5.17-5.17l4.48,4.48,13.62-13.62a3.66,3.66,0,1,1,5.17,5.17h0l-18.78,18.78Z" transform="translate(-100.35 -100.35)"/><path class="cls-2" d="M397.07,235l9.14,9.14,18.27-18.27a2.93,2.93,0,0,0,0-4.14h0a2.93,2.93,0,0,0-4.14,0h0l-14.12,14.13-5-5a2.93,2.93,0,0,0-4.14,0h0a2.93,2.93,0,0,0,0,4.14Z" transform="translate(-100.35 -100.35)"/></g></svg>