<svg xmlns="http://www.w3.org/2000/svg" viewBox="0 0 669 669"><defs><style>.cls-1,.cls-9{fill:#fff;}.cls-1{opacity:0;}.cls-2{fill:#20ee82;}.cls-3,.cls-8{opacity:0.2;}.cls-4,.cls-6,.cls-8{fill:#7f8c8d;}.cls-5,.cls-6{opacity:0.5;}.cls-7{fill:#ecf0f1;}</style></defs><title>Page2_Square_F_01</title><g id="Layer_2" data-name="Layer 2"><rect class="cls-1" width="669" height="669"/></g><g id="Layer_7" data-name="Layer 7"><path class="cls-2" d="M7288.24,7306.12h4.05a4.05,4.05,0,1,1,0,8.11h-4.05a4.05,4.05,0,1,1,0-8.11Z" transform="translate(-6868.5 -6864.5)"/><g class="cls-3"><path class="cls-4" d="M7350.69,7128.85H7356a4.05,4.05,0,0,1,0,8.11h-5.33a4.05,4.05,0,0,1,0-8.11Z" transform="translate(-6868.5 -6864.5)"/></g><g class="cls-3"><path class="cls-4" d="M7026.91,7316.73h12.53a4.05,4.05,0,0,1,0,8.11h-12.53a4.05,4.05,0,0,1,0-8.11Z" transform="translate(-6868.5 -6864.5)"/></g><g class="cls-5"><path class="cls-4" d="M7348.82,7166.33h-22.61a4.05,4.05,0,0,1,0-8.11h22.61a4.05,4.05,0,0,1,0,8.11Z" transform="translate(-6868.5 -6864.5)"/></g><path class="cls-2" d="M7373.14,7166.33h-4.05a4.05,4.05,0,0,1,0-8.11h4.05a4.05,4.05,0,0,1,0,8.11Z" transform="translate(-6868.5 -6864.5)"/><path class="cls-2" d="M7288.24,7332h4.05a4.05,4.05,0,1,1,0,8.11h-4.05a4.05,4.05,0,1,1,0-8.11Z" transform="translate(-6868.5 -6864.5)"/><path class="cls-2" d="M7072.24,7306.12h4.05a4.05,4.05,0,0,1,0,8.11h-4.05a4.05,4.05,0,0,1,0-8.11Z" transform="translate(-6868.5 -6864.5)"/><path class="cls-2" d="M7072.24,7332h4.05a4.05,4.05,0,1,1,0,8.11h-4.05a4.05,4.05,0,1,1,0-8.11Z" transform="translate(-6868.5 -6864.5)"/><path class="cls-2" d="M7040.23,7163.45a2.78,2.78,0,0,1-2.78-2.78v-5.11h-5.11a2.78,2.78,0,0,1,0-5.56h5.11v-5.11a2.78,2.78,0,1,1,5.56,0V7150h5.11a2.78,2.78,0,0,1,0,5.56H7043v5.11A2.78,2.78,0,0,1,7040.23,7163.45Z" transform="translate(-6868.5 -6864.5)"/><path class="cls-6" d="M7245.9,7191.85v90.4H7346.8v-90.4H7245.9Zm93.38,7.51v21.9h-85.87v-21.9Zm-85.87,29.41h85.87v46h-85.87Z" transform="translate(-6868.5 -6864.5)"/><path class="cls-6" d="M7021.51,7191.85v90.4H7122.4v-90.4H7021.51Zm93.38,7.51v21.9H7029v-21.9ZM7029,7228.77h85.87v46H7029Z" transform="translate(-6868.5 -6864.5)"/><rect class="cls-2" x="227.92" y="342.05" width="7.51" height="7.51"/><rect class="cls-7" x="306.84" y="270.06" width="122.97" height="122.97" rx="27.33" ry="27.33"/><rect class="cls-7" x="196.45" y="270.06" width="122.97" height="122.97" rx="27.33" ry="27.33"/><path class="cls-8" d="M7327.44,7332a2.78,2.78,0,0,1-2.78-2.78v-5.11h-5.11a2.78,2.78,0,0,1,0-5.56h5.11v-5.11a2.78,2.78,0,1,1,5.56,0v5.11h5.11a2.78,2.78,0,0,1,0,5.56h-5.11v5.11A2.78,2.78,0,0,1,7327.44,7332Z" transform="translate(-6868.5 -6864.5)"/><path class="cls-2" d="M7082.75,7102V7078.2h46.77a27.28,27.28,0,0,1,19.29,8h0a27.28,27.28,0,0,0,19.29,8h112.8v7.8h7.93v-15.72H7171.39a27.28,27.28,0,0,1-19.29-8h0a27.28,27.28,0,0,0-19.29-8h-58V7102Z" transform="translate(-6868.5 -6864.5)"/><path class="cls-2" d="M7074.82,7109.91V7228.8a19.84,19.84,0,0,0,19.82,19.82H7269a19.84,19.84,0,0,0,19.82-19.82V7109.91Zm206.08,7.93v111a11.9,11.9,0,0,1-11.89,11.89H7094.64a11.9,11.9,0,0,1-11.89-11.89v-111Z" transform="translate(-6868.5 -6864.5)"/><path class="cls-4" d="M7237.45,7160.34a18.92,18.92,0,1,0-.14,37.84h18.92V7179.5a19.07,19.07,0,0,0-18.78-19.16m11.21,18.92v11.35h-11.35a11.35,11.35,0,1,1,11.35-11.35" transform="translate(-6868.5 -6864.5)"/><path class="cls-4" d="M7126.57,7160.34a18.92,18.92,0,1,0-.14,37.84h18.92V7179.5a19.07,19.07,0,0,0-18.78-19.16m11.21,18.92v11.35h-11.35a11.35,11.35,0,1,1,11.35-11.35" transform="translate(-6868.5 -6864.5)"/><path class="cls-4" d="M7145.92,7347.43a10.1,10.1,0,0,1-9.75-7.55H7090v-8.64h45.87v-17H7090v-8.64h46.32a10.06,10.06,0,0,1,9.63-7.12h10.5a1.44,1.44,0,0,0,1.44-1.44v-10.5a10.15,10.15,0,0,1,7.34-9.69v-29.43h8.64v29h17v-29h8.64v29.43a10.15,10.15,0,0,1,7.34,9.69V7297a1.44,1.44,0,0,0,1.44,1.44h10.5a10.06,10.06,0,0,1,9.63,7.12h46.32v8.64h-45.87v17h45.87v8.64h-46.2a10.1,10.1,0,0,1-9.75,7.55Zm0-40.36a1.44,1.44,0,0,0-1.44,1.44v28.84a1.44,1.44,0,0,0,1.44,1.44h72.87a1.44,1.44,0,0,0,1.44-1.44v-28.84a1.44,1.44,0,0,0-1.44-1.44h-10.5a10.09,10.09,0,0,1-10.08-10.08v-10.5a1.44,1.44,0,0,0-1.44-1.44h-28.84a1.44,1.44,0,0,0-1.44,1.44V7297a10.09,10.09,0,0,1-10.08,10.08Z" transform="translate(-6868.5 -6864.5)"/><path class="cls-2" d="M7182.73,7160.34a18.92,18.92,0,1,0-.14,37.84h18.92V7179.5a19.07,19.07,0,0,0-18.78-19.16m11.21,18.92v11.35h-11.35a11.35,11.35,0,1,1,11.35-11.35" transform="translate(-6868.5 -6864.5)"/><polygon class="cls-7" points="365.59 195.9 379.1 264.56 402.07 283.52 439.1 268 450.26 242.61 445.19 203.38 432.35 188.48 365.59 195.9"/><path class="cls-9" d="M7265.56,7067.92a58.66,58.66,0,0,1,27.42,0c1.71,7.87,7.4,11.21,11.74,13.39-.36,3.85-.65,7.3-.9,10.39-2.06,24.83-2.14,25.8-24.54,38.27-22.4-12.46-22.48-13.43-24.54-38.27-.26-3.09-.54-6.54-.9-10.39C7258.16,7079.13,7263.85,7075.78,7265.56,7067.92Z" transform="translate(-6868.5 -6864.5)"/><path class="cls-2" d="M7278.92,7137.31c-27.26-15.16-28.41-16.85-30.75-45.06-.63-7.57-.82-9.59-1.25-14l-.08-.81,1.57-.78c7.61-3.78,10.17-5,11.18-13.44l.06-.47.46-.13a62.52,62.52,0,0,1,19.16-2.93,61.88,61.88,0,0,1,18.65,2.78l1,.29.06.47c1,8.38,3.23,9.49,11.5,13.59l1.26.63,0,.49c-.46,4.72-.65,6.66-1.29,14.32-2.34,28.21-3.49,29.9-30.75,45.06l-.35.2Zm-24.33-55.58c.33,3.58.6,6.81.85,9.73l0,.18c2.1,25.28,2.52,25.65,23.82,37.5,21.71-12.09,21.76-12.69,23.82-37.5l0-.18c.24-2.92.51-6.15.85-9.73-5-2.59-9.86-6.05-11.58-13.22a58.1,58.1,0,0,0-26.21,0C7264.45,7075.68,7259.63,7079.14,7254.59,7081.73Z" transform="translate(-6868.5 -6864.5)"/><path class="cls-2" d="M7247.6,7077.86c.45,4.65.64,6.58,1.29,14.33,2.29,27.61,3.14,29.33,30.39,44.49,27.26-15.16,28.09-16.89,30.39-44.49.64-7.67.82-9.57,1.29-14.33-8.85-4.41-11.61-5.51-12.7-14.56a63.48,63.48,0,0,0-37.93,0C7259.2,7072.49,7256.21,7073.56,7247.6,7077.86Zm18-9.94a58.66,58.66,0,0,1,27.42,0c1.71,7.87,7.4,11.21,11.74,13.39-.36,3.85-.65,7.3-.9,10.39-2.06,24.83-2.14,25.8-24.54,38.27-22.4-12.46-22.48-13.43-24.54-38.27-.26-3.09-.54-6.54-.9-10.39C7258.16,7079.13,7263.85,7075.78,7265.56,7067.92Z" transform="translate(-6868.5 -6864.5)"/><path class="cls-2" d="M7265.06,7100.05a3.65,3.65,0,0,1,5.17-5.17l4.48,4.48,13.62-13.62a3.65,3.65,0,1,1,5.17,5.17l-18.78,18.78Z" transform="translate(-6868.5 -6864.5)"/><path class="cls-2" d="M7265.57,7099.54l9.14,9.14,18.27-18.27a2.93,2.93,0,0,0,0-4.15h0a2.93,2.93,0,0,0-4.15,0l-14.12,14.13-5-5a2.93,2.93,0,0,0-4.15,0h0A2.93,2.93,0,0,0,7265.57,7099.54Z" transform="translate(-6868.5 -6864.5)"/></g></svg>