<svg id="Layer_1" data-name="Layer 1" xmlns="http://www.w3.org/2000/svg" viewBox="0 0 468.3 468.3"><defs><style>.cls-1,.cls-6{fill:#fff;}.cls-1{fill-opacity:0;}.cls-2,.cls-5{fill:#7f8c8d;}.cls-3{fill:#1ED660;}.cls-4{opacity:0.5;}.cls-5,.cls-8{opacity:0.2;}.cls-5{isolation:isolate;}.cls-7{fill:none;stroke:#1ED660;stroke-linecap:round;stroke-miterlimit:10;stroke-width:6.22px;}</style></defs><title>Page2_Square_E_02</title><g id="Layer_2" data-name="Layer 2"><rect class="cls-1" width="468.3" height="468.3"/></g><g id="Layer_6" data-name="Layer 6"><path class="cls-2" d="M439.39,374.65v17.72H228v-93a9.72,9.72,0,0,1,9.72-9.72h66.73a4.86,4.86,0,0,0,4.86-4.86h0a4.86,4.86,0,0,0-4.86-4.86H237.69a19.44,19.44,0,0,0-19.44,19.44V402.13a19.44,19.44,0,0,0,19.44,19.44h192a19.44,19.44,0,0,0,19.44-19.44V374.7a4.8,4.8,0,0,0-4.26-4.78h-.1a4.81,4.81,0,0,0-5.38,4.73Zm0,27.44a9.73,9.73,0,0,1-9.72,9.72h-192a9.73,9.73,0,0,1-9.72-9.72Z" transform="translate(-100.35 -100.35)"/><path class="cls-2" d="M296,436.11v6.59H285.28a4.86,4.86,0,0,0-4.86,4.86h0a4.86,4.86,0,0,0,4.86,4.86h94.37a4.86,4.86,0,0,0,4.86-4.86h0a4.86,4.86,0,0,0-4.86-4.86H368.92v-6.59a4.86,4.86,0,0,0-4.86-4.86h0a4.86,4.86,0,0,0-4.86,4.86v6.59H305.74v-6.59a4.86,4.86,0,0,0-4.86-4.86h0A4.86,4.86,0,0,0,296,436.1Z" transform="translate(-100.35 -100.35)"/><path class="cls-3" d="M402,201.1c-46.14.23-83,38.59-83,84.73v24.84H308.5a5.82,5.82,0,0,0-5.14,8.54l29.1,55,29.1-55a5.82,5.82,0,0,0-5.14-8.54H343.3a4.86,4.86,0,0,0-4.86,4.86h0a4.86,4.86,0,0,0,4.86,4.86h6.65L332.5,353.45,315,320.38h13.74V285.89c0-40.79,33.37-75.29,74.16-75.07a73.83,73.83,0,0,1,73.33,73.33c.23,40.79-34.28,74.16-75.07,74.16H367.92a4.86,4.86,0,0,0-4.86,4.86s0,.09,0,.14h0a4.86,4.86,0,0,0,4.86,4.71h33.31c46.14,0,84.5-36.9,84.73-83a83.56,83.56,0,0,0-83.2-83.92Z" transform="translate(-100.35 -100.35)"/><path class="cls-3" d="M402.5,289.42h30a4.86,4.86,0,1,0,0-9.72H407.36V235.12a4.86,4.86,0,0,0-9.72,0v49.44a4.86,4.86,0,0,0,4.86,4.86Z" transform="translate(-100.35 -100.35)"/><g class="cls-4"><path class="cls-2" d="M186.68,350.83H176.07a3.82,3.82,0,1,1,0-7.64h10.61a3.82,3.82,0,0,1,0,7.64Z" transform="translate(-100.35 -100.35)"/></g><path class="cls-5" d="M285.88,236.5a2.62,2.62,0,0,1-2.62-2.62h0v-4.82h-4.82a2.62,2.62,0,0,1,0-5.24h4.82V219a2.62,2.62,0,1,1,5.24,0v4.82h4.82a2.62,2.62,0,0,1,0,5.24H288.5v4.82a2.62,2.62,0,0,1-2.62,2.62Z" transform="translate(-100.35 -100.35)"/><g class="cls-4"><path class="cls-2" d="M507.16,374.21H485.85a3.82,3.82,0,0,1,0-7.64h21.31a3.82,3.82,0,0,1,0,7.64Z" transform="translate(-100.35 -100.35)"/></g><path class="cls-3" d="M530.08,374.21h-3.82a3.82,3.82,0,0,1,0-7.64h3.82a3.82,3.82,0,1,1,0,7.64Z" transform="translate(-100.35 -100.35)"/><g class="cls-4"><path class="cls-2" d="M219.63,241.67H235.5a3.82,3.82,0,1,1,0,7.64H219.62a3.82,3.82,0,1,1,0-7.64Z" transform="translate(-100.35 -100.35)"/></g><path class="cls-3" d="M196.71,241.67h3.79a3.82,3.82,0,1,1,0,7.64h-3.82a3.82,3.82,0,0,1,0-7.64Z" transform="translate(-100.35 -100.35)"/><path class="cls-6" d="M159.5,457.45a12.8,12.8,0,0,1-12.79-12.79v-24.3a12.74,12.74,0,0,1,3.28-8.52,13.09,13.09,0,0,1,9.5-4.26h92.78a12,12,0,0,1,9.47,4.22,12.8,12.8,0,0,1,3.32,8.57v24.3a12.8,12.8,0,0,1-12.79,12.79Z" transform="translate(-100.35 -100.35)"/><path class="cls-2" d="M159.92,456.88a12.8,12.8,0,0,1-12.79-12.79v-24.3a12.74,12.74,0,0,1,3.28-8.52,13.09,13.09,0,0,1,9.5-4.26h92.78a12,12,0,0,1,9.47,4.22,12.8,12.8,0,0,1,3.32,8.57v24.3a12.8,12.8,0,0,1-12.79,12.79Zm0-42a5,5,0,0,0-5,5v24.3a5,5,0,0,0,5,5H252.7a5,5,0,0,0,5-5v-24.3a5,5,0,0,0-5-5Z" transform="translate(-100.35 -100.35)"/><line class="cls-7" x1="68.89" y1="332.02" x2="93.16" y2="332.02"/><g class="cls-8"><path class="cls-2" d="M159.5,350.83H148.89a3.82,3.82,0,0,1,0-7.64H159.5a3.82,3.82,0,1,1,0,7.64Z" transform="translate(-100.35 -100.35)"/></g><g class="cls-8"><path class="cls-2" d="M478.2,436.19H467.59a3.82,3.82,0,0,1,0-7.64H478.2a3.82,3.82,0,1,1,0,7.64Z" transform="translate(-100.35 -100.35)"/></g></g></svg>