<svg xmlns="http://www.w3.org/2000/svg" viewBox="0 0 669 669"><defs><style>.cls-1{fill:#fff;opacity:0;}.cls-2{fill:#20ee82;}.cls-3{fill:none;stroke:#7f8c8d;stroke-linecap:round;stroke-miterlimit:10;stroke-width:6.93px;opacity:0.3;}.cls-4{fill:#7f8c8d;}.cls-5{opacity:0.5;}.cls-6{opacity:0.2;}</style></defs><title>Page2_Square_D_01</title><g id="Layer_2" data-name="Layer 2"><rect class="cls-1" width="669" height="669"/></g><g id="Layer_5" data-name="Layer 5"><path class="cls-2" d="M7078.39,7134.88a2.62,2.62,0,0,1-2.62-2.62v-4.81H7071a2.62,2.62,0,0,1,0-5.24h4.82v-4.81a2.62,2.62,0,1,1,5.24,0v4.81h4.81a2.62,2.62,0,0,1,0,5.24H7081v4.81A2.62,2.62,0,0,1,7078.39,7134.88Z" transform="translate(-6868.5 -6864.5)"/><path class="cls-2" d="M7315.86,7282.55a2.62,2.62,0,0,1-2.62-2.62v-4.81h-4.82a2.62,2.62,0,1,1,0-5.24h4.82v-4.81a2.62,2.62,0,1,1,5.24,0v4.81h4.81a2.62,2.62,0,1,1,0,5.24h-4.81v4.81A2.62,2.62,0,0,1,7315.86,7282.55Z" transform="translate(-6868.5 -6864.5)"/><path class="cls-3" d="M7304.23,7199a101,101,0,0,1-60.44,77.57" transform="translate(-6868.5 -6864.5)"/><path class="cls-3" d="M7104.58,7197.33a101.77,101.77,0,0,1-.92-13.65,100.76,100.76,0,0,1,44.47-83.64" transform="translate(-6868.5 -6864.5)"/><circle class="cls-4" cx="305.4" cy="410.12" r="7.41"/><path class="cls-4" d="M7229.63,7337.15H7052.79a3.83,3.83,0,0,1,0-7.65h173V7219.74h-69a3.83,3.83,0,1,1,0-7.65h72.81a3.82,3.82,0,0,1,3.83,3.83v117.41A3.82,3.82,0,0,1,7229.63,7337.15Z" transform="translate(-6868.5 -6864.5)"/><g class="cls-5"><path class="cls-4" d="M7195.89,7319.94H7079.57a3.83,3.83,0,1,1,0-7.65h112.85a20.42,20.42,0,0,1,16.17-16.17v-43a20.42,20.42,0,0,1-16.17-16.17H7139.6a3.83,3.83,0,1,1,0-7.65h56.28a3.83,3.83,0,0,1,3.83,3.83,12.72,12.72,0,0,0,12.71,12.71,3.82,3.82,0,0,1,3.83,3.83v49.92a3.82,3.82,0,0,1-3.83,3.83,12.72,12.72,0,0,0-12.71,12.71A3.83,3.83,0,0,1,7195.89,7319.94Z" transform="translate(-6868.5 -6864.5)"/></g><g class="cls-6"><path class="cls-4" d="M6997.45,7337.15h-17.37a3.83,3.83,0,0,1,0-7.65h17.37a3.83,3.83,0,1,1,0,7.65Z" transform="translate(-6868.5 -6864.5)"/></g><g class="cls-5"><path class="cls-4" d="M7030.84,7337.15h-15.46a3.83,3.83,0,0,1,0-7.65h15.46a3.83,3.83,0,0,1,0,7.65Z" transform="translate(-6868.5 -6864.5)"/></g><path class="cls-2" d="M7062.82,7296.32h-58.68a3.83,3.83,0,0,1,0-7.65h58.68a3.83,3.83,0,0,1,0,7.65Z" transform="translate(-6868.5 -6864.5)"/><path class="cls-2" d="M7044.79,7255.74h-12a3.83,3.83,0,0,1,0-7.65h12a3.83,3.83,0,1,1,0,7.65Z" transform="translate(-6868.5 -6864.5)"/><g class="cls-5"><path class="cls-4" d="M7101.69,7255.74h-36.34a3.83,3.83,0,0,1,0-7.65h36.34a3.83,3.83,0,0,1,0,7.65Z" transform="translate(-6868.5 -6864.5)"/></g><path class="cls-4" d="M7129.2,7219.74h-75.32a3.83,3.83,0,1,1,0-7.65h75.32a3.83,3.83,0,0,1,0,7.65Z" transform="translate(-6868.5 -6864.5)"/><circle class="cls-4" cx="357.2" cy="260.92" r="7.41"/><path class="cls-4" d="M7170,7062.89H7346.8a3.83,3.83,0,1,1,0,7.65h-173V7180.3h69a3.83,3.83,0,0,1,0,7.65H7170a3.82,3.82,0,0,1-3.83-3.83V7066.71A3.82,3.82,0,0,1,7170,7062.89Z" transform="translate(-6868.5 -6864.5)"/><g class="cls-5"><path class="cls-4" d="M7203.71,7080.1H7320a3.83,3.83,0,0,1,0,7.65H7207.18a20.42,20.42,0,0,1-16.17,16.17v43a20.42,20.42,0,0,1,16.17,16.17H7260a3.83,3.83,0,0,1,0,7.65h-56.28a3.83,3.83,0,0,1-3.83-3.83,12.72,12.72,0,0,0-12.71-12.71,3.82,3.82,0,0,1-3.83-3.83v-49.92a3.82,3.82,0,0,1,3.83-3.83,12.72,12.72,0,0,0,12.71-12.71A3.83,3.83,0,0,1,7203.71,7080.1Z" transform="translate(-6868.5 -6864.5)"/></g><path class="cls-2" d="M7402.15,7062.89h17.37a3.83,3.83,0,1,1,0,7.65h-17.37a3.83,3.83,0,0,1,0-7.65Z" transform="translate(-6868.5 -6864.5)"/><g class="cls-5"><path class="cls-4" d="M7368.75,7062.89h15.46a3.83,3.83,0,0,1,0,7.65h-15.46a3.83,3.83,0,1,1,0-7.65Z" transform="translate(-6868.5 -6864.5)"/></g><path class="cls-2" d="M7336.78,7103.72h58.68a3.83,3.83,0,1,1,0,7.65h-58.68a3.83,3.83,0,0,1,0-7.65Z" transform="translate(-6868.5 -6864.5)"/><path class="cls-2" d="M7354.81,7144.3h12a3.83,3.83,0,0,1,0,7.65h-12a3.83,3.83,0,0,1,0-7.65Z" transform="translate(-6868.5 -6864.5)"/><g class="cls-5"><path class="cls-4" d="M7297.91,7144.3h36.34a3.83,3.83,0,0,1,0,7.65h-36.34a3.83,3.83,0,0,1,0-7.65Z" transform="translate(-6868.5 -6864.5)"/></g><path class="cls-4" d="M7270.4,7180.3h75.32a3.83,3.83,0,0,1,0,7.65H7270.4a3.83,3.83,0,1,1,0-7.65Z" transform="translate(-6868.5 -6864.5)"/><path class="cls-4" d="M7268.33,7107a17.82,17.82,0,1,0-.13,35.64H7286v-17.6a18,18,0,0,0-17.69-18m10.56,17.82v10.69H7268.2a10.69,10.69,0,1,1,10.69-10.69" transform="translate(-6868.5 -6864.5)"/><path class="cls-4" d="M7131.17,7256.8a17.82,17.82,0,1,0-.13,35.64h17.82v-17.6a18,18,0,0,0-17.69-18m10.56,17.82v10.69H7131a10.69,10.69,0,1,1,10.69-10.69" transform="translate(-6868.5 -6864.5)"/></g></svg>