<svg xmlns="http://www.w3.org/2000/svg" viewBox="0 0 669 669"><defs><style>.cls-1,.cls-6{fill:#fff;}.cls-1{opacity:0;}.cls-2,.cls-5{fill:#7f8c8d;}.cls-3{fill:#20ee82;}.cls-4{opacity:0.5;}.cls-5,.cls-8{opacity:0.2;}.cls-7{fill:none;stroke:#20ee82;stroke-linecap:round;stroke-miterlimit:10;stroke-width:6.22px;}</style></defs><title>Page2_Square_E_01</title><g id="Layer_2" data-name="Layer 2"><rect class="cls-1" width="669" height="669"/></g><g id="Layer_6" data-name="Layer 6"><path class="cls-2" d="M7307.89,7239.15v17.72H7096.47v-93a9.72,9.72,0,0,1,9.72-9.72h66.73a4.86,4.86,0,0,0,4.86-4.86h0a4.86,4.86,0,0,0-4.86-4.86h-66.73a19.44,19.44,0,0,0-19.44,19.44v102.76a19.44,19.44,0,0,0,19.44,19.44h192a19.44,19.44,0,0,0,19.44-19.44v-27.43a4.8,4.8,0,0,0-4.26-4.78h-.1A4.81,4.81,0,0,0,7307.89,7239.15Zm0,27.44a9.73,9.73,0,0,1-9.72,9.72h-192a9.73,9.73,0,0,1-9.72-9.72Z" transform="translate(-6868.5 -6864.5)"/><path class="cls-2" d="M7164.51,7300.61v6.59h-10.73a4.86,4.86,0,0,0-4.86,4.86h0a4.86,4.86,0,0,0,4.86,4.86h94.37a4.86,4.86,0,0,0,4.86-4.86h0a4.86,4.86,0,0,0-4.86-4.86h-10.73v-6.59a4.86,4.86,0,0,0-4.86-4.86h0a4.86,4.86,0,0,0-4.86,4.86v6.59h-53.46v-6.59a4.86,4.86,0,0,0-4.86-4.86h0A4.86,4.86,0,0,0,7164.51,7300.61Z" transform="translate(-6868.5 -6864.5)"/><path class="cls-3" d="M7270.55,7065.6c-46.14.23-83,38.59-83,84.73v24.84H7177a5.82,5.82,0,0,0-5.14,8.54l29.1,55,29.1-55a5.82,5.82,0,0,0-5.14-8.54H7211.8a4.86,4.86,0,0,0-4.86,4.86h0a4.86,4.86,0,0,0,4.86,4.86h6.65L7201,7217.95l-17.49-33.07h13.74v-34.49c0-40.79,33.37-75.29,74.16-75.07a73.83,73.83,0,0,1,73.33,73.33c.23,40.79-34.28,74.16-75.07,74.16h-33.25a4.86,4.86,0,0,0-4.86,5h0a4.86,4.86,0,0,0,4.86,4.71h33.31c46.14,0,84.5-36.9,84.73-83A83.56,83.56,0,0,0,7270.55,7065.6Z" transform="translate(-6868.5 -6864.5)"/><path class="cls-3" d="M7271,7153.92h30a4.86,4.86,0,0,0,0-9.72h-25.14v-44.58a4.86,4.86,0,0,0-9.72,0v49.44A4.86,4.86,0,0,0,7271,7153.92Z" transform="translate(-6868.5 -6864.5)"/><g class="cls-4"><path class="cls-2" d="M7055.18,7215.33h-10.61a3.82,3.82,0,1,1,0-7.64h10.61a3.82,3.82,0,0,1,0,7.64Z" transform="translate(-6868.5 -6864.5)"/></g><path class="cls-5" d="M7154.38,7101a2.62,2.62,0,0,1-2.62-2.62v-4.82h-4.82a2.62,2.62,0,1,1,0-5.24h4.82v-4.82a2.62,2.62,0,1,1,5.24,0v4.82h4.82a2.62,2.62,0,0,1,0,5.24H7157v4.82A2.62,2.62,0,0,1,7154.38,7101Z" transform="translate(-6868.5 -6864.5)"/><g class="cls-4"><path class="cls-2" d="M7375.66,7238.71h-21.31a3.82,3.82,0,0,1,0-7.64h21.31a3.82,3.82,0,0,1,0,7.64Z" transform="translate(-6868.5 -6864.5)"/></g><path class="cls-3" d="M7398.58,7238.71h-3.82a3.82,3.82,0,0,1,0-7.64h3.82a3.82,3.82,0,0,1,0,7.64Z" transform="translate(-6868.5 -6864.5)"/><g class="cls-4"><path class="cls-2" d="M7088.13,7106.17H7104a3.82,3.82,0,1,1,0,7.64h-15.88a3.82,3.82,0,0,1,0-7.64Z" transform="translate(-6868.5 -6864.5)"/></g><path class="cls-3" d="M7065.21,7106.17H7069a3.82,3.82,0,0,1,0,7.64h-3.82a3.82,3.82,0,0,1,0-7.64Z" transform="translate(-6868.5 -6864.5)"/><path class="cls-6" d="M7028,7321.95a12.8,12.8,0,0,1-12.79-12.79v-24.3a12.74,12.74,0,0,1,3.28-8.52,13.09,13.09,0,0,1,9.5-4.26h92.78a12,12,0,0,1,9.47,4.22,12.8,12.8,0,0,1,3.32,8.57v24.3a12.8,12.8,0,0,1-12.79,12.79Z" transform="translate(-6868.5 -6864.5)"/><path class="cls-2" d="M7028.42,7321.38a12.8,12.8,0,0,1-12.79-12.79v-24.3a12.74,12.74,0,0,1,3.28-8.52,13.09,13.09,0,0,1,9.5-4.26h92.78a12,12,0,0,1,9.47,4.22,12.8,12.8,0,0,1,3.32,8.57v24.3a12.8,12.8,0,0,1-12.79,12.79Zm0-42a5,5,0,0,0-5,5v24.3a5,5,0,0,0,5,5h92.78a5,5,0,0,0,5-5v-24.3a5,5,0,0,0-5-5Z" transform="translate(-6868.5 -6864.5)"/><line class="cls-7" x1="169.24" y1="432.37" x2="193.51" y2="432.37"/><g class="cls-8"><path class="cls-2" d="M7028,7215.33h-10.61a3.82,3.82,0,0,1,0-7.64H7028a3.82,3.82,0,0,1,0,7.64Z" transform="translate(-6868.5 -6864.5)"/></g><g class="cls-8"><path class="cls-2" d="M7346.7,7300.69h-10.61a3.82,3.82,0,0,1,0-7.64h10.61a3.82,3.82,0,0,1,0,7.64Z" transform="translate(-6868.5 -6864.5)"/></g></g></svg>