<svg id="Layer_1" data-name="Layer 1" xmlns="http://www.w3.org/2000/svg" viewBox="0 0 468.3 468.3"><defs><style>.cls-1,.cls-5{fill:#fff;}.cls-1{fill-opacity:0;}.cls-2{fill:#7f8c8d;}.cls-3,.cls-5{opacity:0.5;}.cls-4{fill:#1ED660;}.cls-5{isolation:isolate;}</style></defs><title>Page2_Square_B_02</title><g id="Layer_2" data-name="Layer 2"><rect class="cls-1" width="468.3" height="468.3"/></g><g id="Layer_3" data-name="Layer 3"><path class="cls-2" d="M456.44,326.81V289H492.6v24.57A13.66,13.66,0,0,1,479,327.21H456.4V320H479a6.48,6.48,0,0,0,6.47-6.47v-17.4H463.61v30.64" transform="translate(-100.35 -100.35)"/><path class="cls-2" d="M163.32,408.56V370.75H199.5v24.57A13.66,13.66,0,0,1,185.86,409H163.3v-7.17h22.56a6.48,6.48,0,0,0,6.47-6.47v-17.4H170.5v30.64" transform="translate(-100.35 -100.35)"/><path class="cls-2" d="M184,326.62a19.51,19.51,0,1,1,19.51-19.51h0A19.53,19.53,0,0,1,184,326.62Zm0-31.22a11.71,11.71,0,1,0,11.72,11.71A11.71,11.71,0,0,0,184,295.4Z" transform="translate(-100.35 -100.35)"/><path class="cls-2" d="M475.28,407.66a19.51,19.51,0,1,1,19.51-19.52A19.51,19.51,0,0,1,475.28,407.66Zm0-31.23A11.72,11.72,0,1,0,487,388.15h0A11.73,11.73,0,0,0,475.28,376.43Z" transform="translate(-100.35 -100.35)"/><g class="cls-3"><path class="cls-2" d="M232.73,351.5H205.45a3.9,3.9,0,0,1,0-7.79h27.28a3.9,3.9,0,1,1,.39,7.79Z" transform="translate(-100.35 -100.35)"/></g><path class="cls-4" d="M186,351.5h-3.9a3.9,3.9,0,0,1,0-7.79H186a3.9,3.9,0,0,1,0,7.79Z" transform="translate(-100.35 -100.35)"/><g class="cls-3"><path class="cls-2" d="M453.84,351.5H426.56a3.9,3.9,0,0,1,0-7.79h27.28a3.9,3.9,0,1,1,.39,7.79Z" transform="translate(-100.35 -100.35)"/></g><path class="cls-2" d="M232.73,311h-33.1a3.9,3.9,0,1,1-.39-7.79h33.49a3.9,3.9,0,1,1,.39,7.79Z" transform="translate(-100.35 -100.35)"/><path class="cls-2" d="M459.66,311h-33.1a3.9,3.9,0,0,1,0-7.79h33.1a3.9,3.9,0,1,1,.39,7.79Z" transform="translate(-100.35 -100.35)"/><path class="cls-2" d="M232.73,392h-33.1a3.9,3.9,0,1,1-.39-7.79h33.49a3.9,3.9,0,1,1,.39,7.79Z" transform="translate(-100.35 -100.35)"/><path class="cls-2" d="M459.66,392h-33.1a3.9,3.9,0,0,1,0-7.79h33.1a3.9,3.9,0,1,1,.39,7.79Z" transform="translate(-100.35 -100.35)"/><path class="cls-4" d="M477.23,351.5h-3.9a3.9,3.9,0,0,1,0-7.79h3.9a3.9,3.9,0,1,1,.39,7.79Z" transform="translate(-100.35 -100.35)"/><path class="cls-2" d="M411,448.26H383.67a3.9,3.9,0,0,1,0-7.79H411a3.9,3.9,0,1,1,.39,7.79Z" transform="translate(-100.35 -100.35)"/><path class="cls-4" d="M364.18,448.26h-3.9a3.9,3.9,0,1,1-.39-7.79h4.29a3.9,3.9,0,1,1,.39,7.79Z" transform="translate(-100.35 -100.35)"/><path class="cls-2" d="M275.62,448.26H248.34a3.9,3.9,0,1,1-.39-7.79h27.67a3.9,3.9,0,1,1,.39,7.79Z" transform="translate(-100.35 -100.35)"/><g class="cls-3"><path class="cls-2" d="M340.5,448.26H318.69a3.9,3.9,0,0,1,0-7.79H340.5a3.9,3.9,0,1,1,.39,7.79Z" transform="translate(-100.35 -100.35)"/></g><path class="cls-4" d="M299,448.26h-3.9a3.9,3.9,0,1,1-.39-7.79H299a3.9,3.9,0,1,1,.39,7.79Z" transform="translate(-100.35 -100.35)"/><path class="cls-5" d="M275.56,297.82a17.27,17.27,0,0,0-13.62,16.79V387a17.17,17.17,0,0,0,17.15,17.15h99.67A17.17,17.17,0,0,0,395.91,387V314.61a17.18,17.18,0,0,0-13.83-16.83l-.53-.11h-105Z" transform="translate(-100.35 -100.35)"/><path class="cls-2" d="M426.56,231.81a18.2,18.2,0,0,0-.14,36.39h18.19v-18a18.34,18.34,0,0,0-18.06-18.42M437.33,250v10.92H426.41A10.92,10.92,0,1,1,437.33,250h0" transform="translate(-100.35 -100.35)"/><path class="cls-2" d="M232.86,231.81a18.2,18.2,0,1,0-.14,36.39h18.19v-18a18.34,18.34,0,0,0-18.06-18.42M243.63,250v10.92H232.71A10.92,10.92,0,1,1,243.63,250h0" transform="translate(-100.35 -100.35)"/><path class="cls-4" d="M279.1,412.87A25.94,25.94,0,0,1,253.19,387V314.61a26,26,0,0,1,17.21-24.38l2.25-.81V274.34a56.29,56.29,0,1,1,112.59,0v15.08l2.25.81a26,26,0,0,1,17.2,24.38V387a25.94,25.94,0,0,1-25.91,25.91Zm-3.53-115A17.27,17.27,0,0,0,262,314.61V387a17.17,17.17,0,0,0,17.15,17.15h99.67A17.17,17.17,0,0,0,395.92,387V314.61a17.18,17.18,0,0,0-13.83-16.83l-.53-.11H276.5Zm53.37-71a47.59,47.59,0,0,0-47.53,47.53v14.57H376.5V274.35a47.59,47.59,0,0,0-47.57-47.53Z" transform="translate(-100.35 -100.35)"/><path class="cls-2" d="M426.56,425.23a18.2,18.2,0,0,0-.14,36.39h18.19v-18a18.34,18.34,0,0,0-18.06-18.42m10.78,18.19v10.92H426.41a10.92,10.92,0,1,1,10.92-10.92h0" transform="translate(-100.35 -100.35)"/><path class="cls-2" d="M232.86,425.23a18.2,18.2,0,0,0-.14,36.39h18.19v-18a18.34,18.34,0,0,0-18.06-18.42m10.78,18.19v10.92H232.71a10.92,10.92,0,1,1,10.92-10.92h0" transform="translate(-100.35 -100.35)"/><path class="cls-4" d="M386.11,213h-3.9a3.9,3.9,0,1,1-.39-7.79h4.29a3.9,3.9,0,0,1,0,7.79Z" transform="translate(-100.35 -100.35)"/><g class="cls-3"><path class="cls-2" d="M340.5,193H318.69a3.9,3.9,0,0,1,0-7.79H340.5a3.9,3.9,0,1,1,.39,7.79Z" transform="translate(-100.35 -100.35)"/></g><path class="cls-4" d="M277.07,213h-3.9a3.9,3.9,0,0,1,0-7.79h3.9a3.9,3.9,0,0,1,0,7.79Z" transform="translate(-100.35 -100.35)"/><path class="cls-4" d="M328.5,322a26.78,26.78,0,0,0-1.23,53.55h27.81V349.09A27,27,0,0,0,328.51,322m15.86,26.78v16.07H328.3a16.07,16.07,0,1,1,16.07-16.07h0" transform="translate(-100.35 -100.35)"/></g></svg>