<svg id="Layer_1" data-name="Layer 1" xmlns="http://www.w3.org/2000/svg" viewBox="0 0 272.29 315.61"><defs><style>.cls-1{fill:#fff;}.cls-2{fill:#20ee82;}.cls-3{fill:#7f8c8d;}</style></defs><title>Page2_A_01</title><rect class="cls-1" x="54.14" y="144.63" width="30.43" height="37.24"/><rect class="cls-1" x="187.17" y="145.48" width="30.43" height="36.4"/><rect class="cls-1" x="54.3" y="228.28" width="30.43" height="36.72"/><rect class="cls-1" x="187.13" y="228.28" width="30.43" height="36.72"/><path class="cls-2" d="M7137,7049.37h25.35a18.82,18.82,0,0,1,13.31,5.51h0a18.82,18.82,0,0,0,13.31,5.51h71.87v4.22h7.8v-12h-76.44a18.82,18.82,0,0,1-13.31-5.51h0a18.82,18.82,0,0,0-13.31-5.51h-36.38v23.05h7.8Z" transform="translate(-7063.01 -7041.57)"/><path class="cls-3" d="M7202.85,7187.93v-50.64H7195v50.64" transform="translate(-7063.01 -7041.57)"/><rect class="cls-2" x="132.03" y="80.11" width="7.8" height="7.8"/><path class="cls-2" d="M7144.06,7152.89h43.18v-7.8h-43.18a7,7,0,0,1-7-7v-57.83h123.83v57.83a7,7,0,0,1-7,7h-43.18v7.8h43.18a14.85,14.85,0,0,0,14.84-14.84v-65.63H7129.23v65.63A14.85,14.85,0,0,0,7144.06,7152.89Z" transform="translate(-7063.01 -7041.57)"/><path class="cls-2" d="M7155.26,7227.83v-47.63h-45.84v33.23a14.85,14.85,0,0,0,14.84,14.84h31v-7.8h-31a7,7,0,0,1-7-7V7188h30.23v39.83" transform="translate(-7063.01 -7041.57)"/><rect class="cls-2" y="156.64" width="8.11" height="8.11"/><path class="cls-2" d="M7243,7227.83v-47.63h45.84v33.23a14.85,14.85,0,0,1-14.84,14.84h-31v-7.8h31a7,7,0,0,0,7-7V7188h-30.23v39.83" transform="translate(-7063.01 -7041.57)"/><rect class="cls-2" x="264.18" y="156.64" width="8.11" height="8.11"/><rect class="cls-3" x="7302.73" y="7189.74" width="8.14" height="25.04" transform="translate(-6958.48 7467.49) rotate(-90)"/><path class="cls-2" d="M7155.26,7310.63V7263h-45.84v33.23a14.85,14.85,0,0,0,14.84,14.84h31v-7.8h-31a7,7,0,0,1-7-7V7270.8h30.23v39.83" transform="translate(-7063.01 -7041.57)"/><rect class="cls-2" y="239.44" width="8.11" height="8.11"/><path class="cls-2" d="M7243,7310.63V7263h45.84v33.23a14.85,14.85,0,0,1-14.84,14.84h-31v-7.8h31a7,7,0,0,0,7-7V7270.8h-30.23v39.83" transform="translate(-7063.01 -7041.57)"/><rect class="cls-2" x="264.18" y="239.44" width="8.11" height="8.11"/><rect class="cls-2" x="198.33" y="307.5" width="8.11" height="8.11"/><rect class="cls-3" x="7302.73" y="7272.54" width="8.14" height="25.04" transform="translate(-7041.28 7550.29) rotate(-90)"/><rect class="cls-3" x="7194.65" y="7247.35" width="8.14" height="75.43" transform="translate(-7149.35 7442.21) rotate(-90)"/><rect class="cls-3" x="7087.45" y="7272.54" width="8.14" height="25.04" transform="translate(-7256.56 7335.01) rotate(-90)"/><rect class="cls-3" x="198.32" y="191.38" width="8.14" height="25.04"/><rect class="cls-3" x="65.12" y="191.38" width="8.14" height="25.04"/><rect class="cls-3" x="198.32" y="275.98" width="8.14" height="25.04"/><rect class="cls-3" x="65.12" y="275.98" width="8.14" height="25.04"/><rect class="cls-2" x="65.13" y="307.5" width="8.11" height="8.11"/><path class="cls-3" d="M7199.37,7186.32a14.93,14.93,0,1,0-.11,29.86h14.93v-14.74a15.05,15.05,0,0,0-14.82-15.12m8.85,14.93v9h-9a9,9,0,1,1,9-9" transform="translate(-7063.01 -7041.57)"/><rect class="cls-3" x="7087.45" y="7189.74" width="8.14" height="25.04" transform="translate(-7173.76 7252.21) rotate(-90)"/><rect class="cls-3" x="7168.47" y="7189.74" width="8.14" height="25.04" transform="translate(-7092.73 7333.24) rotate(-90)"/><rect class="cls-3" x="7220.67" y="7189.74" width="8.14" height="25.04" transform="translate(-7040.53 7385.44) rotate(-90)"/></svg>