<svg id="Layer_6" data-name="Layer 6" xmlns="http://www.w3.org/2000/svg" viewBox="0 0 355.68 294.45"><defs><style>.cls-1{fill:#20ee82;}.cls-2,.cls-7{opacity:0.2;}.cls-3,.cls-5,.cls-7{fill:#7f8c8d;}.cls-4,.cls-5{opacity:0.5;}.cls-6{fill:#ecf0f1;}.cls-8{fill:#fff;}</style></defs><title>Page2_F_01</title><path class="cls-1" d="M7299.74,7312.62h4.05a4.05,4.05,0,1,1,0,8.11h-4.05a4.05,4.05,0,1,1,0-8.11Z" transform="translate(-7033.01 -7059.48)"/><g class="cls-2"><path class="cls-3" d="M7362.19,7135.35h5.33a4.05,4.05,0,0,1,0,8.11h-5.33a4.05,4.05,0,0,1,0-8.11Z" transform="translate(-7033.01 -7059.48)"/></g><g class="cls-2"><path class="cls-3" d="M7038.41,7323.23h12.53a4.05,4.05,0,0,1,0,8.11h-12.53a4.05,4.05,0,0,1,0-8.11Z" transform="translate(-7033.01 -7059.48)"/></g><g class="cls-4"><path class="cls-3" d="M7360.32,7172.83h-22.61a4.05,4.05,0,0,1,0-8.11h22.61a4.05,4.05,0,0,1,0,8.11Z" transform="translate(-7033.01 -7059.48)"/></g><path class="cls-1" d="M7384.64,7172.83h-4.05a4.05,4.05,0,0,1,0-8.11h4.05a4.05,4.05,0,0,1,0,8.11Z" transform="translate(-7033.01 -7059.48)"/><path class="cls-1" d="M7299.74,7338.54h4.05a4.05,4.05,0,1,1,0,8.11h-4.05a4.05,4.05,0,1,1,0-8.11Z" transform="translate(-7033.01 -7059.48)"/><path class="cls-1" d="M7083.74,7312.62h4.05a4.05,4.05,0,0,1,0,8.11h-4.05a4.05,4.05,0,0,1,0-8.11Z" transform="translate(-7033.01 -7059.48)"/><path class="cls-1" d="M7083.74,7338.54h4.05a4.05,4.05,0,1,1,0,8.11h-4.05a4.05,4.05,0,1,1,0-8.11Z" transform="translate(-7033.01 -7059.48)"/><path class="cls-1" d="M7051.73,7169.95a2.78,2.78,0,0,1-2.78-2.78v-5.11h-5.11a2.78,2.78,0,0,1,0-5.56h5.11v-5.11a2.78,2.78,0,1,1,5.56,0v5.11h5.11a2.78,2.78,0,0,1,0,5.56h-5.11v5.11A2.78,2.78,0,0,1,7051.73,7169.95Z" transform="translate(-7033.01 -7059.48)"/><path class="cls-5" d="M7257.4,7198.35v90.4H7358.3v-90.4H7257.4Zm93.38,7.51v21.9h-85.87v-21.9Zm-85.87,29.41h85.87v46h-85.87Z" transform="translate(-7033.01 -7059.48)"/><path class="cls-5" d="M7033,7198.35v90.4H7133.9v-90.4H7033Zm93.38,7.51v21.9h-85.87v-21.9Zm-85.87,29.41h85.87v46h-85.87Z" transform="translate(-7033.01 -7059.48)"/><rect class="cls-1" x="74.91" y="153.57" width="7.51" height="7.51"/><rect class="cls-6" x="153.83" y="81.58" width="122.97" height="122.97" rx="27.33" ry="27.33"/><rect class="cls-6" x="43.44" y="81.58" width="122.97" height="122.97" rx="27.33" ry="27.33"/><path class="cls-7" d="M7338.94,7338.49a2.78,2.78,0,0,1-2.78-2.78v-5.11H7331a2.78,2.78,0,0,1,0-5.56h5.11v-5.11a2.78,2.78,0,1,1,5.56,0V7325h5.11a2.78,2.78,0,0,1,0,5.56h-5.11v5.11A2.78,2.78,0,0,1,7338.94,7338.49Z" transform="translate(-7033.01 -7059.48)"/><path class="cls-1" d="M7094.25,7108.48V7084.7H7141a27.28,27.28,0,0,1,19.29,8h0a27.28,27.28,0,0,0,19.29,8h112.8v7.8h7.93v-15.72H7182.89a27.28,27.28,0,0,1-19.29-8h0a27.28,27.28,0,0,0-19.29-8h-58v31.7Z" transform="translate(-7033.01 -7059.48)"/><path class="cls-1" d="M7086.32,7116.41V7235.3a19.84,19.84,0,0,0,19.82,19.82h174.38a19.84,19.84,0,0,0,19.82-19.82V7116.41Zm206.08,7.93v111a11.9,11.9,0,0,1-11.89,11.89H7106.14a11.9,11.9,0,0,1-11.89-11.89v-111Z" transform="translate(-7033.01 -7059.48)"/><path class="cls-3" d="M7249,7166.84a18.92,18.92,0,1,0-.14,37.84h18.92V7186a19.07,19.07,0,0,0-18.78-19.16m11.21,18.92v11.35h-11.35a11.35,11.35,0,1,1,11.35-11.35" transform="translate(-7033.01 -7059.48)"/><path class="cls-3" d="M7138.07,7166.84a18.92,18.92,0,1,0-.14,37.84h18.92V7186a19.07,19.07,0,0,0-18.78-19.16m11.21,18.92v11.35h-11.35a11.35,11.35,0,1,1,11.35-11.35" transform="translate(-7033.01 -7059.48)"/><path class="cls-3" d="M7157.42,7353.93a10.1,10.1,0,0,1-9.75-7.55h-46.2v-8.64h45.87v-17h-45.87v-8.64h46.32a10.06,10.06,0,0,1,9.63-7.12h10.5a1.44,1.44,0,0,0,1.44-1.44V7293a10.15,10.15,0,0,1,7.34-9.69v-29.43h8.64v29h17v-29H7211v29.43a10.15,10.15,0,0,1,7.34,9.69v10.5a1.44,1.44,0,0,0,1.44,1.44h10.5a10.06,10.06,0,0,1,9.63,7.12h46.32v8.64h-45.87v17h45.87v8.64H7240a10.1,10.1,0,0,1-9.75,7.55Zm0-40.36A1.44,1.44,0,0,0,7156,7315v28.84a1.44,1.44,0,0,0,1.44,1.44h72.87a1.44,1.44,0,0,0,1.44-1.44V7315a1.44,1.44,0,0,0-1.44-1.44h-10.5a10.09,10.09,0,0,1-10.08-10.08V7293a1.44,1.44,0,0,0-1.44-1.44h-28.84A1.44,1.44,0,0,0,7178,7293v10.5a10.09,10.09,0,0,1-10.08,10.08Z" transform="translate(-7033.01 -7059.48)"/><path class="cls-1" d="M7194.23,7166.84a18.92,18.92,0,1,0-.14,37.84H7213V7186a19.07,19.07,0,0,0-18.78-19.16m11.21,18.92v11.35h-11.35a11.35,11.35,0,1,1,11.35-11.35" transform="translate(-7033.01 -7059.48)"/><polygon class="cls-6" points="212.58 7.42 226.09 76.08 249.06 95.04 286.09 79.52 297.25 54.13 292.18 14.9 279.34 0 212.58 7.42"/><path class="cls-8" d="M7277.06,7074.42a58.66,58.66,0,0,1,27.42,0c1.71,7.87,7.4,11.21,11.74,13.39-.36,3.85-.65,7.3-.9,10.39-2.06,24.83-2.14,25.8-24.54,38.27-22.4-12.46-22.48-13.43-24.54-38.27-.26-3.09-.54-6.54-.9-10.39C7269.66,7085.63,7275.35,7082.28,7277.06,7074.42Z" transform="translate(-7033.01 -7059.48)"/><path class="cls-1" d="M7290.42,7143.81c-27.26-15.16-28.41-16.85-30.75-45.06-.63-7.57-.82-9.59-1.25-14l-.08-.81,1.57-.78c7.61-3.78,10.17-5,11.18-13.44l.06-.47.46-.13a62.52,62.52,0,0,1,19.16-2.93,61.88,61.88,0,0,1,18.65,2.78l1,.29.06.47c1,8.38,3.23,9.49,11.5,13.59l1.26.63,0,.49c-.46,4.72-.65,6.66-1.29,14.32-2.34,28.21-3.49,29.9-30.75,45.06l-.35.2Zm-24.33-55.58c.33,3.58.6,6.81.85,9.73l0,.18c2.1,25.28,2.52,25.65,23.82,37.5,21.71-12.09,21.76-12.69,23.82-37.5l0-.18c.24-2.92.51-6.15.85-9.73-5-2.59-9.86-6.05-11.58-13.22a58.1,58.1,0,0,0-26.21,0C7275.95,7082.18,7271.13,7085.64,7266.09,7088.23Z" transform="translate(-7033.01 -7059.48)"/><path class="cls-1" d="M7259.1,7084.36c.45,4.65.64,6.58,1.29,14.33,2.29,27.61,3.14,29.33,30.39,44.49,27.26-15.16,28.09-16.89,30.39-44.49.64-7.67.82-9.57,1.29-14.33-8.85-4.41-11.61-5.51-12.7-14.56a63.48,63.48,0,0,0-37.93,0C7270.7,7079,7267.71,7080.06,7259.1,7084.36Zm18-9.94a58.66,58.66,0,0,1,27.42,0c1.71,7.87,7.4,11.21,11.74,13.39-.36,3.85-.65,7.3-.9,10.39-2.06,24.83-2.14,25.8-24.54,38.27-22.4-12.46-22.48-13.43-24.54-38.27-.26-3.09-.54-6.54-.9-10.39C7269.66,7085.63,7275.35,7082.28,7277.06,7074.42Z" transform="translate(-7033.01 -7059.48)"/><path class="cls-1" d="M7276.56,7106.55a3.65,3.65,0,0,1,5.17-5.17l4.48,4.48,13.62-13.62a3.65,3.65,0,1,1,5.17,5.17l-18.78,18.78Z" transform="translate(-7033.01 -7059.48)"/><path class="cls-1" d="M7277.07,7106l9.14,9.14,18.27-18.27a2.93,2.93,0,0,0,0-4.15h0a2.93,2.93,0,0,0-4.15,0l-14.12,14.13-5-5a2.93,2.93,0,0,0-4.15,0h0A2.93,2.93,0,0,0,7277.07,7106Z" transform="translate(-7033.01 -7059.48)"/></svg>