<svg xmlns="http://www.w3.org/2000/svg" viewBox="0 0 669 669"><defs><style>.cls-1,.cls-2{fill:#fff;}.cls-1{opacity:0;}.cls-3{fill:#20ee82;}.cls-4{fill:#7f8c8d;}</style></defs><title>Page2_Square_A_01</title><g id="Layer_2" data-name="Layer 2"><rect class="cls-1" width="669" height="669"/></g><g id="Layer_1" data-name="Layer 1"><rect class="cls-2" x="248.65" y="329.7" width="30.43" height="37.24"/><rect class="cls-2" x="381.68" y="330.55" width="30.43" height="36.4"/><rect class="cls-2" x="248.8" y="413.35" width="30.43" height="36.72"/><rect class="cls-2" x="381.64" y="413.35" width="30.43" height="36.72"/><path class="cls-3" d="M7137,7057.37h25.35a18.82,18.82,0,0,1,13.31,5.51h0a18.82,18.82,0,0,0,13.31,5.51h71.87v4.22h7.8v-12h-76.44a18.82,18.82,0,0,1-13.31-5.51h0a18.82,18.82,0,0,0-13.31-5.51h-36.38v23.05h7.8Z" transform="translate(-6868.5 -6864.5)"/><path class="cls-4" d="M7202.85,7195.93v-50.64H7195v50.64" transform="translate(-6868.5 -6864.5)"/><rect class="cls-3" x="326.54" y="265.18" width="7.8" height="7.8"/><path class="cls-3" d="M7144.06,7160.89h43.18v-7.8h-43.18a7,7,0,0,1-7-7v-57.83h123.83v57.83a7,7,0,0,1-7,7h-43.18v7.8h43.18a14.85,14.85,0,0,0,14.84-14.84v-65.63H7129.23v65.63A14.85,14.85,0,0,0,7144.06,7160.89Z" transform="translate(-6868.5 -6864.5)"/><path class="cls-3" d="M7155.26,7235.83v-47.63h-45.84v33.23a14.85,14.85,0,0,0,14.84,14.84h31v-7.8h-31a7,7,0,0,1-7-7V7196h30.23v39.83" transform="translate(-6868.5 -6864.5)"/><rect class="cls-3" x="194.51" y="341.71" width="8.11" height="8.11"/><path class="cls-3" d="M7243,7235.83v-47.63h45.84v33.23a14.85,14.85,0,0,1-14.84,14.84h-31v-7.8h31a7,7,0,0,0,7-7V7196h-30.23v39.83" transform="translate(-6868.5 -6864.5)"/><rect class="cls-3" x="458.69" y="341.71" width="8.11" height="8.11"/><rect class="cls-4" x="7302.73" y="7197.74" width="8.14" height="25.04" transform="translate(-6771.97 7652.56) rotate(-90)"/><path class="cls-3" d="M7155.26,7318.63V7271h-45.84v33.23a14.85,14.85,0,0,0,14.84,14.84h31v-7.8h-31a7,7,0,0,1-7-7V7278.8h30.23v39.83" transform="translate(-6868.5 -6864.5)"/><rect class="cls-3" x="194.51" y="424.51" width="8.11" height="8.11"/><path class="cls-3" d="M7243,7318.63V7271h45.84v33.23a14.85,14.85,0,0,1-14.84,14.84h-31v-7.8h31a7,7,0,0,0,7-7V7278.8h-30.23v39.83" transform="translate(-6868.5 -6864.5)"/><rect class="cls-3" x="458.69" y="424.51" width="8.11" height="8.11"/><rect class="cls-3" x="392.84" y="492.56" width="8.11" height="8.11"/><rect class="cls-4" x="7302.73" y="7280.54" width="8.14" height="25.04" transform="translate(-6854.77 7735.36) rotate(-90)"/><rect class="cls-4" x="7194.65" y="7255.35" width="8.14" height="75.43" transform="translate(-6962.85 7627.28) rotate(-90)"/><rect class="cls-4" x="7087.45" y="7280.54" width="8.14" height="25.04" transform="translate(-7070.05 7520.08) rotate(-90)"/><rect class="cls-4" x="392.83" y="376.44" width="8.14" height="25.04"/><rect class="cls-4" x="259.63" y="376.44" width="8.14" height="25.04"/><rect class="cls-4" x="392.83" y="461.04" width="8.14" height="25.04"/><rect class="cls-4" x="259.63" y="461.04" width="8.14" height="25.04"/><rect class="cls-3" x="259.64" y="492.56" width="8.11" height="8.11"/><path class="cls-4" d="M7199.37,7194.32a14.93,14.93,0,1,0-.11,29.86h14.93v-14.74a15.05,15.05,0,0,0-14.82-15.12m8.85,14.93v9h-9a9,9,0,1,1,9-9" transform="translate(-6868.5 -6864.5)"/><rect class="cls-4" x="7087.45" y="7197.74" width="8.14" height="25.04" transform="translate(-6987.25 7437.28) rotate(-90)"/><rect class="cls-4" x="7168.47" y="7197.74" width="8.14" height="25.04" transform="translate(-6906.22 7518.3) rotate(-90)"/><rect class="cls-4" x="7220.67" y="7197.74" width="8.14" height="25.04" transform="translate(-6854.02 7570.5) rotate(-90)"/></g></svg>