<?xml version="1.0" encoding="UTF-8"?>
<svg width="300px" height="131px" viewBox="0 0 300 131" version="1.1" xmlns="http://www.w3.org/2000/svg" xmlns:xlink="http://www.w3.org/1999/xlink">
    <!-- Generator: Sketch 48.2 (47327) - http://www.bohemiancoding.com/sketch -->
    <title>Group 2</title>
    <desc>Created with Sketch.</desc>
    <defs></defs>
    <g id="Sia_Token_LP_Visual_Design_Metropolis" stroke="none" stroke-width="1" fill="none" fill-rule="evenodd" transform="translate(-186.000000, -695.000000)">
        <g id="Nav-/-Hero">
            <g id="Hero-/-Header" transform="translate(135.000000, 260.000000)">
                <g id="Group-2" transform="translate(51.111670, 435.000000)">
                    <g id="Sia-Logo" transform="translate(0.000000, 0.068395)">
                        <path d="M129.508872,65.2168298 C129.508872,100.724748 100.724812,129.508808 65.2168937,129.508808 C29.7089753,129.508808 0.924915278,100.724748 0.924915278,65.2168298 C0.924915278,29.7089114 29.7089753,0.924851375 65.2168937,0.924851375 C100.724812,0.924851375 129.508872,29.7089114 129.508872,65.2168298" id="Fill-4" fill="#FFFFFF"></path>
                        <path d="M64.4693347,0.00426083422 C51.4416167,0.151216137 39.3204129,4.14031348 29.1839753,10.8850401 L31.5700424,13.9067542 C41.4199607,7.42550362 53.2355149,3.69857801 65.9141053,3.84031597 C98.6412251,4.20596511 125.509263,30.4848775 126.564907,63.1967801 C127.708375,98.6356165 98.6347035,127.709288 63.195867,126.56495 C30.4843993,125.508872 4.20592163,98.6403991 3.84027249,65.913714 C3.69896931,53.2351236 7.42589492,41.4200042 13.9062759,31.5700859 L10.8849967,29.1840188 C4.13983522,39.3204564 0.151172659,51.4416602 0.00421735632,64.4693782 C-0.39795322,100.112561 28.0078981,129.611446 63.7141236,130.416657 C100.895554,131.255346 131.255737,100.895163 130.417048,63.7137323 C129.610968,28.0075068 100.112083,-0.398344521 64.4693347,0.00426083422" id="Fill-1" fill="#7F8C8D"></path>
                        <path d="M26.8541685,20.4603085 C26.8541685,23.9915836 23.9915836,26.8541685 20.4603085,26.8541685 C16.9290335,26.8541685 14.0664485,23.9915836 14.0664485,20.4603085 C14.0664485,16.9290335 16.9290335,14.0664485 20.4603085,14.0664485 C23.9915836,14.0664485 26.8541685,16.9290335 26.8541685,20.4603085" id="Fill-4" fill="#20EE82"></path>
                        <path d="M84.3982564,65.2168503 L84.3982564,84.3984303 L65.2171111,84.3984303 C54.623286,84.3984303 46.0355311,75.8102406 46.0355311,65.2168503 C46.0355311,54.6230251 54.623286,46.0352703 65.2171111,46.0352703 C75.8105015,46.0352703 84.3982564,54.6230251 84.3982564,65.2168503 M65.4588483,33.2488546 C47.6920391,33.1171166 33.2478111,47.4800409 33.2478111,65.2168503 C33.2478111,82.8727907 47.5607359,97.1857155 65.2171111,97.1857155 L97.1859764,97.1857155 L97.1859764,65.6181513 C97.1859764,47.9904714 83.0860933,33.3792883 65.4588483,33.2488546" id="Fill-6" fill="#20EE82"></path>
                    </g>
                    <g id="Sia-Wordmark" transform="translate(154.467234, 12.149389)" fill="#20EE82">
                        <path d="M131.468614,72.4893197 L131.468614,53.01836 C131.468614,42.089331 122.726825,33.0038391 111.798244,32.9500656 C100.819026,32.8958439 91.875138,41.839284 91.9293597,52.8189497 C91.9835813,63.7475305 101.068625,72.4893197 111.997654,72.4893197 L131.468614,72.4893197 Z M111.698763,19.7701648 C129.896185,19.7701648 144.648066,34.521598 144.648066,52.7194686 L144.648066,85.6687724 L111.698763,85.6687724 C93.5008921,85.6687724 78.7494589,70.9168911 78.7494589,52.7194686 C78.7494589,34.521598 93.5008921,19.7701648 111.698763,19.7701648 Z" id="Fill-1"></path>
                        <polygon id="Fill-3" points="58.9797422 85.6689068 72.1591949 85.6689068 72.1591949 19.7698511 58.9797422 19.7698511"></polygon>
                        <path d="M72.1592845,6.59021925 C72.1592845,10.2297934 69.2089082,13.1801696 65.5693341,13.1801696 C61.9302081,13.1801696 58.9798318,10.2297934 58.9798318,6.59021925 C58.9798318,2.95064513 61.9302081,0.000268867824 65.5693341,0.000268867824 C69.2089082,0.000268867824 72.1592845,2.95064513 72.1592845,6.59021925" id="Fill-5"></path>
                        <path d="M8.90136225,65.2472753 C11.2884604,67.9359535 14.2195678,70.1541131 17.6924439,71.9026501 C21.1662162,73.6520834 24.5203423,74.5371067 27.7570628,74.5608567 C31.2420379,74.5872954 34.1108576,73.769041 36.3621775,72.1056453 C38.6143937,70.4426978 39.7472234,68.6645853 39.7597706,66.768619 C39.7741102,64.7884075 39.1001482,63.1899883 37.739677,61.9724652 C36.3787577,60.7576307 34.4541122,59.9254848 31.9684291,59.4751312 L24.634163,57.9994949 C16.5121141,56.3885286 10.8856068,54.1730577 7.7519523,51.3490493 C4.61650536,48.5277296 3.06737858,44.7469999 3.10053894,40.0091007 C3.13907666,34.4112726 5.30704755,29.624081 9.60938086,25.6511107 C13.9094736,21.6776924 19.6699667,19.7171979 26.8895159,19.7709714 C31.1210474,19.8023393 35.1401732,20.5229051 38.9482379,21.9281876 C42.75451,23.3348144 46.6813246,25.5605919 50.7273373,28.6046238 L46.936749,33.4025701 L43.3186844,37.9818373 C40.4310439,35.37606 37.6240638,33.5464144 34.8923667,32.4929006 C32.1611178,31.4389388 29.5925338,30.9025475 27.1866149,30.8846229 C24.1990452,30.8626654 21.5995415,31.5545519 19.3921367,32.9593863 C17.1829394,34.3642207 16.0711709,36.2736304 16.0545907,38.6840304 C16.0308407,42.1300197 18.6294483,44.3459387 23.8499652,45.3313393 L36.9017056,48.0123996 C47.5076451,50.1588611 52.7810393,55.7531043 52.7187516,64.7978179 C52.7021714,67.2100104 52.1877377,69.6387831 51.1745541,72.0859284 C50.1618186,74.5335218 48.6104513,76.8050068 46.5226926,78.8994872 C44.4326934,80.9962081 41.7453595,82.6560188 38.4593465,83.8784712 C35.1724374,85.1022679 31.3724388,85.7000507 27.0584546,85.6673384 C17.2662884,85.5947441 8.24577288,81.8682361 4.48113041e-05,74.4842294 L8.90136225,65.2472753 Z" id="Fill-6"></path>
                    </g>
                </g>
            </g>
        </g>
    </g>
</svg>